M48
; DRILL file KiCad 10.0.3 date 2026-06-19T10:33:32
; FORMAT={-:-/ absolute / metric / decimal}
; #@! TF.CreationDate,2026-06-19T10:33:32+08:00
; #@! TF.GenerationSoftware,Kicad,Pcbnew,10.0.3
; #@! TF.FileFunction,Plated,1,2,PTH
FMAT,2
METRIC
; #@! TA.AperFunction,Plated,PTH,ViaDrill
T1C0.610
; #@! TA.AperFunction,Plated,PTH,ComponentDrill
T2C1.000
; #@! TA.AperFunction,Plated,PTH,ComponentDrill
T3C1.016
; #@! TA.AperFunction,Plated,PTH,ComponentDrill
T4C1.100
; #@! TA.AperFunction,Plated,PTH,ViaDrill
T5C3.000
%
G90
G05
T1
X96.47Y-83.5
X102.395Y-104.714
X105.343Y-91.843
X107.364Y-102.5
X108.0Y-98.5
X110.622Y-84.123
X111.0Y-88.5
X115.5Y-95.5
X117.5Y-101.5
X118.0Y-97.5
X120.0Y-109.0
X120.0Y-112.0
X121.373Y-84.902
X122.5Y-89.0
X124.0Y-103.0
X124.0Y-103.0
X124.305Y-67.0
X124.305Y-76.0
X124.477Y-64.846
X124.477Y-127.003
X124.755Y-124.819
X128.5Y-77.5
X129.0Y-69.0
X129.384Y-62.614
X131.0Y-69.5
X131.0Y-78.5
X132.0Y-85.5
X132.0Y-91.0
X132.5Y-77.5
X132.5Y-125.5
X133.0Y-72.0
X133.603Y-94.808
X134.292Y-99.761
X137.455Y-72.0
X137.5Y-102.5
X144.0Y-97.0
X146.552Y-75.056
X147.377Y-85.675
X147.743Y-83.243
X147.9Y-95.461
X148.288Y-68.198
X148.693Y-64.307
X148.96Y-91.682
X149.103Y-70.045
X149.429Y-93.248
X149.5Y-100.0
X154.038Y-100.5
X156.319Y-102.238
T2
X101.92Y-65.0
X104.46Y-65.0
X107.0Y-65.0
X115.5Y-69.18
X115.5Y-71.72
X115.5Y-74.26
X115.5Y-76.8
X115.5Y-79.34
X115.5Y-81.88
X115.5Y-84.42
X115.5Y-86.96
X115.5Y-89.5
X115.5Y-92.04
X118.04Y-69.18
X118.04Y-71.72
X118.04Y-74.26
X118.04Y-76.8
X118.04Y-79.34
X118.04Y-81.88
X118.04Y-84.42
X118.04Y-86.96
X118.04Y-89.5
X118.04Y-92.04
X140.9Y-69.18
X140.9Y-71.72
X140.9Y-74.26
X140.9Y-76.8
X140.9Y-79.34
X140.9Y-81.88
X140.9Y-84.42
X140.9Y-86.96
X140.9Y-89.5
X140.9Y-92.04
X143.44Y-69.18
X143.44Y-71.72
X143.44Y-74.26
X143.44Y-76.8
X143.44Y-79.34
X143.44Y-81.88
X143.44Y-84.42
X143.44Y-86.96
X143.44Y-89.5
X143.44Y-92.04
T3
X93.5Y-70.88
X93.5Y-73.42
X93.5Y-75.96
X93.5Y-78.5
X93.5Y-81.04
X93.5Y-83.58
X93.5Y-86.12
X93.5Y-88.66
X93.5Y-91.2
X99.5Y-98.5
X102.04Y-98.5
X151.5Y-62.5
X151.5Y-65.04
X151.5Y-67.58
X151.5Y-70.12
X151.5Y-72.66
X151.5Y-75.2
X151.5Y-77.74
X151.5Y-80.28
X151.5Y-82.82
X151.5Y-85.36
X151.5Y-87.9
X151.5Y-90.44
X151.5Y-92.98
X151.5Y-95.52
X151.5Y-98.06
T4
X93.5Y-105.25
X93.5Y-109.75
X94.5Y-126.0
X94.5Y-130.5
X100.0Y-105.25
X100.0Y-109.75
X101.0Y-126.0
X101.0Y-130.5
X104.0Y-117.0
X104.0Y-121.5
X104.0Y-135.0
X104.0Y-139.5
X110.5Y-117.0
X110.5Y-121.5
X110.5Y-135.0
X110.5Y-139.5
X111.0Y-105.25
X111.0Y-109.75
X113.75Y-125.75
X113.75Y-130.25
X117.5Y-105.25
X117.5Y-109.75
X120.25Y-125.75
X120.25Y-130.25
X129.25Y-105.25
X129.25Y-109.75
X135.75Y-105.25
X135.75Y-109.75
X135.75Y-131.25
X135.75Y-135.75
X141.25Y-118.75
X141.25Y-123.25
X142.25Y-131.25
X142.25Y-135.75
X146.75Y-105.25
X146.75Y-109.75
X147.75Y-118.75
X147.75Y-123.25
X153.25Y-105.25
X153.25Y-109.75
T5
X94.0Y-63.0
X94.5Y-137.5
X127.0Y-90.0
X136.5Y-115.5
X152.0Y-137.5
M30
