%TF.GenerationSoftware,KiCad,Pcbnew,10.0.3*%
%TF.CreationDate,2026-06-19T10:33:26+08:00*%
%TF.ProjectId,pcb,7063622e-6b69-4636-9164-5f7063625858,rev?*%
%TF.SameCoordinates,Original*%
%TF.FileFunction,Soldermask,Bot*%
%TF.FilePolarity,Negative*%
%FSLAX46Y46*%
G04 Gerber Fmt 4.6, Leading zero omitted, Abs format (unit mm)*
G04 Created by KiCad (PCBNEW 10.0.3) date 2026-06-19 10:33:26*
%MOMM*%
%LPD*%
G01*
G04 APERTURE LIST*
%ADD10C,0.900000*%
%ADD11C,2.000000*%
%ADD12C,1.879600*%
%ADD13R,1.700000X1.700000*%
%ADD14C,1.700000*%
%ADD15O,2.400000X1.500000*%
G04 APERTURE END LIST*
D10*
%TO.C,J2*%
X126484968Y-64521855D03*
X134484968Y-64521855D03*
%TD*%
D11*
%TO.C,SELECT*%
X111000000Y-105250000D03*
X117500000Y-105250000D03*
X111000000Y-109750000D03*
X117500000Y-109750000D03*
%TD*%
%TO.C,MENU*%
X146750000Y-105250000D03*
X153250000Y-105250000D03*
X146750000Y-109750000D03*
X153250000Y-109750000D03*
%TD*%
%TO.C,DOWN*%
X104000000Y-135000000D03*
X110500000Y-135000000D03*
X104000000Y-139500000D03*
X110500000Y-139500000D03*
%TD*%
%TO.C,B*%
X135750000Y-131250000D03*
X142250000Y-131250000D03*
X135750000Y-135750000D03*
X142250000Y-135750000D03*
%TD*%
%TO.C,START*%
X93500000Y-105250000D03*
X100000000Y-105250000D03*
X93500000Y-109750000D03*
X100000000Y-109750000D03*
%TD*%
D12*
%TO.C,J4*%
X151500000Y-62500000D03*
X151500000Y-65040000D03*
X151500000Y-67580000D03*
X151500000Y-70120000D03*
X151500000Y-72660000D03*
X151500000Y-75200000D03*
X151500000Y-77740000D03*
X151500000Y-80280000D03*
X151500000Y-82820000D03*
X151500000Y-85360000D03*
X151500000Y-87900000D03*
X151500000Y-90440000D03*
X151500000Y-92980000D03*
X151500000Y-95520000D03*
X151500000Y-98060000D03*
%TD*%
D13*
%TO.C,SW0*%
X101920000Y-65000000D03*
D14*
X104460000Y-65000000D03*
X107000000Y-65000000D03*
%TD*%
D12*
%TO.C,J1*%
X93500000Y-91200000D03*
X93500000Y-88660000D03*
X93500000Y-86120000D03*
X93500000Y-83580000D03*
X93500000Y-81040000D03*
X93500000Y-78500000D03*
X93500000Y-75960000D03*
X93500000Y-73420000D03*
X93500000Y-70880000D03*
%TD*%
%TO.C,J3*%
X102040000Y-98500000D03*
X99500000Y-98500000D03*
%TD*%
D11*
%TO.C,RIGHT*%
X113750000Y-125750000D03*
X120250000Y-125750000D03*
X113750000Y-130250000D03*
X120250000Y-130250000D03*
%TD*%
%TO.C,A*%
X141250000Y-118750000D03*
X147750000Y-118750000D03*
X141250000Y-123250000D03*
X147750000Y-123250000D03*
%TD*%
%TO.C,UP*%
X104000000Y-117000000D03*
X110500000Y-117000000D03*
X104000000Y-121500000D03*
X110500000Y-121500000D03*
%TD*%
%TO.C,VOL*%
X129250000Y-105250000D03*
X135750000Y-105250000D03*
X129250000Y-109750000D03*
X135750000Y-109750000D03*
%TD*%
%TO.C,LEFT*%
X94500000Y-126000000D03*
X101000000Y-126000000D03*
X94500000Y-130500000D03*
X101000000Y-130500000D03*
%TD*%
D15*
%TO.C,U1*%
X115100000Y-92040000D03*
X118440000Y-92040000D03*
X115100000Y-89500000D03*
X118440000Y-89500000D03*
X115100000Y-86960000D03*
X118440000Y-86960000D03*
X115100000Y-84420000D03*
X118440000Y-84420000D03*
X115100000Y-81880000D03*
X118440000Y-81880000D03*
X115100000Y-79340000D03*
X118440000Y-79340000D03*
X115100000Y-76800000D03*
X118440000Y-76800000D03*
X115100000Y-74260000D03*
X118440000Y-74260000D03*
X115100000Y-71720000D03*
X118440000Y-71720000D03*
X115100000Y-69180000D03*
X118440000Y-69180000D03*
X140500000Y-92040000D03*
X143840000Y-92040000D03*
X140500000Y-89500000D03*
X143840000Y-89500000D03*
X140500000Y-86960000D03*
X143840000Y-86960000D03*
X140500000Y-84420000D03*
X143840000Y-84420000D03*
X140500000Y-81880000D03*
X143840000Y-81880000D03*
X140500000Y-79340000D03*
X143840000Y-79340000D03*
X140500000Y-76800000D03*
X143840000Y-76800000D03*
X140500000Y-74260000D03*
X143840000Y-74260000D03*
X140500000Y-71720000D03*
X143840000Y-71720000D03*
X140500000Y-69180000D03*
X143840000Y-69180000D03*
%TD*%
M02*
