%TF.GenerationSoftware,KiCad,Pcbnew,10.0.3*%
%TF.CreationDate,2026-06-19T10:33:26+08:00*%
%TF.ProjectId,pcb,7063622e-6b69-4636-9164-5f7063625858,rev?*%
%TF.SameCoordinates,Original*%
%TF.FileFunction,Copper,L2,Bot*%
%TF.FilePolarity,Positive*%
%FSLAX46Y46*%
G04 Gerber Fmt 4.6, Leading zero omitted, Abs format (unit mm)*
G04 Created by KiCad (PCBNEW 10.0.3) date 2026-06-19 10:33:26*
%MOMM*%
%LPD*%
G01*
G04 APERTURE LIST*
%TA.AperFunction,ComponentPad*%
%ADD10C,2.000000*%
%TD*%
%TA.AperFunction,ComponentPad*%
%ADD11C,1.879600*%
%TD*%
%TA.AperFunction,ComponentPad*%
%ADD12R,1.700000X1.700000*%
%TD*%
%TA.AperFunction,ComponentPad*%
%ADD13C,1.700000*%
%TD*%
%TA.AperFunction,ComponentPad*%
%ADD14O,2.400000X1.500000*%
%TD*%
%TA.AperFunction,ViaPad*%
%ADD15C,4.000000*%
%TD*%
%TA.AperFunction,ViaPad*%
%ADD16C,1.000000*%
%TD*%
%TA.AperFunction,ViaPad*%
%ADD17C,0.500000*%
%TD*%
%TA.AperFunction,Conductor*%
%ADD18C,0.300000*%
%TD*%
G04 APERTURE END LIST*
D10*
%TO.P,SELECT,1,1_1*%
%TO.N,GND*%
X111000000Y-105250000D03*
X117500000Y-105250000D03*
%TO.P,SELECT,2,2_2*%
%TO.N,IO27*%
X111000000Y-109750000D03*
X117500000Y-109750000D03*
%TD*%
%TO.P,MENU,1,1_1*%
%TO.N,GND*%
X146750000Y-105250000D03*
X153250000Y-105250000D03*
%TO.P,MENU,2,2_2*%
%TO.N,IO13*%
X146750000Y-109750000D03*
X153250000Y-109750000D03*
%TD*%
%TO.P,DOWN,1,1_1*%
%TO.N,3.3V*%
X104000000Y-135000000D03*
X110500000Y-135000000D03*
%TO.P,DOWN,2,2_2*%
%TO.N,Net-(R4-Pad1)*%
X104000000Y-139500000D03*
X110500000Y-139500000D03*
%TD*%
%TO.P,B,1,1_1*%
%TO.N,GND*%
X135750000Y-131250000D03*
X142250000Y-131250000D03*
%TO.P,B,2,2_2*%
%TO.N,IO32*%
X135750000Y-135750000D03*
X142250000Y-135750000D03*
%TD*%
%TO.P,START,1,1_1*%
%TO.N,GND*%
X93500000Y-105250000D03*
X100000000Y-105250000D03*
%TO.P,START,2,2_2*%
%TO.N,VN*%
X93500000Y-109750000D03*
X100000000Y-109750000D03*
%TD*%
D11*
%TO.P,J4,1,Pin_1_1*%
%TO.N,/IO4*%
X151500000Y-62500000D03*
%TO.P,J4,2,Pin_2_2*%
%TO.N,IO5*%
X151500000Y-65040000D03*
%TO.P,J4,3,Pin_3_3*%
%TO.N,IO13*%
X151500000Y-67580000D03*
%TO.P,J4,4,Pin_4_4*%
%TO.N,IO14*%
X151500000Y-70120000D03*
%TO.P,J4,5,Pin_5_5*%
%TO.N,/IO16*%
X151500000Y-72660000D03*
%TO.P,J4,6,Pin_6_6*%
%TO.N,/IO18*%
X151500000Y-75200000D03*
%TO.P,J4,7,Pin_7_7*%
%TO.N,IO19*%
X151500000Y-77740000D03*
%TO.P,J4,8,Pin_8_8*%
%TO.N,IO21*%
X151500000Y-80280000D03*
%TO.P,J4,9,Pin_9_9*%
%TO.N,IO22*%
X151500000Y-82820000D03*
%TO.P,J4,10,Pin_10_10*%
%TO.N,IO23*%
X151500000Y-85360000D03*
%TO.P,J4,11,Pin_11_11*%
%TO.N,/IO25*%
X151500000Y-87900000D03*
%TO.P,J4,12,Pin_12_12*%
%TO.N,IO26*%
X151500000Y-90440000D03*
%TO.P,J4,13,Pin_13_13*%
%TO.N,IO27*%
X151500000Y-92980000D03*
%TO.P,J4,14,Pin_14_14*%
%TO.N,IO32*%
X151500000Y-95520000D03*
%TO.P,J4,15,Pin_15_15*%
%TO.N,IO33*%
X151500000Y-98060000D03*
%TD*%
D12*
%TO.P,SW0,1,A_1*%
%TO.N,3.3V*%
X101920000Y-65000000D03*
D13*
%TO.P,SW0,2,B_2*%
%TO.N,Net-(SW0-B)*%
X104460000Y-65000000D03*
%TO.P,SW0,3,C_3*%
%TO.N,unconnected-(SW0-C-Pad3)*%
X107000000Y-65000000D03*
%TD*%
D11*
%TO.P,J1,1,Pin_1_1*%
%TO.N,GND*%
X93500000Y-91200000D03*
%TO.P,J1,2,Pin_2_2*%
%TO.N,3.3V*%
X93500000Y-88660000D03*
%TO.P,J1,3,Pin_3_3*%
%TO.N,/IO18*%
X93500000Y-86120000D03*
%TO.P,J1,4,Pin_4_4*%
%TO.N,IO23*%
X93500000Y-83580000D03*
%TO.P,J1,5,Pin_5_5*%
%TO.N,RST*%
X93500000Y-81040000D03*
%TO.P,J1,6,Pin_6_6*%
%TO.N,IO21*%
X93500000Y-78500000D03*
%TO.P,J1,7,Pin_7_7*%
%TO.N,IO5*%
X93500000Y-75960000D03*
%TO.P,J1,8,Pin_8_8*%
%TO.N,IO14*%
X93500000Y-73420000D03*
%TO.P,J1,9,Pin_9_9*%
%TO.N,unconnected-(J1-Pin_9-Pad9)*%
X93500000Y-70880000D03*
%TD*%
%TO.P,J3,1,Pin_1_1*%
%TO.N,Net-(J3-Pin_1)*%
X102040000Y-98500000D03*
%TO.P,J3,2,Pin_2_2*%
%TO.N,GND*%
X99500000Y-98500000D03*
%TD*%
D10*
%TO.P,RIGHT,1,1_1*%
%TO.N,3.3V*%
X113750000Y-125750000D03*
X120250000Y-125750000D03*
%TO.P,RIGHT,2,2_2*%
%TO.N,Net-(R5-Pad1)*%
X113750000Y-130250000D03*
X120250000Y-130250000D03*
%TD*%
%TO.P,A,1,1_1*%
%TO.N,GND*%
X141250000Y-118750000D03*
X147750000Y-118750000D03*
%TO.P,A,2,2_2*%
%TO.N,IO33*%
X141250000Y-123250000D03*
X147750000Y-123250000D03*
%TD*%
%TO.P,UP,1,1_1*%
%TO.N,3.3V*%
X104000000Y-117000000D03*
X110500000Y-117000000D03*
%TO.P,UP,2,2_2*%
%TO.N,IO35*%
X104000000Y-121500000D03*
X110500000Y-121500000D03*
%TD*%
%TO.P,VOL,1,1_1*%
%TO.N,GND*%
X129250000Y-105250000D03*
X135750000Y-105250000D03*
%TO.P,VOL,2,2_2*%
%TO.N,IO0*%
X129250000Y-109750000D03*
X135750000Y-109750000D03*
%TD*%
%TO.P,LEFT,1,1_1*%
%TO.N,3.3V*%
X94500000Y-126000000D03*
X101000000Y-126000000D03*
%TO.P,LEFT,2,2_2*%
%TO.N,IO34*%
X94500000Y-130500000D03*
X101000000Y-130500000D03*
%TD*%
D14*
%TO.P,U1,1,GND_1*%
%TO.N,GND*%
X115100000Y-92040000D03*
%TO.P,U1,2,RST_2*%
%TO.N,RST*%
X118440000Y-92040000D03*
%TO.P,U1,3,NC_3*%
%TO.N,unconnected-(U1-NC-Pad3)*%
X115100000Y-89500000D03*
%TO.P,U1,4,IO_36/SVP/A0_4*%
%TO.N,unconnected-(U1-IO_36{slash}SVP{slash}A0-Pad4)*%
X118440000Y-89500000D03*
%TO.P,U1,5,IO_39/SVN_5*%
%TO.N,VN*%
X115100000Y-86960000D03*
%TO.P,U1,6,IO_26/D0_6*%
%TO.N,IO26*%
X118440000Y-86960000D03*
%TO.P,U1,7,IO_35_7*%
%TO.N,IO35*%
X115100000Y-84420000D03*
%TO.P,U1,8,IO_18/D5_8*%
%TO.N,/IO18*%
X118440000Y-84420000D03*
%TO.P,U1,9,IO_33_9*%
%TO.N,IO33*%
X115100000Y-81880000D03*
%TO.P,U1,10,IO_19/D6_10*%
%TO.N,IO19*%
X118440000Y-81880000D03*
%TO.P,U1,11,IO_34_11*%
%TO.N,IO34*%
X115100000Y-79340000D03*
%TO.P,U1,12,IO_23/D7_12*%
%TO.N,IO23*%
X118440000Y-79340000D03*
%TO.P,U1,13,IO_14/TMS_13*%
%TO.N,IO14*%
X115100000Y-76800000D03*
%TO.P,U1,14,IO_05/D8_14*%
%TO.N,IO5*%
X118440000Y-76800000D03*
%TO.P,U1,15,NC_15*%
%TO.N,unconnected-(U1-NC-Pad15)*%
X115100000Y-74260000D03*
%TO.P,U1,16,3V3_16*%
%TO.N,Net-(SW0-B)*%
X118440000Y-74260000D03*
%TO.P,U1,17,IO_09/SD2_17*%
%TO.N,unconnected-(U1-IO_09{slash}SD2-Pad17)*%
X115100000Y-71720000D03*
%TO.P,U1,18,IO_13/TCK_18*%
%TO.N,IO13*%
X118440000Y-71720000D03*
%TO.P,U1,19,CMD_19*%
%TO.N,unconnected-(U1-CMD-Pad19)*%
X115100000Y-69180000D03*
%TO.P,U1,20,IO_10/SD3_20*%
%TO.N,unconnected-(U1-IO_10{slash}SD3-Pad20)*%
X118440000Y-69180000D03*
%TO.P,U1,21,TXD_21*%
%TO.N,unconnected-(U1-TXD-Pad21)*%
X140500000Y-92040000D03*
%TO.P,U1,22,GND_22*%
%TO.N,GND*%
X143840000Y-92040000D03*
%TO.P,U1,23,RXD_23*%
%TO.N,unconnected-(U1-RXD-Pad23)*%
X140500000Y-89500000D03*
%TO.P,U1,24,IO_27_24*%
%TO.N,IO27*%
X143840000Y-89500000D03*
%TO.P,U1,25,IO_22/D1/SCL_25*%
%TO.N,IO22*%
X140500000Y-86960000D03*
%TO.P,U1,26,IO_25_26*%
%TO.N,/IO25*%
X143840000Y-86960000D03*
%TO.P,U1,27,IO_21/D2/SDA_27*%
%TO.N,IO21*%
X140500000Y-84420000D03*
%TO.P,U1,28,IO_32_28*%
%TO.N,IO32*%
X143840000Y-84420000D03*
%TO.P,U1,29,IO_17/D3_29*%
%TO.N,unconnected-(U1-IO_17{slash}D3-Pad29)*%
X140500000Y-81880000D03*
%TO.P,U1,30,IO_12/TDI_30*%
%TO.N,unconnected-(U1-IO_12{slash}TDI-Pad30)*%
X143840000Y-81880000D03*
%TO.P,U1,31,IO_16/D4_31*%
%TO.N,/IO16*%
X140500000Y-79340000D03*
%TO.P,U1,32,IO_04_32*%
%TO.N,/IO4*%
X143840000Y-79340000D03*
%TO.P,U1,33,GND_33*%
%TO.N,GND*%
X140500000Y-76800000D03*
%TO.P,U1,34,IO_00_34*%
%TO.N,IO0*%
X143840000Y-76800000D03*
%TO.P,U1,35,VCC_(USB)_35*%
%TO.N,Net-(SW0-B)*%
X140500000Y-74260000D03*
%TO.P,U1,36,IO_02_36*%
%TO.N,IO2*%
X143840000Y-74260000D03*
%TO.P,U1,37,TD0_37*%
%TO.N,unconnected-(U1-TD0-Pad37)*%
X140500000Y-71720000D03*
%TO.P,U1,38,SD1_38*%
%TO.N,unconnected-(U1-SD1-Pad38)*%
X143840000Y-71720000D03*
%TO.P,U1,39,SD0_39*%
%TO.N,unconnected-(U1-SD0-Pad39)*%
X140500000Y-69180000D03*
%TO.P,U1,40,CLK_40*%
%TO.N,unconnected-(U1-CLK-Pad40)*%
X143840000Y-69180000D03*
%TD*%
D15*
%TO.N,*%
X94000000Y-63000000D03*
X127000000Y-90000000D03*
X94500000Y-137500000D03*
X136500000Y-115500000D03*
X152000000Y-137500000D03*
D16*
%TO.N,IO0*%
X148287900Y-68198100D03*
X156318600Y-102237700D03*
%TO.N,GND*%
X120000000Y-112000000D03*
X117500000Y-101500000D03*
X137454800Y-72000000D03*
X124000000Y-103000000D03*
D17*
X124000000Y-103000000D03*
D16*
X132000000Y-85500000D03*
X131000000Y-69500000D03*
X118000000Y-97500000D03*
X132000000Y-91000000D03*
X144000000Y-97000000D03*
X133000000Y-72000000D03*
X132500000Y-125500000D03*
X149500000Y-100000000D03*
X120000000Y-109000000D03*
%TO.N,IO22*%
X148960100Y-91682500D03*
X128500000Y-77500000D03*
%TO.N,IO23*%
X124477200Y-64846000D03*
%TO.N,/IO18*%
X122500000Y-89000000D03*
X115500000Y-95500000D03*
X132500000Y-77500000D03*
X121373400Y-84902200D03*
X108000000Y-98500000D03*
%TO.N,IO19*%
X131000000Y-78500000D03*
%TO.N,IO2*%
X146551500Y-75056300D03*
%TO.N,IO35*%
X124755100Y-124818900D03*
%TO.N,IO13*%
X129000000Y-69000000D03*
X148692600Y-64307400D03*
X129384400Y-62613700D03*
%TO.N,VN*%
X105343000Y-91843000D03*
%TO.N,IO32*%
X147742950Y-83242950D03*
%TO.N,IO34*%
X124477200Y-127002700D03*
%TO.N,/IO4*%
X149103500Y-70044800D03*
%TO.N,IO5*%
X124305500Y-76000000D03*
X124305500Y-67000000D03*
%TO.N,/IO16*%
X147899900Y-95461100D03*
X147376700Y-85675000D03*
X133603200Y-94808200D03*
%TO.N,IO21*%
X137500000Y-102500000D03*
X154037600Y-100500000D03*
X96470000Y-83500000D03*
X134291600Y-99761200D03*
%TO.N,IO26*%
X149429100Y-93248000D03*
%TO.N,IO33*%
X110622500Y-84122500D03*
X102394800Y-104714200D03*
%TO.N,RST*%
X111000000Y-88500000D03*
%TO.N,Net-(J3-Pin_1)*%
X107364000Y-102500000D03*
%TD*%
%TO.N,IO0*%
D18*
X147830600Y-74518135D02*
X147836500Y-74524035D01*
X152122700Y-102237700D02*
X156318600Y-102237700D01*
X147830600Y-70589165D02*
X147830600Y-74518135D01*
X147830600Y-75594465D02*
X147830600Y-76169400D01*
X147830600Y-68655400D02*
X147830600Y-69500435D01*
X147818500Y-69512535D02*
X147818500Y-70577065D01*
X148287900Y-68198100D02*
X147830600Y-68655400D01*
X135750000Y-109750000D02*
X129250000Y-109750000D01*
X146860400Y-107500000D02*
X152122700Y-102237700D01*
X135750000Y-109750000D02*
X138000000Y-107500000D01*
X147830600Y-69500435D02*
X147818500Y-69512535D01*
X147200000Y-76800000D02*
X143440000Y-76800000D01*
X147836500Y-75588565D02*
X147830600Y-75594465D01*
X147818500Y-70577065D02*
X147830600Y-70589165D01*
X147836500Y-74524035D02*
X147836500Y-75588565D01*
X138000000Y-107500000D02*
X146860400Y-107500000D01*
X147830600Y-76169400D02*
X147200000Y-76800000D01*
%TO.N,3.3V*%
X120250000Y-125750000D02*
X113750000Y-125750000D01*
X101000000Y-126000000D02*
X94500000Y-126000000D01*
X110500000Y-135000000D02*
X104000000Y-135000000D01*
X110500000Y-117000000D02*
X104000000Y-117000000D01*
%TO.N,GND*%
X109750000Y-104000000D02*
X111000000Y-105250000D01*
X156000000Y-105500000D02*
X155750000Y-105250000D01*
X127250000Y-105250000D02*
X127000000Y-105000000D01*
X155750000Y-105250000D02*
X153250000Y-105250000D01*
X120000000Y-109000000D02*
X120000000Y-112000000D01*
X147750000Y-118750000D02*
X141250000Y-118750000D01*
X103500000Y-102000000D02*
X105500000Y-104000000D01*
X111000000Y-105250000D02*
X117500000Y-105250000D01*
X101000000Y-104291735D02*
X101000000Y-102000000D01*
X112000000Y-95500000D02*
X114000000Y-97500000D01*
X99500000Y-98500000D02*
X99500000Y-99000000D01*
X99500000Y-99000000D02*
X100000000Y-99500000D01*
X144000000Y-97000000D02*
X132500000Y-97000000D01*
X115500000Y-92040000D02*
X115460000Y-92040000D01*
X112000000Y-102500000D02*
X113000000Y-101500000D01*
X133000000Y-72000000D02*
X131000000Y-70000000D01*
X132500000Y-128000000D02*
X135750000Y-131250000D01*
X147750000Y-118750000D02*
X156000000Y-110500000D01*
X111000000Y-105250000D02*
X112000000Y-104250000D01*
X125000000Y-103000000D02*
X127000000Y-105000000D01*
X137454800Y-72000000D02*
X133000000Y-72000000D01*
X146750000Y-105250000D02*
X135750000Y-105250000D01*
X101000000Y-102000000D02*
X103500000Y-102000000D01*
X132500000Y-125500000D02*
X132500000Y-128000000D01*
X149500000Y-100000000D02*
X146500000Y-97000000D01*
X135750000Y-105250000D02*
X129250000Y-105250000D01*
X100000000Y-99500000D02*
X100000000Y-105250000D01*
X113000000Y-101500000D02*
X117500000Y-101500000D01*
X93500000Y-91200000D02*
X99500000Y-97200000D01*
X129250000Y-105250000D02*
X127250000Y-105250000D01*
X112000000Y-104250000D02*
X112000000Y-102500000D01*
X131000000Y-70000000D02*
X131000000Y-69500000D01*
X105500000Y-104000000D02*
X109750000Y-104000000D01*
X124000000Y-103000000D02*
X125000000Y-103000000D01*
X132500000Y-97000000D02*
X132000000Y-96500000D01*
X132000000Y-96500000D02*
X132000000Y-91000000D01*
X114000000Y-97500000D02*
X118000000Y-97500000D01*
X146500000Y-97000000D02*
X144000000Y-97000000D01*
X115460000Y-92040000D02*
X112000000Y-95500000D01*
X156000000Y-110500000D02*
X156000000Y-105500000D01*
X100000000Y-105250000D02*
X100041735Y-105250000D01*
X93500000Y-105250000D02*
X100000000Y-105250000D01*
X99500000Y-97200000D02*
X99500000Y-98500000D01*
X100041735Y-105250000D02*
X101000000Y-104291735D01*
X135750000Y-131250000D02*
X142250000Y-131250000D01*
%TO.N,IO22*%
X128881000Y-77500000D02*
X131084300Y-75296700D01*
X140900000Y-86960000D02*
X138248300Y-86960000D01*
X138248300Y-92858000D02*
X138248300Y-86960000D01*
X146760500Y-93882100D02*
X139272400Y-93882100D01*
X139272400Y-93882100D02*
X138248300Y-92858000D01*
X131084300Y-75296700D02*
X133950300Y-75296700D01*
X148960100Y-91682500D02*
X146760500Y-93882100D01*
X138248300Y-79594700D02*
X138248300Y-86960000D01*
X128500000Y-77500000D02*
X128881000Y-77500000D01*
X133950300Y-75296700D02*
X138248300Y-79594700D01*
%TO.N,IO23*%
X109935300Y-66851700D02*
X94119300Y-66851700D01*
X152183200Y-60885700D02*
X128203700Y-60885700D01*
X91077700Y-81157700D02*
X93500000Y-83580000D01*
X151500000Y-85360000D02*
X153098800Y-83761200D01*
X94119300Y-66851700D02*
X91077700Y-69893300D01*
X128203700Y-60885700D02*
X124477200Y-64612200D01*
X153098800Y-83761200D02*
X153098800Y-61801300D01*
X111999700Y-64787300D02*
X109935300Y-66851700D01*
X153098800Y-61801300D02*
X152183200Y-60885700D01*
X124477200Y-64846000D02*
X124418500Y-64787300D01*
X91077700Y-69893300D02*
X91077700Y-81157700D01*
X124418500Y-64787300D02*
X111999700Y-64787300D01*
X124477200Y-64612200D02*
X124477200Y-64846000D01*
%TO.N,/IO18*%
X104000000Y-95500000D02*
X107000000Y-98500000D01*
X115500000Y-95500000D02*
X121500000Y-95500000D01*
X133594900Y-76104000D02*
X134073300Y-76582400D01*
X132500000Y-76143500D02*
X132539500Y-76104000D01*
X93500000Y-86120000D02*
X102880000Y-95500000D01*
X131995700Y-79500000D02*
X126593500Y-84902200D01*
X134082400Y-76582400D02*
X135500000Y-78000000D01*
X135500000Y-78000000D02*
X135500000Y-78500000D01*
X132539500Y-76104000D02*
X133594900Y-76104000D01*
X134073300Y-76582400D02*
X134082400Y-76582400D01*
X102880000Y-95500000D02*
X104000000Y-95500000D01*
X135500000Y-78500000D02*
X134500000Y-79500000D01*
X107000000Y-98500000D02*
X108000000Y-98500000D01*
X121500000Y-95500000D02*
X122500000Y-94500000D01*
X122500000Y-94500000D02*
X122500000Y-89000000D01*
X134500000Y-79500000D02*
X131995700Y-79500000D01*
X132500000Y-77500000D02*
X132500000Y-76143500D01*
X126593500Y-84902200D02*
X121373400Y-84902200D01*
%TO.N,IO19*%
X128484330Y-81880000D02*
X118040000Y-81880000D01*
X131000000Y-78500000D02*
X131000000Y-79364330D01*
X131000000Y-79364330D02*
X128484330Y-81880000D01*
%TO.N,IO27*%
X149910200Y-91098517D02*
X149910200Y-90410200D01*
X153133000Y-96839008D02*
X153133000Y-94613000D01*
X122500000Y-102500000D02*
X123718300Y-101281700D01*
X117500000Y-109750000D02*
X122500000Y-104750000D01*
X122500000Y-104750000D02*
X122500000Y-102500000D01*
X153082800Y-96889208D02*
X153133000Y-96839008D01*
X123718300Y-101281700D02*
X136901035Y-101281700D01*
X136967735Y-101215000D02*
X138032265Y-101215000D01*
X153133000Y-94613000D02*
X151500000Y-92980000D01*
X153133000Y-97730392D02*
X153082800Y-97680192D01*
X149910200Y-90410200D02*
X149000000Y-89500000D01*
X136901035Y-101281700D02*
X136967735Y-101215000D01*
X117500000Y-109750000D02*
X111000000Y-109750000D01*
X149000000Y-89500000D02*
X143440000Y-89500000D01*
X150841483Y-92029800D02*
X149910200Y-91098517D01*
X150548400Y-101281700D02*
X153133000Y-98697100D01*
X151500000Y-92029800D02*
X150841483Y-92029800D01*
X138032265Y-101215000D02*
X138098965Y-101281700D01*
X138098965Y-101281700D02*
X150548400Y-101281700D01*
X151500000Y-92980000D02*
X151500000Y-92029800D01*
X153133000Y-98697100D02*
X153133000Y-97730392D01*
X153082800Y-97680192D02*
X153082800Y-96889208D01*
%TO.N,IO2*%
X146091700Y-74260000D02*
X146091700Y-74596500D01*
X143440000Y-74260000D02*
X146091700Y-74260000D01*
X146091700Y-74596500D02*
X146551500Y-75056300D01*
%TO.N,IO35*%
X121436200Y-121500000D02*
X124755100Y-124818900D01*
X110500000Y-121500000D02*
X104000000Y-121500000D01*
X110500000Y-121500000D02*
X121436200Y-121500000D01*
%TO.N,IO13*%
X129000000Y-69000000D02*
X126622000Y-69000000D01*
X126622000Y-69000000D02*
X123902000Y-71720000D01*
X148692600Y-64307400D02*
X146998900Y-62613700D01*
X153250000Y-109750000D02*
X146750000Y-109750000D01*
X146998900Y-62613700D02*
X129384400Y-62613700D01*
X123902000Y-71720000D02*
X118040000Y-71720000D01*
%TO.N,VN*%
X112280492Y-90219508D02*
X112780492Y-90219508D01*
X112780492Y-90219508D02*
X112850000Y-90150000D01*
X112850000Y-90150000D02*
X112850000Y-88754416D01*
X105343000Y-91843000D02*
X106186000Y-91000000D01*
X106186000Y-91000000D02*
X111500000Y-91000000D01*
X112850000Y-88754416D02*
X113000000Y-88604416D01*
X113000000Y-87979092D02*
X112839800Y-87818892D01*
X113000000Y-88604416D02*
X113000000Y-87979092D01*
X100000000Y-109750000D02*
X93500000Y-109750000D01*
X111500000Y-91000000D02*
X112280492Y-90219508D01*
X112848300Y-86960000D02*
X115500000Y-86960000D01*
X112848300Y-87793600D02*
X112848300Y-86960000D01*
X112839800Y-87802100D02*
X112848300Y-87793600D01*
X112839800Y-87818892D02*
X112839800Y-87802100D01*
%TO.N,Net-(R4-Pad1)*%
X110500000Y-139500000D02*
X104000000Y-139500000D01*
%TO.N,IO32*%
X148000000Y-81500000D02*
X147215584Y-81500000D01*
X142250000Y-135750000D02*
X135750000Y-135750000D01*
X148500000Y-82000000D02*
X148000000Y-81500000D01*
X147742950Y-83242950D02*
X148500000Y-82485900D01*
X144180000Y-83680000D02*
X143440000Y-84420000D01*
X148500000Y-82485900D02*
X148500000Y-82000000D01*
X145035584Y-83680000D02*
X144180000Y-83680000D01*
X147215584Y-81500000D02*
X145035584Y-83680000D01*
%TO.N,IO34*%
X103500000Y-128000000D02*
X101000000Y-130500000D01*
X101000000Y-130500000D02*
X94500000Y-130500000D01*
X123479900Y-128000000D02*
X103500000Y-128000000D01*
X124477200Y-127002700D02*
X123479900Y-128000000D01*
%TO.N,/IO4*%
X149103500Y-70044800D02*
X149103500Y-76328200D01*
X149103500Y-76328200D02*
X146091700Y-79340000D01*
X143440000Y-79340000D02*
X146091700Y-79340000D01*
%TO.N,IO5*%
X150195392Y-66263300D02*
X150276700Y-66263300D01*
X123788800Y-65914700D02*
X124305500Y-66431400D01*
X148534908Y-65500000D02*
X149351308Y-66316400D01*
X122599700Y-76800000D02*
X118040000Y-76800000D01*
X91889500Y-70222800D02*
X94410200Y-67702100D01*
X123399700Y-76000000D02*
X122599700Y-76800000D01*
X124305500Y-76000000D02*
X123399700Y-76000000D01*
X93500000Y-75960000D02*
X91889500Y-74349500D01*
X150276700Y-66263300D02*
X151500000Y-65040000D01*
X149351308Y-66316400D02*
X150142292Y-66316400D01*
X112406200Y-65914700D02*
X123788800Y-65914700D01*
X150142292Y-66316400D02*
X150195392Y-66263300D01*
X91889500Y-74349500D02*
X91889500Y-70222800D01*
X124305500Y-66431400D02*
X124305500Y-67000000D01*
X124305500Y-67000000D02*
X125805500Y-65500000D01*
X94410200Y-67702100D02*
X110618800Y-67702100D01*
X125805500Y-65500000D02*
X148534908Y-65500000D01*
X110618800Y-67702100D02*
X112406200Y-65914700D01*
%TO.N,IO14*%
X143880000Y-67380000D02*
X143500000Y-67000000D01*
X119635584Y-67380000D02*
X117244416Y-67380000D01*
X149910200Y-68089800D02*
X149910200Y-67153500D01*
X149880000Y-68500000D02*
X149880000Y-68120000D01*
X149019938Y-67116400D02*
X148694521Y-66790984D01*
X148192408Y-66300000D02*
X145700000Y-66300000D01*
X145700000Y-66300000D02*
X145500000Y-66500000D01*
X145035584Y-67380000D02*
X143880000Y-67380000D01*
X117244416Y-67380000D02*
X116770000Y-67854416D01*
X142380000Y-67380000D02*
X139304416Y-67380000D01*
X112734600Y-68500000D02*
X109468300Y-71766300D01*
X145500000Y-66915584D02*
X145035584Y-67380000D01*
X109468300Y-73420000D02*
X93500000Y-73420000D01*
X116770000Y-67854416D02*
X116295584Y-67380000D01*
X120690000Y-68434416D02*
X119635584Y-67380000D01*
X148694521Y-66790984D02*
X148683392Y-66790984D01*
X149910200Y-67153500D02*
X149873100Y-67116400D01*
X129532265Y-67715000D02*
X128467735Y-67715000D01*
X142760000Y-67000000D02*
X142380000Y-67380000D01*
X112850000Y-68500000D02*
X112734600Y-68500000D01*
X115500000Y-76800000D02*
X112848300Y-76800000D01*
X149873100Y-67116400D02*
X149019938Y-67116400D01*
X120690000Y-68500000D02*
X120690000Y-68434416D01*
X130247265Y-67000000D02*
X129532265Y-67715000D01*
X112848300Y-76800000D02*
X109468300Y-73420000D01*
X116295584Y-67380000D02*
X113904416Y-67380000D01*
X132934416Y-68434416D02*
X131500000Y-67000000D01*
X138250000Y-68434416D02*
X132934416Y-68434416D01*
X149880000Y-68120000D02*
X149910200Y-68089800D01*
X109468300Y-71766300D02*
X109468300Y-73420000D01*
X113904416Y-67380000D02*
X112850000Y-68434416D01*
X148683392Y-66790984D02*
X148192408Y-66300000D01*
X151500000Y-70120000D02*
X149880000Y-68500000D01*
X143500000Y-67000000D02*
X142760000Y-67000000D01*
X131500000Y-67000000D02*
X130247265Y-67000000D01*
X128467735Y-67715000D02*
X127982735Y-68200000D01*
X126290630Y-68200000D02*
X125990629Y-68500000D01*
X127982735Y-68200000D02*
X126290630Y-68200000D01*
X112850000Y-68434416D02*
X112850000Y-68500000D01*
X125990629Y-68500000D02*
X120690000Y-68500000D01*
X145500000Y-66500000D02*
X145500000Y-66915584D01*
X139304416Y-67380000D02*
X138250000Y-68434416D01*
%TO.N,/IO16*%
X149500000Y-84000000D02*
X149500000Y-82817270D01*
X147824000Y-95537000D02*
X134332000Y-95537000D01*
X149027950Y-84023750D02*
X149476250Y-84023750D01*
X147376700Y-85675000D02*
X149027950Y-84023750D01*
X149300000Y-81700000D02*
X149908500Y-81091500D01*
X149500000Y-82817270D02*
X149300000Y-82617270D01*
X134332000Y-95537000D02*
X133603200Y-94808200D01*
X149476250Y-84023750D02*
X149500000Y-84000000D01*
X149908500Y-74251500D02*
X151500000Y-72660000D01*
X149300000Y-82617270D02*
X149300000Y-81700000D01*
X147899900Y-95461100D02*
X147824000Y-95537000D01*
X149908500Y-81091500D02*
X149908500Y-74251500D01*
%TO.N,IO21*%
X96470100Y-85315200D02*
X110916100Y-99761200D01*
X150618800Y-102358100D02*
X137641900Y-102358100D01*
X96470100Y-83500100D02*
X96470100Y-85315200D01*
X137641900Y-102358100D02*
X137500000Y-102500000D01*
X152476900Y-100500000D02*
X150618800Y-102358100D01*
X110916100Y-99761200D02*
X134291600Y-99761200D01*
X96470000Y-83500000D02*
X96470100Y-83500100D01*
X154037600Y-100500000D02*
X152476900Y-100500000D01*
%TO.N,/IO25*%
X143440000Y-86960000D02*
X146091700Y-86960000D01*
X151500000Y-87900000D02*
X150560000Y-86960000D01*
X150560000Y-86960000D02*
X146091700Y-86960000D01*
%TO.N,IO26*%
X130152000Y-86960000D02*
X118040000Y-86960000D01*
X149429100Y-93248000D02*
X148837900Y-93248000D01*
X148837900Y-93248000D02*
X147360100Y-94725800D01*
X137917800Y-94725800D02*
X130152000Y-86960000D01*
X147360100Y-94725800D02*
X137917800Y-94725800D01*
%TO.N,IO33*%
X102394800Y-104714200D02*
X118080800Y-120400200D01*
X110622500Y-84122500D02*
X112848300Y-81896700D01*
X112848300Y-81880000D02*
X115500000Y-81880000D01*
X138400200Y-120400200D02*
X141250000Y-123250000D01*
X118080800Y-120400200D02*
X138400200Y-120400200D01*
X112848300Y-81896700D02*
X112848300Y-81880000D01*
X147750000Y-123250000D02*
X141250000Y-123250000D01*
%TO.N,Net-(SW0-B)*%
X140900000Y-74260000D02*
X138248300Y-74260000D01*
X138180800Y-74192500D02*
X120759200Y-74192500D01*
X120759200Y-74192500D02*
X120691700Y-74260000D01*
X138248300Y-74260000D02*
X138180800Y-74192500D01*
X118040000Y-74260000D02*
X120691700Y-74260000D01*
%TO.N,RST*%
X111624900Y-87423400D02*
X105241500Y-81040000D01*
X111000000Y-88500000D02*
X111624900Y-87875100D01*
X105241500Y-81040000D02*
X93500000Y-81040000D01*
X111624900Y-87875100D02*
X111624900Y-87423400D01*
%TO.N,Net-(J3-Pin_1)*%
X103364000Y-98500000D02*
X102040000Y-98500000D01*
X107364000Y-102500000D02*
X103364000Y-98500000D01*
%TO.N,Net-(R5-Pad1)*%
X120250000Y-130250000D02*
X113750000Y-130250000D01*
%TD*%
%TA.AperFunction,Conductor*%
%TO.N,GND*%
G36*
X151502562Y-59500605D02*
G01*
X151949036Y-59519072D01*
X151959209Y-59519915D01*
X152400114Y-59574873D01*
X152410194Y-59576555D01*
X152845043Y-59667733D01*
X152854951Y-59670242D01*
X153280786Y-59797019D01*
X153290454Y-59800338D01*
X153591114Y-59917656D01*
X153704349Y-59961841D01*
X153713734Y-59965958D01*
X154112854Y-60161076D01*
X154121868Y-60165953D01*
X154503545Y-60393383D01*
X154512124Y-60398989D01*
X154873693Y-60657143D01*
X154881770Y-60663430D01*
X155052526Y-60808053D01*
X155220796Y-60950571D01*
X155228336Y-60957512D01*
X155542487Y-61271663D01*
X155549428Y-61279203D01*
X155640415Y-61386631D01*
X155830916Y-61611555D01*
X155836565Y-61618224D01*
X155842860Y-61626312D01*
X156101010Y-61987875D01*
X156106616Y-61996454D01*
X156334046Y-62378131D01*
X156338923Y-62387145D01*
X156534041Y-62786265D01*
X156538158Y-62795650D01*
X156699656Y-63209533D01*
X156702984Y-63219226D01*
X156829753Y-63645035D01*
X156832269Y-63654970D01*
X156923441Y-64089791D01*
X156925128Y-64099900D01*
X156980082Y-64540769D01*
X156980928Y-64550983D01*
X156999394Y-64997437D01*
X156999500Y-65002561D01*
X156999500Y-101257383D01*
X156979815Y-101324422D01*
X156927011Y-101370177D01*
X156857853Y-101380121D01*
X156806610Y-101360486D01*
X156792518Y-101351070D01*
X156792507Y-101351064D01*
X156610439Y-101275650D01*
X156610429Y-101275647D01*
X156417143Y-101237200D01*
X156417141Y-101237200D01*
X156220059Y-101237200D01*
X156220057Y-101237200D01*
X156026770Y-101275647D01*
X156026760Y-101275650D01*
X155844692Y-101351064D01*
X155844679Y-101351071D01*
X155680819Y-101460559D01*
X155641879Y-101499500D01*
X155590496Y-101550882D01*
X155529176Y-101584366D01*
X155502817Y-101587200D01*
X154620117Y-101587200D01*
X154553078Y-101567515D01*
X154507323Y-101514711D01*
X154497379Y-101445553D01*
X154526404Y-101381997D01*
X154551226Y-101360098D01*
X154614145Y-101318055D01*
X154675382Y-101277139D01*
X154814739Y-101137782D01*
X154924232Y-100973914D01*
X154999651Y-100791835D01*
X155031604Y-100631200D01*
X155038100Y-100598543D01*
X155038100Y-100401456D01*
X154999652Y-100208170D01*
X154999651Y-100208169D01*
X154999651Y-100208165D01*
X154986274Y-100175869D01*
X154924235Y-100026092D01*
X154924228Y-100026079D01*
X154814739Y-99862218D01*
X154814736Y-99862214D01*
X154675385Y-99722863D01*
X154675381Y-99722860D01*
X154511520Y-99613371D01*
X154511507Y-99613364D01*
X154329439Y-99537950D01*
X154329429Y-99537947D01*
X154136143Y-99499500D01*
X154136141Y-99499500D01*
X153939059Y-99499500D01*
X153939057Y-99499500D01*
X153745770Y-99537947D01*
X153745760Y-99537950D01*
X153563692Y-99613364D01*
X153563679Y-99613371D01*
X153399819Y-99722859D01*
X153354659Y-99768020D01*
X153309496Y-99813182D01*
X153282565Y-99827888D01*
X153256752Y-99844477D01*
X153250552Y-99845368D01*
X153248176Y-99846666D01*
X153221817Y-99849500D01*
X153199908Y-99849500D01*
X153132869Y-99829815D01*
X153087114Y-99777011D01*
X153077170Y-99707853D01*
X153106195Y-99644297D01*
X153112227Y-99637819D01*
X153638271Y-99111775D01*
X153638276Y-99111770D01*
X153709432Y-99005277D01*
X153709464Y-99005229D01*
X153718232Y-98984061D01*
X153758501Y-98886844D01*
X153768362Y-98837271D01*
X153783500Y-98761169D01*
X153783500Y-97666323D01*
X153783500Y-97666320D01*
X153758502Y-97540653D01*
X153758501Y-97540652D01*
X153758501Y-97540648D01*
X153742739Y-97502594D01*
X153733300Y-97455142D01*
X153733300Y-97114258D01*
X153742739Y-97066805D01*
X153745682Y-97059700D01*
X153758499Y-97028756D01*
X153758501Y-97028752D01*
X153783500Y-96903077D01*
X153783500Y-94548931D01*
X153783500Y-94548928D01*
X153758502Y-94423261D01*
X153758501Y-94423260D01*
X153758501Y-94423256D01*
X153709465Y-94304873D01*
X153660596Y-94231735D01*
X153638277Y-94198331D01*
X152922364Y-93482418D01*
X152888879Y-93421095D01*
X152892115Y-93356417D01*
X152904835Y-93317271D01*
X152940300Y-93093354D01*
X152940300Y-92866646D01*
X152904835Y-92642729D01*
X152852216Y-92480782D01*
X152834780Y-92427119D01*
X152834779Y-92427116D01*
X152782921Y-92325341D01*
X152731855Y-92225118D01*
X152688904Y-92166000D01*
X152598605Y-92041713D01*
X152598601Y-92041708D01*
X152438293Y-91881400D01*
X152340456Y-91810317D01*
X152297791Y-91754989D01*
X152291812Y-91685376D01*
X152324417Y-91623580D01*
X152340453Y-91609684D01*
X152438293Y-91538600D01*
X152598600Y-91378293D01*
X152731855Y-91194882D01*
X152834779Y-90992883D01*
X152904835Y-90777271D01*
X152940300Y-90553354D01*
X152940300Y-90326646D01*
X152904835Y-90102729D01*
X152840812Y-89905684D01*
X152834780Y-89887119D01*
X152834779Y-89887116D01*
X152786735Y-89792826D01*
X152731855Y-89685118D01*
X152668867Y-89598422D01*
X152598605Y-89501713D01*
X152598601Y-89501708D01*
X152438293Y-89341400D01*
X152390491Y-89306670D01*
X152340456Y-89270317D01*
X152297791Y-89214989D01*
X152291812Y-89145376D01*
X152324417Y-89083580D01*
X152340456Y-89069682D01*
X152438293Y-88998600D01*
X152598600Y-88838293D01*
X152731855Y-88654882D01*
X152834779Y-88452883D01*
X152904835Y-88237271D01*
X152940300Y-88013354D01*
X152940300Y-87786646D01*
X152904835Y-87562729D01*
X152861106Y-87428145D01*
X152834780Y-87347119D01*
X152834779Y-87347116D01*
X152786735Y-87252826D01*
X152731855Y-87145118D01*
X152668954Y-87058541D01*
X152598605Y-86961713D01*
X152598601Y-86961708D01*
X152438293Y-86801400D01*
X152340456Y-86730317D01*
X152297791Y-86674989D01*
X152291812Y-86605376D01*
X152324417Y-86543580D01*
X152340453Y-86529684D01*
X152438293Y-86458600D01*
X152598600Y-86298293D01*
X152731855Y-86114882D01*
X152834779Y-85912883D01*
X152904835Y-85697271D01*
X152940300Y-85473354D01*
X152940300Y-85246646D01*
X152904835Y-85022729D01*
X152892113Y-84983578D01*
X152890119Y-84913738D01*
X152922362Y-84857582D01*
X153604077Y-84175869D01*
X153675266Y-84069326D01*
X153721959Y-83956598D01*
X153724301Y-83950944D01*
X153734097Y-83901700D01*
X153749300Y-83825271D01*
X153749300Y-61737228D01*
X153724302Y-61611561D01*
X153724301Y-61611560D01*
X153724301Y-61611556D01*
X153675265Y-61493173D01*
X153654546Y-61462165D01*
X153604077Y-61386631D01*
X153168017Y-60950571D01*
X152597874Y-60380427D01*
X152597873Y-60380426D01*
X152597869Y-60380423D01*
X152491327Y-60309235D01*
X152372944Y-60260199D01*
X152372938Y-60260197D01*
X152247271Y-60235200D01*
X152247269Y-60235200D01*
X128139631Y-60235200D01*
X128139629Y-60235200D01*
X128013961Y-60260197D01*
X128013955Y-60260199D01*
X127895574Y-60309234D01*
X127789026Y-60380426D01*
X124336967Y-63832485D01*
X124275644Y-63865970D01*
X124273478Y-63866421D01*
X124185370Y-63883947D01*
X124185360Y-63883950D01*
X124003292Y-63959364D01*
X124003279Y-63959371D01*
X123839418Y-64068860D01*
X123839414Y-64068863D01*
X123807797Y-64100481D01*
X123746474Y-64133966D01*
X123720116Y-64136800D01*
X111935629Y-64136800D01*
X111809961Y-64161797D01*
X111809955Y-64161799D01*
X111691570Y-64210835D01*
X111585031Y-64282022D01*
X111585024Y-64282028D01*
X109702173Y-66164881D01*
X109640850Y-66198366D01*
X109614492Y-66201200D01*
X108008058Y-66201200D01*
X107941019Y-66181515D01*
X107895264Y-66128711D01*
X107885320Y-66059553D01*
X107914345Y-65995997D01*
X107920377Y-65989519D01*
X107952413Y-65957483D01*
X108030104Y-65879792D01*
X108030106Y-65879788D01*
X108030109Y-65879786D01*
X108155048Y-65707820D01*
X108155047Y-65707820D01*
X108155051Y-65707816D01*
X108251557Y-65518412D01*
X108317246Y-65316243D01*
X108350500Y-65106287D01*
X108350500Y-64893713D01*
X108317246Y-64683757D01*
X108251557Y-64481588D01*
X108155051Y-64292184D01*
X108155049Y-64292181D01*
X108155048Y-64292179D01*
X108030109Y-64120213D01*
X107879786Y-63969890D01*
X107707820Y-63844951D01*
X107518414Y-63748444D01*
X107518413Y-63748443D01*
X107518412Y-63748443D01*
X107316243Y-63682754D01*
X107316241Y-63682753D01*
X107316240Y-63682753D01*
X107154957Y-63657208D01*
X107106287Y-63649500D01*
X106893713Y-63649500D01*
X106845042Y-63657208D01*
X106683760Y-63682753D01*
X106481585Y-63748444D01*
X106292179Y-63844951D01*
X106120213Y-63969890D01*
X105969890Y-64120213D01*
X105844949Y-64292182D01*
X105840484Y-64300946D01*
X105792509Y-64351742D01*
X105724688Y-64368536D01*
X105658553Y-64345998D01*
X105619516Y-64300946D01*
X105615050Y-64292182D01*
X105490109Y-64120213D01*
X105339786Y-63969890D01*
X105167820Y-63844951D01*
X104978414Y-63748444D01*
X104978413Y-63748443D01*
X104978412Y-63748443D01*
X104776243Y-63682754D01*
X104776241Y-63682753D01*
X104776240Y-63682753D01*
X104614957Y-63657208D01*
X104566287Y-63649500D01*
X104353713Y-63649500D01*
X104305042Y-63657208D01*
X104143760Y-63682753D01*
X103941585Y-63748444D01*
X103752179Y-63844951D01*
X103580215Y-63969889D01*
X103466673Y-64083431D01*
X103405350Y-64116915D01*
X103335658Y-64111931D01*
X103279725Y-64070059D01*
X103262810Y-64039082D01*
X103213797Y-63907671D01*
X103213793Y-63907664D01*
X103127547Y-63792455D01*
X103127544Y-63792452D01*
X103012335Y-63706206D01*
X103012328Y-63706202D01*
X102877482Y-63655908D01*
X102877483Y-63655908D01*
X102817883Y-63649501D01*
X102817881Y-63649500D01*
X102817873Y-63649500D01*
X102817864Y-63649500D01*
X101022129Y-63649500D01*
X101022123Y-63649501D01*
X100962516Y-63655908D01*
X100827671Y-63706202D01*
X100827664Y-63706206D01*
X100712455Y-63792452D01*
X100712452Y-63792455D01*
X100626206Y-63907664D01*
X100626202Y-63907671D01*
X100575908Y-64042517D01*
X100569501Y-64102116D01*
X100569500Y-64102135D01*
X100569500Y-65897870D01*
X100569501Y-65897876D01*
X100575908Y-65957483D01*
X100604398Y-66033867D01*
X100609382Y-66103559D01*
X100575897Y-66164882D01*
X100514573Y-66198366D01*
X100488216Y-66201200D01*
X94055229Y-66201200D01*
X93946508Y-66222827D01*
X93933764Y-66225361D01*
X93929555Y-66226199D01*
X93811174Y-66275234D01*
X93704626Y-66346426D01*
X90572424Y-69478628D01*
X90510781Y-69570884D01*
X90510782Y-69570885D01*
X90501236Y-69585171D01*
X90501233Y-69585177D01*
X90452199Y-69703555D01*
X90452197Y-69703561D01*
X90427200Y-69829228D01*
X90427200Y-69829231D01*
X90427200Y-81221769D01*
X90427200Y-81221771D01*
X90427199Y-81221771D01*
X90449557Y-81334166D01*
X90452198Y-81347441D01*
X90452199Y-81347445D01*
X90501233Y-81465825D01*
X90572426Y-81572373D01*
X90572427Y-81572374D01*
X92077634Y-83077580D01*
X92111119Y-83138903D01*
X92107885Y-83203576D01*
X92095165Y-83242727D01*
X92070889Y-83396002D01*
X92059700Y-83466646D01*
X92059700Y-83693354D01*
X92075297Y-83791829D01*
X92095165Y-83917272D01*
X92165219Y-84132880D01*
X92165220Y-84132883D01*
X92230701Y-84261394D01*
X92266552Y-84331756D01*
X92268147Y-84334885D01*
X92401394Y-84518286D01*
X92401398Y-84518291D01*
X92561708Y-84678601D01*
X92561713Y-84678605D01*
X92659542Y-84749682D01*
X92702208Y-84805012D01*
X92708187Y-84874625D01*
X92675582Y-84936420D01*
X92659542Y-84950318D01*
X92561713Y-85021394D01*
X92561708Y-85021398D01*
X92401398Y-85181708D01*
X92401394Y-85181713D01*
X92268147Y-85365114D01*
X92165220Y-85567116D01*
X92165219Y-85567119D01*
X92095165Y-85782727D01*
X92066006Y-85966829D01*
X92059700Y-86006646D01*
X92059700Y-86233354D01*
X92075720Y-86334499D01*
X92095165Y-86457272D01*
X92165219Y-86672880D01*
X92165220Y-86672883D01*
X92268147Y-86874885D01*
X92401394Y-87058286D01*
X92401398Y-87058291D01*
X92561708Y-87218601D01*
X92561713Y-87218605D01*
X92659542Y-87289682D01*
X92702208Y-87345012D01*
X92708187Y-87414625D01*
X92675582Y-87476420D01*
X92659542Y-87490318D01*
X92561713Y-87561394D01*
X92561708Y-87561398D01*
X92401398Y-87721708D01*
X92401394Y-87721713D01*
X92268147Y-87905114D01*
X92165220Y-88107116D01*
X92165219Y-88107119D01*
X92095165Y-88322727D01*
X92072196Y-88467749D01*
X92059700Y-88546646D01*
X92059700Y-88773354D01*
X92075720Y-88874499D01*
X92095165Y-88997272D01*
X92165219Y-89212880D01*
X92165220Y-89212883D01*
X92197961Y-89277139D01*
X92253752Y-89386635D01*
X92268147Y-89414885D01*
X92401394Y-89598286D01*
X92401398Y-89598291D01*
X92561712Y-89758605D01*
X92659968Y-89829991D01*
X92702634Y-89885320D01*
X92708613Y-89954934D01*
X92676008Y-90016729D01*
X92659968Y-90030627D01*
X92562039Y-90101776D01*
X92562034Y-90101780D01*
X92401780Y-90262034D01*
X92401776Y-90262039D01*
X92268575Y-90445376D01*
X92165683Y-90647311D01*
X92095653Y-90862841D01*
X92095653Y-90862844D01*
X92081849Y-90950000D01*
X93057749Y-90950000D01*
X93026619Y-91003919D01*
X92992000Y-91133120D01*
X92992000Y-91266880D01*
X93026619Y-91396081D01*
X93057749Y-91450000D01*
X92081849Y-91450000D01*
X92095653Y-91537155D01*
X92095653Y-91537158D01*
X92165683Y-91752688D01*
X92268575Y-91954623D01*
X92401776Y-92137960D01*
X92401780Y-92137965D01*
X92562034Y-92298219D01*
X92562039Y-92298223D01*
X92745376Y-92431424D01*
X92947311Y-92534316D01*
X93162838Y-92604344D01*
X93250000Y-92618149D01*
X93250000Y-91642251D01*
X93303919Y-91673381D01*
X93433120Y-91708000D01*
X93566880Y-91708000D01*
X93696081Y-91673381D01*
X93750000Y-91642251D01*
X93750000Y-92618148D01*
X93837161Y-92604344D01*
X94052688Y-92534316D01*
X94254623Y-92431424D01*
X94437960Y-92298223D01*
X94437965Y-92298219D01*
X94598219Y-92137965D01*
X94598223Y-92137960D01*
X94731424Y-91954623D01*
X94834316Y-91752688D01*
X94904346Y-91537158D01*
X94904346Y-91537155D01*
X94918151Y-91450000D01*
X93942251Y-91450000D01*
X93973381Y-91396081D01*
X94008000Y-91266880D01*
X94008000Y-91133120D01*
X93973381Y-91003919D01*
X93942251Y-90950000D01*
X94918151Y-90950000D01*
X94904346Y-90862844D01*
X94904346Y-90862841D01*
X94834316Y-90647311D01*
X94731424Y-90445376D01*
X94598223Y-90262039D01*
X94598219Y-90262034D01*
X94437961Y-90101776D01*
X94340031Y-90030627D01*
X94297365Y-89975298D01*
X94291386Y-89905684D01*
X94323991Y-89843889D01*
X94340032Y-89829990D01*
X94390735Y-89793153D01*
X94438293Y-89758600D01*
X94598600Y-89598293D01*
X94731855Y-89414882D01*
X94834779Y-89212883D01*
X94904835Y-88997271D01*
X94940300Y-88773354D01*
X94940300Y-88773350D01*
X94940582Y-88769774D01*
X94965467Y-88704486D01*
X95021699Y-88663017D01*
X95091425Y-88658532D01*
X95151880Y-88691825D01*
X102374724Y-95914669D01*
X102433962Y-95973907D01*
X102465332Y-96005277D01*
X102571866Y-96076461D01*
X102571872Y-96076464D01*
X102571873Y-96076465D01*
X102690256Y-96125501D01*
X102690260Y-96125501D01*
X102690261Y-96125502D01*
X102815928Y-96150500D01*
X102815931Y-96150500D01*
X103679192Y-96150500D01*
X103746231Y-96170185D01*
X103766873Y-96186819D01*
X106585325Y-99005272D01*
X106585326Y-99005273D01*
X106585329Y-99005275D01*
X106585331Y-99005277D01*
X106691873Y-99076465D01*
X106810256Y-99125501D01*
X106810260Y-99125501D01*
X106810261Y-99125502D01*
X106935928Y-99150500D01*
X106935931Y-99150500D01*
X107184217Y-99150500D01*
X107251256Y-99170185D01*
X107271893Y-99186814D01*
X107339702Y-99254623D01*
X107362219Y-99277140D01*
X107526079Y-99386628D01*
X107526092Y-99386635D01*
X107708160Y-99462049D01*
X107708165Y-99462051D01*
X107708169Y-99462051D01*
X107708170Y-99462052D01*
X107901456Y-99500500D01*
X107901459Y-99500500D01*
X108098543Y-99500500D01*
X108255065Y-99469365D01*
X108291835Y-99462051D01*
X108432655Y-99403721D01*
X108473907Y-99386635D01*
X108473907Y-99386634D01*
X108473914Y-99386632D01*
X108637782Y-99277139D01*
X108777139Y-99137782D01*
X108886632Y-98973914D01*
X108909994Y-98917510D01*
X108953833Y-98863108D01*
X109020127Y-98841042D01*
X109087826Y-98858320D01*
X109112236Y-98877282D01*
X109772902Y-99537947D01*
X110410824Y-100175869D01*
X110470062Y-100235107D01*
X110501432Y-100266477D01*
X110607966Y-100337661D01*
X110607972Y-100337664D01*
X110607973Y-100337665D01*
X110726356Y-100386701D01*
X110726360Y-100386701D01*
X110726361Y-100386702D01*
X110852028Y-100411700D01*
X110852031Y-100411700D01*
X123498742Y-100411700D01*
X123565781Y-100431385D01*
X123611536Y-100484189D01*
X123621480Y-100553347D01*
X123592455Y-100616903D01*
X123534334Y-100654254D01*
X123534388Y-100654430D01*
X123533769Y-100654617D01*
X123533677Y-100654677D01*
X123533133Y-100654810D01*
X123528555Y-100656199D01*
X123410170Y-100705235D01*
X123303631Y-100776422D01*
X123303624Y-100776428D01*
X121994726Y-102085326D01*
X121935725Y-102173630D01*
X121923533Y-102191876D01*
X121874499Y-102310255D01*
X121874497Y-102310261D01*
X121849500Y-102435928D01*
X121849500Y-104429191D01*
X121829815Y-104496230D01*
X121813181Y-104516872D01*
X118050193Y-108279859D01*
X117988870Y-108313344D01*
X117924194Y-108310109D01*
X117851370Y-108286447D01*
X117618097Y-108249500D01*
X117618092Y-108249500D01*
X117381908Y-108249500D01*
X117381903Y-108249500D01*
X117148631Y-108286446D01*
X116924003Y-108359433D01*
X116713566Y-108466657D01*
X116604550Y-108545862D01*
X116522490Y-108605483D01*
X116522488Y-108605485D01*
X116522487Y-108605485D01*
X116355485Y-108772487D01*
X116355485Y-108772488D01*
X116355483Y-108772490D01*
X116295862Y-108854550D01*
X116216657Y-108963566D01*
X116181893Y-109031795D01*
X116133918Y-109082591D01*
X116071408Y-109099500D01*
X112428592Y-109099500D01*
X112361553Y-109079815D01*
X112318107Y-109031795D01*
X112283342Y-108963566D01*
X112144517Y-108772490D01*
X111977510Y-108605483D01*
X111786433Y-108466657D01*
X111575996Y-108359433D01*
X111351368Y-108286446D01*
X111118097Y-108249500D01*
X111118092Y-108249500D01*
X110881908Y-108249500D01*
X110881903Y-108249500D01*
X110648631Y-108286446D01*
X110424003Y-108359433D01*
X110213566Y-108466657D01*
X110104550Y-108545862D01*
X110022490Y-108605483D01*
X110022488Y-108605485D01*
X110022487Y-108605485D01*
X109855485Y-108772487D01*
X109855485Y-108772488D01*
X109855483Y-108772490D01*
X109795862Y-108854550D01*
X109716657Y-108963566D01*
X109609433Y-109174003D01*
X109536446Y-109398631D01*
X109499500Y-109631902D01*
X109499500Y-109868097D01*
X109536446Y-110101368D01*
X109609433Y-110325996D01*
X109681893Y-110468205D01*
X109716657Y-110536433D01*
X109855483Y-110727510D01*
X110022490Y-110894517D01*
X110213567Y-111033343D01*
X110312991Y-111084002D01*
X110424003Y-111140566D01*
X110424005Y-111140566D01*
X110424008Y-111140568D01*
X110544412Y-111179689D01*
X110648631Y-111213553D01*
X110881903Y-111250500D01*
X110881908Y-111250500D01*
X111118097Y-111250500D01*
X111351368Y-111213553D01*
X111575992Y-111140568D01*
X111786433Y-111033343D01*
X111977510Y-110894517D01*
X112144517Y-110727510D01*
X112283343Y-110536433D01*
X112318107Y-110468205D01*
X112366082Y-110417409D01*
X112428592Y-110400500D01*
X116071408Y-110400500D01*
X116138447Y-110420185D01*
X116181893Y-110468205D01*
X116216657Y-110536433D01*
X116355483Y-110727510D01*
X116522490Y-110894517D01*
X116713567Y-111033343D01*
X116812991Y-111084002D01*
X116924003Y-111140566D01*
X116924005Y-111140566D01*
X116924008Y-111140568D01*
X117044412Y-111179689D01*
X117148631Y-111213553D01*
X117381903Y-111250500D01*
X117381908Y-111250500D01*
X117618097Y-111250500D01*
X117851368Y-111213553D01*
X118075992Y-111140568D01*
X118286433Y-111033343D01*
X118477510Y-110894517D01*
X118644517Y-110727510D01*
X118783343Y-110536433D01*
X118890568Y-110325992D01*
X118963553Y-110101368D01*
X119000500Y-109868097D01*
X119000500Y-109631902D01*
X118980347Y-109504666D01*
X118963553Y-109398632D01*
X118939888Y-109325802D01*
X118937894Y-109255963D01*
X118970137Y-109199807D01*
X123005277Y-105164669D01*
X123027141Y-105131947D01*
X127750000Y-105131947D01*
X127750000Y-105368052D01*
X127786934Y-105601247D01*
X127859897Y-105825802D01*
X127967087Y-106036174D01*
X128027338Y-106119104D01*
X128027340Y-106119105D01*
X128726212Y-105420233D01*
X128737482Y-105462292D01*
X128809890Y-105587708D01*
X128912292Y-105690110D01*
X129037708Y-105762518D01*
X129079765Y-105773787D01*
X128380893Y-106472658D01*
X128463828Y-106532914D01*
X128674197Y-106640102D01*
X128898752Y-106713065D01*
X128898751Y-106713065D01*
X129131948Y-106750000D01*
X129368052Y-106750000D01*
X129601247Y-106713065D01*
X129825802Y-106640102D01*
X130036163Y-106532918D01*
X130036169Y-106532914D01*
X130119104Y-106472658D01*
X130119105Y-106472658D01*
X129420233Y-105773787D01*
X129462292Y-105762518D01*
X129587708Y-105690110D01*
X129690110Y-105587708D01*
X129762518Y-105462292D01*
X129773787Y-105420234D01*
X130472658Y-106119105D01*
X130472658Y-106119104D01*
X130532914Y-106036169D01*
X130532918Y-106036163D01*
X130640102Y-105825802D01*
X130713065Y-105601247D01*
X130750000Y-105368052D01*
X130750000Y-105131947D01*
X134250000Y-105131947D01*
X134250000Y-105368052D01*
X134286934Y-105601247D01*
X134359897Y-105825802D01*
X134467087Y-106036174D01*
X134527338Y-106119104D01*
X134527340Y-106119105D01*
X135226212Y-105420233D01*
X135237482Y-105462292D01*
X135309890Y-105587708D01*
X135412292Y-105690110D01*
X135537708Y-105762518D01*
X135579765Y-105773787D01*
X134880893Y-106472658D01*
X134963828Y-106532914D01*
X135174197Y-106640102D01*
X135398752Y-106713065D01*
X135398751Y-106713065D01*
X135631948Y-106750000D01*
X135868052Y-106750000D01*
X136101247Y-106713065D01*
X136325802Y-106640102D01*
X136536163Y-106532918D01*
X136536169Y-106532914D01*
X136619104Y-106472658D01*
X136619105Y-106472658D01*
X135920233Y-105773787D01*
X135962292Y-105762518D01*
X136087708Y-105690110D01*
X136190110Y-105587708D01*
X136262518Y-105462292D01*
X136273787Y-105420234D01*
X136972658Y-106119105D01*
X136972658Y-106119104D01*
X137032914Y-106036169D01*
X137032918Y-106036163D01*
X137140102Y-105825802D01*
X137213065Y-105601247D01*
X137250000Y-105368052D01*
X137250000Y-105131947D01*
X137213065Y-104898752D01*
X137140102Y-104674197D01*
X137032914Y-104463828D01*
X136972658Y-104380894D01*
X136972658Y-104380893D01*
X136273787Y-105079765D01*
X136262518Y-105037708D01*
X136190110Y-104912292D01*
X136087708Y-104809890D01*
X135962292Y-104737482D01*
X135920234Y-104726212D01*
X136619105Y-104027340D01*
X136619104Y-104027339D01*
X136536174Y-103967087D01*
X136325802Y-103859897D01*
X136101247Y-103786934D01*
X136101248Y-103786934D01*
X135868052Y-103750000D01*
X135631948Y-103750000D01*
X135398752Y-103786934D01*
X135174197Y-103859897D01*
X134963830Y-103967084D01*
X134880894Y-104027340D01*
X135579766Y-104726212D01*
X135537708Y-104737482D01*
X135412292Y-104809890D01*
X135309890Y-104912292D01*
X135237482Y-105037708D01*
X135226212Y-105079766D01*
X134527340Y-104380894D01*
X134467084Y-104463830D01*
X134359897Y-104674197D01*
X134286934Y-104898752D01*
X134250000Y-105131947D01*
X130750000Y-105131947D01*
X130713065Y-104898752D01*
X130640102Y-104674197D01*
X130532914Y-104463828D01*
X130472658Y-104380894D01*
X130472658Y-104380893D01*
X129773787Y-105079765D01*
X129762518Y-105037708D01*
X129690110Y-104912292D01*
X129587708Y-104809890D01*
X129462292Y-104737482D01*
X129420234Y-104726212D01*
X130119105Y-104027340D01*
X130119104Y-104027339D01*
X130036174Y-103967087D01*
X129825802Y-103859897D01*
X129601247Y-103786934D01*
X129601248Y-103786934D01*
X129368052Y-103750000D01*
X129131948Y-103750000D01*
X128898752Y-103786934D01*
X128674197Y-103859897D01*
X128463830Y-103967084D01*
X128380894Y-104027340D01*
X129079766Y-104726212D01*
X129037708Y-104737482D01*
X128912292Y-104809890D01*
X128809890Y-104912292D01*
X128737482Y-105037708D01*
X128726212Y-105079766D01*
X128027340Y-104380894D01*
X127967084Y-104463830D01*
X127859897Y-104674197D01*
X127786934Y-104898752D01*
X127750000Y-105131947D01*
X123027141Y-105131947D01*
X123076465Y-105058127D01*
X123098042Y-105006035D01*
X123125501Y-104939744D01*
X123150500Y-104814069D01*
X123150500Y-102820808D01*
X123170185Y-102753769D01*
X123186819Y-102733127D01*
X123951427Y-101968519D01*
X124012750Y-101935034D01*
X124039108Y-101932200D01*
X136466678Y-101932200D01*
X136533717Y-101951885D01*
X136579472Y-102004689D01*
X136589416Y-102073847D01*
X136581239Y-102103652D01*
X136537950Y-102208160D01*
X136537947Y-102208170D01*
X136499500Y-102401456D01*
X136499500Y-102401459D01*
X136499500Y-102598541D01*
X136499500Y-102598543D01*
X136499499Y-102598543D01*
X136537947Y-102791829D01*
X136537950Y-102791839D01*
X136613364Y-102973907D01*
X136613371Y-102973920D01*
X136722860Y-103137781D01*
X136722863Y-103137785D01*
X136862214Y-103277136D01*
X136862218Y-103277139D01*
X137026079Y-103386628D01*
X137026092Y-103386635D01*
X137208160Y-103462049D01*
X137208165Y-103462051D01*
X137208169Y-103462051D01*
X137208170Y-103462052D01*
X137401456Y-103500500D01*
X137401459Y-103500500D01*
X137598543Y-103500500D01*
X137728582Y-103474632D01*
X137791835Y-103462051D01*
X137973914Y-103386632D01*
X138137782Y-103277139D01*
X138277139Y-103137782D01*
X138326633Y-103063710D01*
X138380245Y-103018904D01*
X138429735Y-103008600D01*
X150132492Y-103008600D01*
X150199531Y-103028285D01*
X150245286Y-103081089D01*
X150255230Y-103150247D01*
X150226205Y-103213803D01*
X150220173Y-103220281D01*
X148430083Y-105010370D01*
X148368760Y-105043855D01*
X148299068Y-105038871D01*
X148243135Y-104996999D01*
X148219929Y-104942086D01*
X148213066Y-104898753D01*
X148213065Y-104898752D01*
X148140102Y-104674197D01*
X148032914Y-104463828D01*
X147972658Y-104380894D01*
X147972658Y-104380893D01*
X147273787Y-105079765D01*
X147262518Y-105037708D01*
X147190110Y-104912292D01*
X147087708Y-104809890D01*
X146962292Y-104737482D01*
X146920234Y-104726212D01*
X147619105Y-104027340D01*
X147619104Y-104027338D01*
X147536174Y-103967087D01*
X147325802Y-103859897D01*
X147101247Y-103786934D01*
X147101248Y-103786934D01*
X146868052Y-103750000D01*
X146631948Y-103750000D01*
X146398752Y-103786934D01*
X146174197Y-103859897D01*
X145963830Y-103967084D01*
X145880894Y-104027340D01*
X146579766Y-104726212D01*
X146537708Y-104737482D01*
X146412292Y-104809890D01*
X146309890Y-104912292D01*
X146237482Y-105037708D01*
X146226212Y-105079766D01*
X145527340Y-104380894D01*
X145467084Y-104463830D01*
X145359897Y-104674197D01*
X145286934Y-104898752D01*
X145250000Y-105131947D01*
X145250000Y-105368052D01*
X145286934Y-105601247D01*
X145359897Y-105825802D01*
X145467087Y-106036174D01*
X145527338Y-106119104D01*
X145527340Y-106119105D01*
X146226212Y-105420233D01*
X146237482Y-105462292D01*
X146309890Y-105587708D01*
X146412292Y-105690110D01*
X146537708Y-105762518D01*
X146579765Y-105773787D01*
X145880893Y-106472658D01*
X145963828Y-106532914D01*
X146124960Y-106615015D01*
X146175756Y-106662989D01*
X146192551Y-106730810D01*
X146170014Y-106796945D01*
X146115299Y-106840397D01*
X146068665Y-106849500D01*
X137935929Y-106849500D01*
X137810261Y-106874497D01*
X137810251Y-106874500D01*
X137761220Y-106894810D01*
X137691881Y-106923530D01*
X137691863Y-106923540D01*
X137585332Y-106994721D01*
X137585325Y-106994727D01*
X136300193Y-108279859D01*
X136238870Y-108313344D01*
X136174194Y-108310109D01*
X136101370Y-108286447D01*
X135868097Y-108249500D01*
X135868092Y-108249500D01*
X135631908Y-108249500D01*
X135631903Y-108249500D01*
X135398631Y-108286446D01*
X135174003Y-108359433D01*
X134963566Y-108466657D01*
X134854550Y-108545862D01*
X134772490Y-108605483D01*
X134772488Y-108605485D01*
X134772487Y-108605485D01*
X134605485Y-108772487D01*
X134605485Y-108772488D01*
X134605483Y-108772490D01*
X134545862Y-108854550D01*
X134466657Y-108963566D01*
X134431893Y-109031795D01*
X134383918Y-109082591D01*
X134321408Y-109099500D01*
X130678592Y-109099500D01*
X130611553Y-109079815D01*
X130568107Y-109031795D01*
X130533342Y-108963566D01*
X130394517Y-108772490D01*
X130227510Y-108605483D01*
X130036433Y-108466657D01*
X129825996Y-108359433D01*
X129601368Y-108286446D01*
X129368097Y-108249500D01*
X129368092Y-108249500D01*
X129131908Y-108249500D01*
X129131903Y-108249500D01*
X128898631Y-108286446D01*
X128674003Y-108359433D01*
X128463566Y-108466657D01*
X128354550Y-108545862D01*
X128272490Y-108605483D01*
X128272488Y-108605485D01*
X128272487Y-108605485D01*
X128105485Y-108772487D01*
X128105485Y-108772488D01*
X128105483Y-108772490D01*
X128045862Y-108854550D01*
X127966657Y-108963566D01*
X127859433Y-109174003D01*
X127786446Y-109398631D01*
X127749500Y-109631902D01*
X127749500Y-109868097D01*
X127786446Y-110101368D01*
X127859433Y-110325996D01*
X127931893Y-110468205D01*
X127966657Y-110536433D01*
X128105483Y-110727510D01*
X128272490Y-110894517D01*
X128463567Y-111033343D01*
X128562991Y-111084002D01*
X128674003Y-111140566D01*
X128674005Y-111140566D01*
X128674008Y-111140568D01*
X128794412Y-111179689D01*
X128898631Y-111213553D01*
X129131903Y-111250500D01*
X129131908Y-111250500D01*
X129368097Y-111250500D01*
X129601368Y-111213553D01*
X129825992Y-111140568D01*
X130036433Y-111033343D01*
X130227510Y-110894517D01*
X130394517Y-110727510D01*
X130533343Y-110536433D01*
X130568107Y-110468205D01*
X130616082Y-110417409D01*
X130678592Y-110400500D01*
X134321408Y-110400500D01*
X134388447Y-110420185D01*
X134431893Y-110468205D01*
X134466657Y-110536433D01*
X134605483Y-110727510D01*
X134772490Y-110894517D01*
X134963567Y-111033343D01*
X135062991Y-111084002D01*
X135174003Y-111140566D01*
X135174005Y-111140566D01*
X135174008Y-111140568D01*
X135294412Y-111179689D01*
X135398631Y-111213553D01*
X135631903Y-111250500D01*
X135631908Y-111250500D01*
X135868097Y-111250500D01*
X136101368Y-111213553D01*
X136325992Y-111140568D01*
X136536433Y-111033343D01*
X136727510Y-110894517D01*
X136894517Y-110727510D01*
X137033343Y-110536433D01*
X137140568Y-110325992D01*
X137213553Y-110101368D01*
X137250500Y-109868097D01*
X137250500Y-109631902D01*
X137230347Y-109504666D01*
X137213553Y-109398632D01*
X137189888Y-109325802D01*
X137187894Y-109255963D01*
X137220137Y-109199807D01*
X138233127Y-108186819D01*
X138294450Y-108153334D01*
X138320808Y-108150500D01*
X146067562Y-108150500D01*
X146134601Y-108170185D01*
X146180356Y-108222989D01*
X146190300Y-108292147D01*
X146161275Y-108355703D01*
X146123857Y-108384985D01*
X145963566Y-108466657D01*
X145854550Y-108545862D01*
X145772490Y-108605483D01*
X145772488Y-108605485D01*
X145772487Y-108605485D01*
X145605485Y-108772487D01*
X145605485Y-108772488D01*
X145605483Y-108772490D01*
X145545862Y-108854550D01*
X145466657Y-108963566D01*
X145359433Y-109174003D01*
X145286446Y-109398631D01*
X145249500Y-109631902D01*
X145249500Y-109868097D01*
X145286446Y-110101368D01*
X145359433Y-110325996D01*
X145431893Y-110468205D01*
X145466657Y-110536433D01*
X145605483Y-110727510D01*
X145772490Y-110894517D01*
X145963567Y-111033343D01*
X146062991Y-111084002D01*
X146174003Y-111140566D01*
X146174005Y-111140566D01*
X146174008Y-111140568D01*
X146294412Y-111179689D01*
X146398631Y-111213553D01*
X146631903Y-111250500D01*
X146631908Y-111250500D01*
X146868097Y-111250500D01*
X147101368Y-111213553D01*
X147325992Y-111140568D01*
X147536433Y-111033343D01*
X147727510Y-110894517D01*
X147894517Y-110727510D01*
X148033343Y-110536433D01*
X148068107Y-110468205D01*
X148116082Y-110417409D01*
X148178592Y-110400500D01*
X151821408Y-110400500D01*
X151888447Y-110420185D01*
X151931893Y-110468205D01*
X151966657Y-110536433D01*
X152105483Y-110727510D01*
X152272490Y-110894517D01*
X152463567Y-111033343D01*
X152562991Y-111084002D01*
X152674003Y-111140566D01*
X152674005Y-111140566D01*
X152674008Y-111140568D01*
X152794412Y-111179689D01*
X152898631Y-111213553D01*
X153131903Y-111250500D01*
X153131908Y-111250500D01*
X153368097Y-111250500D01*
X153601368Y-111213553D01*
X153825992Y-111140568D01*
X154036433Y-111033343D01*
X154227510Y-110894517D01*
X154394517Y-110727510D01*
X154533343Y-110536433D01*
X154640568Y-110325992D01*
X154713553Y-110101368D01*
X154750500Y-109868097D01*
X154750500Y-109631902D01*
X154713553Y-109398631D01*
X154667197Y-109255963D01*
X154640568Y-109174008D01*
X154640566Y-109174005D01*
X154640566Y-109174003D01*
X154533342Y-108963566D01*
X154394517Y-108772490D01*
X154227510Y-108605483D01*
X154036433Y-108466657D01*
X153825996Y-108359433D01*
X153601368Y-108286446D01*
X153368097Y-108249500D01*
X153368092Y-108249500D01*
X153131908Y-108249500D01*
X153131903Y-108249500D01*
X152898631Y-108286446D01*
X152674003Y-108359433D01*
X152463566Y-108466657D01*
X152354550Y-108545862D01*
X152272490Y-108605483D01*
X152272488Y-108605485D01*
X152272487Y-108605485D01*
X152105485Y-108772487D01*
X152105485Y-108772488D01*
X152105483Y-108772490D01*
X152045862Y-108854550D01*
X151966657Y-108963566D01*
X151931893Y-109031795D01*
X151883918Y-109082591D01*
X151821408Y-109099500D01*
X148178592Y-109099500D01*
X148111553Y-109079815D01*
X148068107Y-109031795D01*
X148033342Y-108963566D01*
X147894517Y-108772490D01*
X147727510Y-108605483D01*
X147536433Y-108466657D01*
X147325996Y-108359433D01*
X147174577Y-108310234D01*
X147116902Y-108270796D01*
X147089704Y-108206437D01*
X147101619Y-108137591D01*
X147148863Y-108086115D01*
X147165444Y-108077741D01*
X147168527Y-108076465D01*
X147275069Y-108005277D01*
X150148399Y-105131947D01*
X151750000Y-105131947D01*
X151750000Y-105368052D01*
X151786934Y-105601247D01*
X151859897Y-105825802D01*
X151967087Y-106036174D01*
X152027338Y-106119104D01*
X152027340Y-106119105D01*
X152726212Y-105420233D01*
X152737482Y-105462292D01*
X152809890Y-105587708D01*
X152912292Y-105690110D01*
X153037708Y-105762518D01*
X153079765Y-105773787D01*
X152380893Y-106472658D01*
X152463828Y-106532914D01*
X152674197Y-106640102D01*
X152898752Y-106713065D01*
X152898751Y-106713065D01*
X153131948Y-106750000D01*
X153368052Y-106750000D01*
X153601247Y-106713065D01*
X153825802Y-106640102D01*
X154036163Y-106532918D01*
X154036169Y-106532914D01*
X154119104Y-106472658D01*
X154119105Y-106472658D01*
X153420233Y-105773787D01*
X153462292Y-105762518D01*
X153587708Y-105690110D01*
X153690110Y-105587708D01*
X153762518Y-105462292D01*
X153773787Y-105420234D01*
X154472658Y-106119105D01*
X154472658Y-106119104D01*
X154532914Y-106036169D01*
X154532918Y-106036163D01*
X154640102Y-105825802D01*
X154713065Y-105601247D01*
X154750000Y-105368052D01*
X154750000Y-105131947D01*
X154713065Y-104898752D01*
X154640102Y-104674197D01*
X154532914Y-104463828D01*
X154472658Y-104380894D01*
X154472658Y-104380893D01*
X153773787Y-105079765D01*
X153762518Y-105037708D01*
X153690110Y-104912292D01*
X153587708Y-104809890D01*
X153462292Y-104737482D01*
X153420234Y-104726212D01*
X154119105Y-104027340D01*
X154119104Y-104027338D01*
X154036174Y-103967087D01*
X153825802Y-103859897D01*
X153601247Y-103786934D01*
X153601248Y-103786934D01*
X153368052Y-103750000D01*
X153131948Y-103750000D01*
X152898752Y-103786934D01*
X152674197Y-103859897D01*
X152463830Y-103967084D01*
X152380894Y-104027340D01*
X153079766Y-104726212D01*
X153037708Y-104737482D01*
X152912292Y-104809890D01*
X152809890Y-104912292D01*
X152737482Y-105037708D01*
X152726212Y-105079766D01*
X152027340Y-104380894D01*
X151967084Y-104463830D01*
X151859897Y-104674197D01*
X151786934Y-104898752D01*
X151750000Y-105131947D01*
X150148399Y-105131947D01*
X152355827Y-102924519D01*
X152417150Y-102891034D01*
X152443508Y-102888200D01*
X155502817Y-102888200D01*
X155569856Y-102907885D01*
X155590493Y-102924514D01*
X155637700Y-102971721D01*
X155680819Y-103014840D01*
X155844679Y-103124328D01*
X155844692Y-103124335D01*
X156026760Y-103199749D01*
X156026765Y-103199751D01*
X156026769Y-103199751D01*
X156026770Y-103199752D01*
X156220056Y-103238200D01*
X156220059Y-103238200D01*
X156417143Y-103238200D01*
X156547182Y-103212332D01*
X156610435Y-103199751D01*
X156792514Y-103124332D01*
X156792523Y-103124326D01*
X156806607Y-103114916D01*
X156873284Y-103094036D01*
X156940664Y-103112519D01*
X156987356Y-103164497D01*
X156999500Y-103218016D01*
X156999500Y-136997438D01*
X156999394Y-137002562D01*
X156980928Y-137449016D01*
X156980082Y-137459230D01*
X156925128Y-137900099D01*
X156923441Y-137910208D01*
X156832269Y-138345029D01*
X156829753Y-138354964D01*
X156702984Y-138780773D01*
X156699656Y-138790466D01*
X156538158Y-139204349D01*
X156534041Y-139213734D01*
X156338923Y-139612854D01*
X156334046Y-139621868D01*
X156106616Y-140003545D01*
X156101010Y-140012124D01*
X155842860Y-140373687D01*
X155836565Y-140381775D01*
X155549428Y-140720796D01*
X155542487Y-140728336D01*
X155228336Y-141042487D01*
X155220796Y-141049428D01*
X154881775Y-141336565D01*
X154873687Y-141342860D01*
X154512124Y-141601010D01*
X154503545Y-141606616D01*
X154121868Y-141834046D01*
X154112854Y-141838923D01*
X153713734Y-142034041D01*
X153704349Y-142038158D01*
X153290466Y-142199656D01*
X153280773Y-142202984D01*
X152854964Y-142329753D01*
X152845029Y-142332269D01*
X152410208Y-142423441D01*
X152400099Y-142425128D01*
X151959230Y-142480082D01*
X151949016Y-142480928D01*
X151502563Y-142499394D01*
X151497439Y-142499500D01*
X95002561Y-142499500D01*
X94997437Y-142499394D01*
X94550983Y-142480928D01*
X94540769Y-142480082D01*
X94099900Y-142425128D01*
X94089791Y-142423441D01*
X93654970Y-142332269D01*
X93645035Y-142329753D01*
X93219226Y-142202984D01*
X93209533Y-142199656D01*
X92795650Y-142038158D01*
X92786265Y-142034041D01*
X92387145Y-141838923D01*
X92378131Y-141834046D01*
X91996454Y-141606616D01*
X91987875Y-141601010D01*
X91626312Y-141342860D01*
X91618224Y-141336565D01*
X91279203Y-141049428D01*
X91271663Y-141042487D01*
X90957512Y-140728336D01*
X90950571Y-140720796D01*
X90885963Y-140644514D01*
X90663430Y-140381770D01*
X90657139Y-140373687D01*
X90546127Y-140218205D01*
X90398989Y-140012124D01*
X90393383Y-140003545D01*
X90165953Y-139621868D01*
X90161076Y-139612854D01*
X89965958Y-139213734D01*
X89961841Y-139204349D01*
X89862300Y-138949248D01*
X89800338Y-138790454D01*
X89797019Y-138780786D01*
X89670242Y-138354951D01*
X89667733Y-138345043D01*
X89576555Y-137910194D01*
X89574873Y-137900114D01*
X89519915Y-137459209D01*
X89519072Y-137449036D01*
X89515372Y-137359568D01*
X91999500Y-137359568D01*
X91999500Y-137640431D01*
X92030942Y-137919494D01*
X92030945Y-137919512D01*
X92093439Y-138193317D01*
X92093443Y-138193329D01*
X92186200Y-138458411D01*
X92308053Y-138711442D01*
X92308055Y-138711445D01*
X92457477Y-138949248D01*
X92588113Y-139113060D01*
X92616480Y-139148632D01*
X92632584Y-139168825D01*
X92831175Y-139367416D01*
X93050752Y-139542523D01*
X93288555Y-139691945D01*
X93541592Y-139813801D01*
X93740680Y-139883465D01*
X93806670Y-139906556D01*
X93806682Y-139906560D01*
X94080491Y-139969055D01*
X94080497Y-139969055D01*
X94080505Y-139969057D01*
X94266547Y-139990018D01*
X94359569Y-140000499D01*
X94359572Y-140000500D01*
X94359575Y-140000500D01*
X94640428Y-140000500D01*
X94640429Y-140000499D01*
X94783055Y-139984429D01*
X94919494Y-139969057D01*
X94919499Y-139969056D01*
X94919509Y-139969055D01*
X95193318Y-139906560D01*
X95458408Y-139813801D01*
X95711445Y-139691945D01*
X95949248Y-139542523D01*
X96150660Y-139381902D01*
X102499500Y-139381902D01*
X102499500Y-139618097D01*
X102536446Y-139851368D01*
X102609433Y-140075996D01*
X102681893Y-140218205D01*
X102716657Y-140286433D01*
X102855483Y-140477510D01*
X103022490Y-140644517D01*
X103213567Y-140783343D01*
X103312991Y-140834002D01*
X103424003Y-140890566D01*
X103424005Y-140890566D01*
X103424008Y-140890568D01*
X103544412Y-140929689D01*
X103648631Y-140963553D01*
X103881903Y-141000500D01*
X103881908Y-141000500D01*
X104118097Y-141000500D01*
X104351368Y-140963553D01*
X104575992Y-140890568D01*
X104786433Y-140783343D01*
X104977510Y-140644517D01*
X105144517Y-140477510D01*
X105283343Y-140286433D01*
X105318107Y-140218205D01*
X105366082Y-140167409D01*
X105428592Y-140150500D01*
X109071408Y-140150500D01*
X109138447Y-140170185D01*
X109181893Y-140218205D01*
X109216657Y-140286433D01*
X109355483Y-140477510D01*
X109522490Y-140644517D01*
X109713567Y-140783343D01*
X109812991Y-140834002D01*
X109924003Y-140890566D01*
X109924005Y-140890566D01*
X109924008Y-140890568D01*
X110044412Y-140929689D01*
X110148631Y-140963553D01*
X110381903Y-141000500D01*
X110381908Y-141000500D01*
X110618097Y-141000500D01*
X110851368Y-140963553D01*
X111075992Y-140890568D01*
X111286433Y-140783343D01*
X111477510Y-140644517D01*
X111644517Y-140477510D01*
X111783343Y-140286433D01*
X111890568Y-140075992D01*
X111963553Y-139851368D01*
X111988803Y-139691945D01*
X112000500Y-139618097D01*
X112000500Y-139381902D01*
X111963553Y-139148631D01*
X111890566Y-138924003D01*
X111783342Y-138713566D01*
X111761593Y-138683631D01*
X111644517Y-138522490D01*
X111477510Y-138355483D01*
X111286433Y-138216657D01*
X111272120Y-138209364D01*
X111075996Y-138109433D01*
X110851368Y-138036446D01*
X110618097Y-137999500D01*
X110618092Y-137999500D01*
X110381908Y-137999500D01*
X110381903Y-137999500D01*
X110148631Y-138036446D01*
X109924003Y-138109433D01*
X109713566Y-138216657D01*
X109604550Y-138295862D01*
X109522490Y-138355483D01*
X109522488Y-138355485D01*
X109522487Y-138355485D01*
X109355485Y-138522487D01*
X109355485Y-138522488D01*
X109355483Y-138522490D01*
X109295862Y-138604550D01*
X109216657Y-138713566D01*
X109181893Y-138781795D01*
X109133918Y-138832591D01*
X109071408Y-138849500D01*
X105428592Y-138849500D01*
X105361553Y-138829815D01*
X105318107Y-138781795D01*
X105283342Y-138713566D01*
X105261593Y-138683631D01*
X105144517Y-138522490D01*
X104977510Y-138355483D01*
X104786433Y-138216657D01*
X104772120Y-138209364D01*
X104575996Y-138109433D01*
X104351368Y-138036446D01*
X104118097Y-137999500D01*
X104118092Y-137999500D01*
X103881908Y-137999500D01*
X103881903Y-137999500D01*
X103648631Y-138036446D01*
X103424003Y-138109433D01*
X103213566Y-138216657D01*
X103104550Y-138295862D01*
X103022490Y-138355483D01*
X103022488Y-138355485D01*
X103022487Y-138355485D01*
X102855485Y-138522487D01*
X102855485Y-138522488D01*
X102855483Y-138522490D01*
X102795862Y-138604550D01*
X102716657Y-138713566D01*
X102609433Y-138924003D01*
X102536446Y-139148631D01*
X102499500Y-139381902D01*
X96150660Y-139381902D01*
X96168825Y-139367416D01*
X96367416Y-139168825D01*
X96542523Y-138949248D01*
X96691945Y-138711445D01*
X96813801Y-138458408D01*
X96906560Y-138193318D01*
X96969055Y-137919509D01*
X97000500Y-137640425D01*
X97000500Y-137359575D01*
X97000499Y-137359568D01*
X149499500Y-137359568D01*
X149499500Y-137640431D01*
X149530942Y-137919494D01*
X149530945Y-137919512D01*
X149593439Y-138193317D01*
X149593443Y-138193329D01*
X149686200Y-138458411D01*
X149808053Y-138711442D01*
X149808055Y-138711445D01*
X149957477Y-138949248D01*
X150088113Y-139113060D01*
X150116480Y-139148632D01*
X150132584Y-139168825D01*
X150331175Y-139367416D01*
X150550752Y-139542523D01*
X150788555Y-139691945D01*
X151041592Y-139813801D01*
X151240680Y-139883465D01*
X151306670Y-139906556D01*
X151306682Y-139906560D01*
X151580491Y-139969055D01*
X151580497Y-139969055D01*
X151580505Y-139969057D01*
X151766547Y-139990018D01*
X151859569Y-140000499D01*
X151859572Y-140000500D01*
X151859575Y-140000500D01*
X152140428Y-140000500D01*
X152140429Y-140000499D01*
X152283055Y-139984429D01*
X152419494Y-139969057D01*
X152419499Y-139969056D01*
X152419509Y-139969055D01*
X152693318Y-139906560D01*
X152958408Y-139813801D01*
X153211445Y-139691945D01*
X153449248Y-139542523D01*
X153668825Y-139367416D01*
X153867416Y-139168825D01*
X154042523Y-138949248D01*
X154191945Y-138711445D01*
X154313801Y-138458408D01*
X154406560Y-138193318D01*
X154469055Y-137919509D01*
X154500500Y-137640425D01*
X154500500Y-137359575D01*
X154486309Y-137233623D01*
X154469057Y-137080505D01*
X154469054Y-137080487D01*
X154458293Y-137033342D01*
X154406560Y-136806682D01*
X154313801Y-136541592D01*
X154191945Y-136288555D01*
X154042523Y-136050752D01*
X153867416Y-135831175D01*
X153668825Y-135632584D01*
X153667977Y-135631908D01*
X153597861Y-135575992D01*
X153449248Y-135457477D01*
X153211445Y-135308055D01*
X153211442Y-135308053D01*
X152958411Y-135186200D01*
X152693329Y-135093443D01*
X152693317Y-135093439D01*
X152419512Y-135030945D01*
X152419494Y-135030942D01*
X152140431Y-134999500D01*
X152140425Y-134999500D01*
X151859575Y-134999500D01*
X151859568Y-134999500D01*
X151580505Y-135030942D01*
X151580487Y-135030945D01*
X151306682Y-135093439D01*
X151306670Y-135093443D01*
X151041588Y-135186200D01*
X150788557Y-135308053D01*
X150550753Y-135457476D01*
X150331175Y-135632583D01*
X150132583Y-135831175D01*
X149957476Y-136050753D01*
X149808053Y-136288557D01*
X149686200Y-136541588D01*
X149593443Y-136806670D01*
X149593439Y-136806682D01*
X149530945Y-137080487D01*
X149530942Y-137080505D01*
X149499500Y-137359568D01*
X97000499Y-137359568D01*
X96986309Y-137233623D01*
X96969057Y-137080505D01*
X96969054Y-137080487D01*
X96958293Y-137033342D01*
X96906560Y-136806682D01*
X96813801Y-136541592D01*
X96691945Y-136288555D01*
X96542523Y-136050752D01*
X96367416Y-135831175D01*
X96168825Y-135632584D01*
X96167977Y-135631908D01*
X96097861Y-135575992D01*
X95949248Y-135457477D01*
X95711445Y-135308055D01*
X95711442Y-135308053D01*
X95458411Y-135186200D01*
X95193329Y-135093443D01*
X95193317Y-135093439D01*
X94919512Y-135030945D01*
X94919494Y-135030942D01*
X94647139Y-135000256D01*
X94647138Y-135000256D01*
X94640429Y-134999500D01*
X94640425Y-134999500D01*
X94359575Y-134999500D01*
X94359568Y-134999500D01*
X94080505Y-135030942D01*
X94080487Y-135030945D01*
X93806682Y-135093439D01*
X93806670Y-135093443D01*
X93541588Y-135186200D01*
X93288557Y-135308053D01*
X93050753Y-135457476D01*
X92831175Y-135632583D01*
X92632583Y-135831175D01*
X92457476Y-136050753D01*
X92308053Y-136288557D01*
X92186200Y-136541588D01*
X92093443Y-136806670D01*
X92093439Y-136806682D01*
X92030945Y-137080487D01*
X92030942Y-137080505D01*
X91999500Y-137359568D01*
X89515372Y-137359568D01*
X89500606Y-137002562D01*
X89500500Y-136997438D01*
X89500500Y-134881902D01*
X102499500Y-134881902D01*
X102499500Y-135118097D01*
X102536446Y-135351368D01*
X102609433Y-135575996D01*
X102681893Y-135718205D01*
X102716657Y-135786433D01*
X102855483Y-135977510D01*
X103022490Y-136144517D01*
X103213567Y-136283343D01*
X103297278Y-136325996D01*
X103424003Y-136390566D01*
X103424005Y-136390566D01*
X103424008Y-136390568D01*
X103544412Y-136429689D01*
X103648631Y-136463553D01*
X103881903Y-136500500D01*
X103881908Y-136500500D01*
X104118097Y-136500500D01*
X104351368Y-136463553D01*
X104575992Y-136390568D01*
X104786433Y-136283343D01*
X104977510Y-136144517D01*
X105144517Y-135977510D01*
X105283343Y-135786433D01*
X105318107Y-135718205D01*
X105366082Y-135667409D01*
X105428592Y-135650500D01*
X109071408Y-135650500D01*
X109138447Y-135670185D01*
X109181893Y-135718205D01*
X109216657Y-135786433D01*
X109355483Y-135977510D01*
X109522490Y-136144517D01*
X109713567Y-136283343D01*
X109797278Y-136325996D01*
X109924003Y-136390566D01*
X109924005Y-136390566D01*
X109924008Y-136390568D01*
X110044412Y-136429689D01*
X110148631Y-136463553D01*
X110381903Y-136500500D01*
X110381908Y-136500500D01*
X110618097Y-136500500D01*
X110851368Y-136463553D01*
X111075992Y-136390568D01*
X111286433Y-136283343D01*
X111477510Y-136144517D01*
X111644517Y-135977510D01*
X111783343Y-135786433D01*
X111862080Y-135631902D01*
X134249500Y-135631902D01*
X134249500Y-135868097D01*
X134286446Y-136101368D01*
X134359433Y-136325996D01*
X134431893Y-136468205D01*
X134466657Y-136536433D01*
X134605483Y-136727510D01*
X134772490Y-136894517D01*
X134963567Y-137033343D01*
X135056092Y-137080487D01*
X135174003Y-137140566D01*
X135174005Y-137140566D01*
X135174008Y-137140568D01*
X135294412Y-137179689D01*
X135398631Y-137213553D01*
X135631903Y-137250500D01*
X135631908Y-137250500D01*
X135868097Y-137250500D01*
X136101368Y-137213553D01*
X136325992Y-137140568D01*
X136536433Y-137033343D01*
X136727510Y-136894517D01*
X136894517Y-136727510D01*
X137033343Y-136536433D01*
X137068107Y-136468205D01*
X137116082Y-136417409D01*
X137178592Y-136400500D01*
X140821408Y-136400500D01*
X140888447Y-136420185D01*
X140931893Y-136468205D01*
X140966657Y-136536433D01*
X141105483Y-136727510D01*
X141272490Y-136894517D01*
X141463567Y-137033343D01*
X141556092Y-137080487D01*
X141674003Y-137140566D01*
X141674005Y-137140566D01*
X141674008Y-137140568D01*
X141794412Y-137179689D01*
X141898631Y-137213553D01*
X142131903Y-137250500D01*
X142131908Y-137250500D01*
X142368097Y-137250500D01*
X142474653Y-137233623D01*
X142601368Y-137213553D01*
X142825992Y-137140568D01*
X143036433Y-137033343D01*
X143227510Y-136894517D01*
X143394517Y-136727510D01*
X143533343Y-136536433D01*
X143640568Y-136325992D01*
X143713553Y-136101368D01*
X143733170Y-135977510D01*
X143750500Y-135868097D01*
X143750500Y-135631902D01*
X143713553Y-135398631D01*
X143640566Y-135174003D01*
X143552037Y-135000256D01*
X143533343Y-134963567D01*
X143394517Y-134772490D01*
X143227510Y-134605483D01*
X143036433Y-134466657D01*
X142952730Y-134424008D01*
X142825996Y-134359433D01*
X142601368Y-134286446D01*
X142368097Y-134249500D01*
X142368092Y-134249500D01*
X142131908Y-134249500D01*
X142131903Y-134249500D01*
X141898631Y-134286446D01*
X141674003Y-134359433D01*
X141463566Y-134466657D01*
X141354550Y-134545862D01*
X141272490Y-134605483D01*
X141272488Y-134605485D01*
X141272487Y-134605485D01*
X141105485Y-134772487D01*
X141105485Y-134772488D01*
X141105483Y-134772490D01*
X141045862Y-134854550D01*
X140966657Y-134963566D01*
X140931893Y-135031795D01*
X140883918Y-135082591D01*
X140821408Y-135099500D01*
X137178592Y-135099500D01*
X137111553Y-135079815D01*
X137068107Y-135031795D01*
X137033342Y-134963566D01*
X136894517Y-134772490D01*
X136727510Y-134605483D01*
X136536433Y-134466657D01*
X136452730Y-134424008D01*
X136325996Y-134359433D01*
X136101368Y-134286446D01*
X135868097Y-134249500D01*
X135868092Y-134249500D01*
X135631908Y-134249500D01*
X135631903Y-134249500D01*
X135398631Y-134286446D01*
X135174003Y-134359433D01*
X134963566Y-134466657D01*
X134854550Y-134545862D01*
X134772490Y-134605483D01*
X134772488Y-134605485D01*
X134772487Y-134605485D01*
X134605485Y-134772487D01*
X134605485Y-134772488D01*
X134605483Y-134772490D01*
X134545862Y-134854550D01*
X134466657Y-134963566D01*
X134359433Y-135174003D01*
X134286446Y-135398631D01*
X134249500Y-135631902D01*
X111862080Y-135631902D01*
X111890568Y-135575992D01*
X111963553Y-135351368D01*
X111970413Y-135308055D01*
X112000500Y-135118097D01*
X112000500Y-134881902D01*
X111963553Y-134648631D01*
X111929689Y-134544412D01*
X111890568Y-134424008D01*
X111890566Y-134424005D01*
X111890566Y-134424003D01*
X111818107Y-134281795D01*
X111783343Y-134213567D01*
X111644517Y-134022490D01*
X111477510Y-133855483D01*
X111286433Y-133716657D01*
X111075996Y-133609433D01*
X110851368Y-133536446D01*
X110618097Y-133499500D01*
X110618092Y-133499500D01*
X110381908Y-133499500D01*
X110381903Y-133499500D01*
X110148631Y-133536446D01*
X109924003Y-133609433D01*
X109713566Y-133716657D01*
X109604550Y-133795862D01*
X109522490Y-133855483D01*
X109522488Y-133855485D01*
X109522487Y-133855485D01*
X109355485Y-134022487D01*
X109355485Y-134022488D01*
X109355483Y-134022490D01*
X109295862Y-134104550D01*
X109216657Y-134213566D01*
X109181893Y-134281795D01*
X109133918Y-134332591D01*
X109071408Y-134349500D01*
X105428592Y-134349500D01*
X105361553Y-134329815D01*
X105318107Y-134281795D01*
X105283342Y-134213566D01*
X105144517Y-134022490D01*
X104977510Y-133855483D01*
X104786433Y-133716657D01*
X104575996Y-133609433D01*
X104351368Y-133536446D01*
X104118097Y-133499500D01*
X104118092Y-133499500D01*
X103881908Y-133499500D01*
X103881903Y-133499500D01*
X103648631Y-133536446D01*
X103424003Y-133609433D01*
X103213566Y-133716657D01*
X103104550Y-133795862D01*
X103022490Y-133855483D01*
X103022488Y-133855485D01*
X103022487Y-133855485D01*
X102855485Y-134022487D01*
X102855485Y-134022488D01*
X102855483Y-134022490D01*
X102795862Y-134104550D01*
X102716657Y-134213566D01*
X102609433Y-134424003D01*
X102536446Y-134648631D01*
X102499500Y-134881902D01*
X89500500Y-134881902D01*
X89500500Y-130381902D01*
X92999500Y-130381902D01*
X92999500Y-130618097D01*
X93036446Y-130851368D01*
X93109433Y-131075996D01*
X93186635Y-131227512D01*
X93216657Y-131286433D01*
X93355483Y-131477510D01*
X93522490Y-131644517D01*
X93713567Y-131783343D01*
X93796898Y-131825802D01*
X93924003Y-131890566D01*
X93924005Y-131890566D01*
X93924008Y-131890568D01*
X94044412Y-131929689D01*
X94148631Y-131963553D01*
X94381903Y-132000500D01*
X94381908Y-132000500D01*
X94618097Y-132000500D01*
X94851368Y-131963553D01*
X95075992Y-131890568D01*
X95286433Y-131783343D01*
X95477510Y-131644517D01*
X95644517Y-131477510D01*
X95783343Y-131286433D01*
X95818107Y-131218205D01*
X95866082Y-131167409D01*
X95928592Y-131150500D01*
X99571408Y-131150500D01*
X99638447Y-131170185D01*
X99681893Y-131218205D01*
X99698094Y-131250001D01*
X99716657Y-131286433D01*
X99855483Y-131477510D01*
X100022490Y-131644517D01*
X100213567Y-131783343D01*
X100296898Y-131825802D01*
X100424003Y-131890566D01*
X100424005Y-131890566D01*
X100424008Y-131890568D01*
X100544412Y-131929689D01*
X100648631Y-131963553D01*
X100881903Y-132000500D01*
X100881908Y-132000500D01*
X101118097Y-132000500D01*
X101351368Y-131963553D01*
X101575992Y-131890568D01*
X101786433Y-131783343D01*
X101977510Y-131644517D01*
X102144517Y-131477510D01*
X102283343Y-131286433D01*
X102390568Y-131075992D01*
X102463553Y-130851368D01*
X102500500Y-130618097D01*
X102500500Y-130381902D01*
X102480347Y-130254666D01*
X102463553Y-130148632D01*
X102439888Y-130075802D01*
X102437894Y-130005963D01*
X102470137Y-129949807D01*
X103733127Y-128686819D01*
X103794450Y-128653334D01*
X103820808Y-128650500D01*
X113067562Y-128650500D01*
X113134601Y-128670185D01*
X113180356Y-128722989D01*
X113190300Y-128792147D01*
X113161275Y-128855703D01*
X113123857Y-128884985D01*
X112963566Y-128966657D01*
X112854550Y-129045862D01*
X112772490Y-129105483D01*
X112772488Y-129105485D01*
X112772487Y-129105485D01*
X112605485Y-129272487D01*
X112605485Y-129272488D01*
X112605483Y-129272490D01*
X112545862Y-129354550D01*
X112466657Y-129463566D01*
X112359433Y-129674003D01*
X112286446Y-129898631D01*
X112249500Y-130131902D01*
X112249500Y-130368097D01*
X112286446Y-130601368D01*
X112359433Y-130825996D01*
X112431893Y-130968205D01*
X112466657Y-131036433D01*
X112605483Y-131227510D01*
X112772490Y-131394517D01*
X112963567Y-131533343D01*
X113062991Y-131584002D01*
X113174003Y-131640566D01*
X113174005Y-131640566D01*
X113174008Y-131640568D01*
X113294412Y-131679689D01*
X113398631Y-131713553D01*
X113631903Y-131750500D01*
X113631908Y-131750500D01*
X113868097Y-131750500D01*
X114101368Y-131713553D01*
X114325992Y-131640568D01*
X114536433Y-131533343D01*
X114727510Y-131394517D01*
X114894517Y-131227510D01*
X115033343Y-131036433D01*
X115068107Y-130968205D01*
X115116082Y-130917409D01*
X115178592Y-130900500D01*
X118821408Y-130900500D01*
X118888447Y-130920185D01*
X118931893Y-130968205D01*
X118966657Y-131036433D01*
X119105483Y-131227510D01*
X119272490Y-131394517D01*
X119463567Y-131533343D01*
X119562991Y-131584002D01*
X119674003Y-131640566D01*
X119674005Y-131640566D01*
X119674008Y-131640568D01*
X119794412Y-131679689D01*
X119898631Y-131713553D01*
X120131903Y-131750500D01*
X120131908Y-131750500D01*
X120368097Y-131750500D01*
X120601368Y-131713553D01*
X120825992Y-131640568D01*
X121036433Y-131533343D01*
X121227510Y-131394517D01*
X121394517Y-131227510D01*
X121463948Y-131131947D01*
X134250000Y-131131947D01*
X134250000Y-131368052D01*
X134286934Y-131601247D01*
X134359897Y-131825802D01*
X134467087Y-132036174D01*
X134527338Y-132119104D01*
X134527340Y-132119105D01*
X135226212Y-131420233D01*
X135237482Y-131462292D01*
X135309890Y-131587708D01*
X135412292Y-131690110D01*
X135537708Y-131762518D01*
X135579765Y-131773787D01*
X134880893Y-132472658D01*
X134963828Y-132532914D01*
X135174197Y-132640102D01*
X135398752Y-132713065D01*
X135398751Y-132713065D01*
X135631948Y-132750000D01*
X135868052Y-132750000D01*
X136101247Y-132713065D01*
X136325802Y-132640102D01*
X136536163Y-132532918D01*
X136536169Y-132532914D01*
X136619104Y-132472658D01*
X136619105Y-132472658D01*
X135920233Y-131773787D01*
X135962292Y-131762518D01*
X136087708Y-131690110D01*
X136190110Y-131587708D01*
X136262518Y-131462292D01*
X136273787Y-131420234D01*
X136972658Y-132119105D01*
X136972658Y-132119104D01*
X137032914Y-132036169D01*
X137032918Y-132036163D01*
X137140102Y-131825802D01*
X137213065Y-131601247D01*
X137250000Y-131368052D01*
X137250000Y-131131947D01*
X140750000Y-131131947D01*
X140750000Y-131368052D01*
X140786934Y-131601247D01*
X140859897Y-131825802D01*
X140967087Y-132036174D01*
X141027338Y-132119104D01*
X141027340Y-132119105D01*
X141726212Y-131420233D01*
X141737482Y-131462292D01*
X141809890Y-131587708D01*
X141912292Y-131690110D01*
X142037708Y-131762518D01*
X142079765Y-131773787D01*
X141380893Y-132472658D01*
X141463828Y-132532914D01*
X141674197Y-132640102D01*
X141898752Y-132713065D01*
X141898751Y-132713065D01*
X142131948Y-132750000D01*
X142368052Y-132750000D01*
X142601247Y-132713065D01*
X142825802Y-132640102D01*
X143036163Y-132532918D01*
X143036169Y-132532914D01*
X143119104Y-132472658D01*
X143119105Y-132472658D01*
X142420233Y-131773787D01*
X142462292Y-131762518D01*
X142587708Y-131690110D01*
X142690110Y-131587708D01*
X142762518Y-131462292D01*
X142773787Y-131420234D01*
X143472658Y-132119105D01*
X143472658Y-132119104D01*
X143532914Y-132036169D01*
X143532918Y-132036163D01*
X143640102Y-131825802D01*
X143713065Y-131601247D01*
X143750000Y-131368052D01*
X143750000Y-131131947D01*
X143713065Y-130898752D01*
X143640102Y-130674197D01*
X143532914Y-130463828D01*
X143472658Y-130380894D01*
X143472658Y-130380893D01*
X142773787Y-131079765D01*
X142762518Y-131037708D01*
X142690110Y-130912292D01*
X142587708Y-130809890D01*
X142462292Y-130737482D01*
X142420234Y-130726212D01*
X143119105Y-130027340D01*
X143119104Y-130027338D01*
X143036174Y-129967087D01*
X142825802Y-129859897D01*
X142601247Y-129786934D01*
X142601248Y-129786934D01*
X142368052Y-129750000D01*
X142131948Y-129750000D01*
X141898752Y-129786934D01*
X141674197Y-129859897D01*
X141463830Y-129967084D01*
X141380894Y-130027340D01*
X142079766Y-130726212D01*
X142037708Y-130737482D01*
X141912292Y-130809890D01*
X141809890Y-130912292D01*
X141737482Y-131037708D01*
X141726212Y-131079765D01*
X141027340Y-130380894D01*
X140967084Y-130463830D01*
X140859897Y-130674197D01*
X140786934Y-130898752D01*
X140750000Y-131131947D01*
X137250000Y-131131947D01*
X137213065Y-130898752D01*
X137140102Y-130674197D01*
X137032914Y-130463828D01*
X136972658Y-130380894D01*
X136972658Y-130380893D01*
X136273787Y-131079765D01*
X136262518Y-131037708D01*
X136190110Y-130912292D01*
X136087708Y-130809890D01*
X135962292Y-130737482D01*
X135920234Y-130726212D01*
X136619105Y-130027340D01*
X136619104Y-130027339D01*
X136536174Y-129967087D01*
X136325802Y-129859897D01*
X136101247Y-129786934D01*
X136101248Y-129786934D01*
X135868052Y-129750000D01*
X135631948Y-129750000D01*
X135398752Y-129786934D01*
X135174197Y-129859897D01*
X134963830Y-129967084D01*
X134880894Y-130027340D01*
X135579766Y-130726212D01*
X135537708Y-130737482D01*
X135412292Y-130809890D01*
X135309890Y-130912292D01*
X135237482Y-131037708D01*
X135226212Y-131079766D01*
X134527340Y-130380894D01*
X134467084Y-130463830D01*
X134359897Y-130674197D01*
X134286934Y-130898752D01*
X134250000Y-131131947D01*
X121463948Y-131131947D01*
X121533343Y-131036433D01*
X121640568Y-130825992D01*
X121713553Y-130601368D01*
X121735337Y-130463828D01*
X121750500Y-130368097D01*
X121750500Y-130131903D01*
X121744496Y-130093998D01*
X121744496Y-130093997D01*
X121713553Y-129898631D01*
X121665259Y-129750000D01*
X121640568Y-129674008D01*
X121640566Y-129674005D01*
X121640566Y-129674003D01*
X121533342Y-129463566D01*
X121394517Y-129272490D01*
X121227510Y-129105483D01*
X121036433Y-128966657D01*
X120876143Y-128884985D01*
X120825347Y-128837010D01*
X120808552Y-128769189D01*
X120831089Y-128703054D01*
X120885805Y-128659603D01*
X120932438Y-128650500D01*
X123543971Y-128650500D01*
X123628515Y-128633682D01*
X123669644Y-128625501D01*
X123788027Y-128576465D01*
X123894569Y-128505277D01*
X124360327Y-128039519D01*
X124421650Y-128006034D01*
X124448008Y-128003200D01*
X124575743Y-128003200D01*
X124705782Y-127977332D01*
X124769035Y-127964751D01*
X124951114Y-127889332D01*
X125114982Y-127779839D01*
X125254339Y-127640482D01*
X125363832Y-127476614D01*
X125439251Y-127294535D01*
X125469092Y-127144517D01*
X125477700Y-127101243D01*
X125477700Y-126904156D01*
X125439252Y-126710870D01*
X125439251Y-126710869D01*
X125439251Y-126710865D01*
X125383387Y-126575996D01*
X125363835Y-126528792D01*
X125363828Y-126528779D01*
X125254339Y-126364918D01*
X125254336Y-126364914D01*
X125114985Y-126225563D01*
X125114981Y-126225560D01*
X124951120Y-126116071D01*
X124951107Y-126116064D01*
X124810831Y-126057961D01*
X124756427Y-126014120D01*
X124734362Y-125947826D01*
X124751641Y-125880127D01*
X124802778Y-125832516D01*
X124847766Y-125821884D01*
X124847581Y-125819997D01*
X124853643Y-125819400D01*
X124983682Y-125793532D01*
X125046935Y-125780951D01*
X125229014Y-125705532D01*
X125392882Y-125596039D01*
X125532239Y-125456682D01*
X125641732Y-125292814D01*
X125717151Y-125110735D01*
X125755600Y-124917441D01*
X125755600Y-124720359D01*
X125755600Y-124720356D01*
X125717152Y-124527070D01*
X125717151Y-124527069D01*
X125717151Y-124527065D01*
X125705733Y-124499500D01*
X125641735Y-124344992D01*
X125641728Y-124344979D01*
X125532239Y-124181118D01*
X125532236Y-124181114D01*
X125392885Y-124041763D01*
X125392881Y-124041760D01*
X125229020Y-123932271D01*
X125229007Y-123932264D01*
X125046939Y-123856850D01*
X125046929Y-123856847D01*
X124853643Y-123818400D01*
X124853641Y-123818400D01*
X124725908Y-123818400D01*
X124658869Y-123798715D01*
X124638227Y-123782081D01*
X122118527Y-121262381D01*
X122085042Y-121201058D01*
X122090026Y-121131366D01*
X122131898Y-121075433D01*
X122197362Y-121051016D01*
X122206208Y-121050700D01*
X138079392Y-121050700D01*
X138146431Y-121070385D01*
X138167073Y-121087019D01*
X139779859Y-122699805D01*
X139813344Y-122761128D01*
X139810109Y-122825803D01*
X139786447Y-122898628D01*
X139749500Y-123131902D01*
X139749500Y-123368097D01*
X139786446Y-123601368D01*
X139859433Y-123825996D01*
X139931893Y-123968205D01*
X139966657Y-124036433D01*
X140105483Y-124227510D01*
X140272490Y-124394517D01*
X140463567Y-124533343D01*
X140562991Y-124584002D01*
X140674003Y-124640566D01*
X140674005Y-124640566D01*
X140674008Y-124640568D01*
X140794412Y-124679689D01*
X140898631Y-124713553D01*
X141131903Y-124750500D01*
X141131908Y-124750500D01*
X141368097Y-124750500D01*
X141601368Y-124713553D01*
X141636841Y-124702027D01*
X141825992Y-124640568D01*
X142036433Y-124533343D01*
X142227510Y-124394517D01*
X142394517Y-124227510D01*
X142533343Y-124036433D01*
X142568107Y-123968205D01*
X142616082Y-123917409D01*
X142678592Y-123900500D01*
X146321408Y-123900500D01*
X146388447Y-123920185D01*
X146431893Y-123968205D01*
X146466657Y-124036433D01*
X146605483Y-124227510D01*
X146772490Y-124394517D01*
X146963567Y-124533343D01*
X147062991Y-124584002D01*
X147174003Y-124640566D01*
X147174005Y-124640566D01*
X147174008Y-124640568D01*
X147294412Y-124679689D01*
X147398631Y-124713553D01*
X147631903Y-124750500D01*
X147631908Y-124750500D01*
X147868097Y-124750500D01*
X148101368Y-124713553D01*
X148136841Y-124702027D01*
X148325992Y-124640568D01*
X148536433Y-124533343D01*
X148727510Y-124394517D01*
X148894517Y-124227510D01*
X149033343Y-124036433D01*
X149140568Y-123825992D01*
X149213553Y-123601368D01*
X149250500Y-123368097D01*
X149250500Y-123131902D01*
X149213553Y-122898631D01*
X149168875Y-122761128D01*
X149140568Y-122674008D01*
X149140566Y-122674005D01*
X149140566Y-122674003D01*
X149040448Y-122477512D01*
X149033343Y-122463567D01*
X148894517Y-122272490D01*
X148727510Y-122105483D01*
X148536433Y-121966657D01*
X148325996Y-121859433D01*
X148101368Y-121786446D01*
X147868097Y-121749500D01*
X147868092Y-121749500D01*
X147631908Y-121749500D01*
X147631903Y-121749500D01*
X147398631Y-121786446D01*
X147174003Y-121859433D01*
X146963566Y-121966657D01*
X146854550Y-122045862D01*
X146772490Y-122105483D01*
X146772488Y-122105485D01*
X146772487Y-122105485D01*
X146605485Y-122272487D01*
X146605485Y-122272488D01*
X146605483Y-122272490D01*
X146595353Y-122286433D01*
X146466657Y-122463566D01*
X146431893Y-122531795D01*
X146383918Y-122582591D01*
X146321408Y-122599500D01*
X142678592Y-122599500D01*
X142611553Y-122579815D01*
X142568107Y-122531795D01*
X142540448Y-122477512D01*
X142533343Y-122463567D01*
X142394517Y-122272490D01*
X142227510Y-122105483D01*
X142036433Y-121966657D01*
X141825996Y-121859433D01*
X141601368Y-121786446D01*
X141368097Y-121749500D01*
X141368092Y-121749500D01*
X141131908Y-121749500D01*
X141131903Y-121749500D01*
X140898628Y-121786447D01*
X140825803Y-121810109D01*
X140755962Y-121812104D01*
X140699805Y-121779859D01*
X138933027Y-120013080D01*
X138814873Y-119894926D01*
X138814869Y-119894923D01*
X138708327Y-119823735D01*
X138589944Y-119774699D01*
X138589938Y-119774697D01*
X138464271Y-119749700D01*
X138464269Y-119749700D01*
X118401608Y-119749700D01*
X118334569Y-119730015D01*
X118313927Y-119713381D01*
X117232493Y-118631947D01*
X139750000Y-118631947D01*
X139750000Y-118868052D01*
X139786934Y-119101247D01*
X139859897Y-119325802D01*
X139967087Y-119536174D01*
X140027338Y-119619104D01*
X140027340Y-119619105D01*
X140726212Y-118920233D01*
X140737482Y-118962292D01*
X140809890Y-119087708D01*
X140912292Y-119190110D01*
X141037708Y-119262518D01*
X141079765Y-119273787D01*
X140380893Y-119972658D01*
X140463828Y-120032914D01*
X140674197Y-120140102D01*
X140898752Y-120213065D01*
X140898751Y-120213065D01*
X141131948Y-120250000D01*
X141368052Y-120250000D01*
X141601247Y-120213065D01*
X141825802Y-120140102D01*
X142036163Y-120032918D01*
X142036169Y-120032914D01*
X142119104Y-119972658D01*
X142119105Y-119972658D01*
X141420233Y-119273787D01*
X141462292Y-119262518D01*
X141587708Y-119190110D01*
X141690110Y-119087708D01*
X141762518Y-118962292D01*
X141773787Y-118920233D01*
X142472658Y-119619105D01*
X142472658Y-119619104D01*
X142532914Y-119536169D01*
X142532918Y-119536163D01*
X142640102Y-119325802D01*
X142713065Y-119101247D01*
X142750000Y-118868052D01*
X142750000Y-118631947D01*
X146250000Y-118631947D01*
X146250000Y-118868052D01*
X146286934Y-119101247D01*
X146359897Y-119325802D01*
X146467087Y-119536174D01*
X146527338Y-119619104D01*
X146527340Y-119619105D01*
X147226212Y-118920233D01*
X147237482Y-118962292D01*
X147309890Y-119087708D01*
X147412292Y-119190110D01*
X147537708Y-119262518D01*
X147579765Y-119273787D01*
X146880893Y-119972658D01*
X146963828Y-120032914D01*
X147174197Y-120140102D01*
X147398752Y-120213065D01*
X147398751Y-120213065D01*
X147631948Y-120250000D01*
X147868052Y-120250000D01*
X148101247Y-120213065D01*
X148325802Y-120140102D01*
X148536163Y-120032918D01*
X148536169Y-120032914D01*
X148619104Y-119972658D01*
X148619105Y-119972658D01*
X147920233Y-119273787D01*
X147962292Y-119262518D01*
X148087708Y-119190110D01*
X148190110Y-119087708D01*
X148262518Y-118962292D01*
X148273787Y-118920234D01*
X148972658Y-119619105D01*
X148972658Y-119619104D01*
X149032914Y-119536169D01*
X149032918Y-119536163D01*
X149140102Y-119325802D01*
X149213065Y-119101247D01*
X149250000Y-118868052D01*
X149250000Y-118631947D01*
X149213065Y-118398752D01*
X149140102Y-118174197D01*
X149032914Y-117963828D01*
X148972658Y-117880894D01*
X148972658Y-117880893D01*
X148273787Y-118579765D01*
X148262518Y-118537708D01*
X148190110Y-118412292D01*
X148087708Y-118309890D01*
X147962292Y-118237482D01*
X147920234Y-118226212D01*
X148619105Y-117527340D01*
X148619104Y-117527338D01*
X148536174Y-117467087D01*
X148325802Y-117359897D01*
X148101247Y-117286934D01*
X148101248Y-117286934D01*
X147868052Y-117250000D01*
X147631948Y-117250000D01*
X147398752Y-117286934D01*
X147174197Y-117359897D01*
X146963830Y-117467084D01*
X146880894Y-117527340D01*
X147579766Y-118226212D01*
X147537708Y-118237482D01*
X147412292Y-118309890D01*
X147309890Y-118412292D01*
X147237482Y-118537708D01*
X147226212Y-118579766D01*
X146527340Y-117880894D01*
X146467084Y-117963830D01*
X146359897Y-118174197D01*
X146286934Y-118398752D01*
X146250000Y-118631947D01*
X142750000Y-118631947D01*
X142713065Y-118398752D01*
X142640102Y-118174197D01*
X142532914Y-117963828D01*
X142472658Y-117880894D01*
X142472658Y-117880893D01*
X141773787Y-118579765D01*
X141762518Y-118537708D01*
X141690110Y-118412292D01*
X141587708Y-118309890D01*
X141462292Y-118237482D01*
X141420234Y-118226212D01*
X142119105Y-117527340D01*
X142119104Y-117527339D01*
X142036174Y-117467087D01*
X141825802Y-117359897D01*
X141601247Y-117286934D01*
X141601248Y-117286934D01*
X141368052Y-117250000D01*
X141131948Y-117250000D01*
X140898752Y-117286934D01*
X140674197Y-117359897D01*
X140463830Y-117467084D01*
X140380894Y-117527340D01*
X141079766Y-118226212D01*
X141037708Y-118237482D01*
X140912292Y-118309890D01*
X140809890Y-118412292D01*
X140737482Y-118537708D01*
X140726212Y-118579766D01*
X140027340Y-117880894D01*
X139967084Y-117963830D01*
X139859897Y-118174197D01*
X139786934Y-118398752D01*
X139750000Y-118631947D01*
X117232493Y-118631947D01*
X113960114Y-115359568D01*
X133999500Y-115359568D01*
X133999500Y-115640431D01*
X134030942Y-115919494D01*
X134030945Y-115919512D01*
X134093439Y-116193317D01*
X134093443Y-116193329D01*
X134186200Y-116458411D01*
X134308053Y-116711442D01*
X134308055Y-116711445D01*
X134457477Y-116949248D01*
X134632584Y-117168825D01*
X134831175Y-117367416D01*
X135050752Y-117542523D01*
X135288555Y-117691945D01*
X135541592Y-117813801D01*
X135733330Y-117880893D01*
X135806670Y-117906556D01*
X135806682Y-117906560D01*
X136080491Y-117969055D01*
X136080497Y-117969055D01*
X136080505Y-117969057D01*
X136266547Y-117990018D01*
X136359569Y-118000499D01*
X136359572Y-118000500D01*
X136359575Y-118000500D01*
X136640428Y-118000500D01*
X136640429Y-118000499D01*
X136783055Y-117984429D01*
X136919494Y-117969057D01*
X136919499Y-117969056D01*
X136919509Y-117969055D01*
X137193318Y-117906560D01*
X137458408Y-117813801D01*
X137711445Y-117691945D01*
X137949248Y-117542523D01*
X137968288Y-117527339D01*
X138030589Y-117477656D01*
X138030594Y-117477652D01*
X138071833Y-117444763D01*
X138168825Y-117367416D01*
X138367416Y-117168825D01*
X138542523Y-116949248D01*
X138691945Y-116711445D01*
X138813801Y-116458408D01*
X138906560Y-116193318D01*
X138969055Y-115919509D01*
X139000500Y-115640425D01*
X139000500Y-115359575D01*
X138969055Y-115080491D01*
X138906560Y-114806682D01*
X138813801Y-114541592D01*
X138691945Y-114288555D01*
X138542523Y-114050752D01*
X138367416Y-113831175D01*
X138168825Y-113632584D01*
X137949248Y-113457477D01*
X137711445Y-113308055D01*
X137711442Y-113308053D01*
X137458411Y-113186200D01*
X137193329Y-113093443D01*
X137193317Y-113093439D01*
X136919512Y-113030945D01*
X136919494Y-113030942D01*
X136640431Y-112999500D01*
X136640425Y-112999500D01*
X136359575Y-112999500D01*
X136359568Y-112999500D01*
X136080505Y-113030942D01*
X136080487Y-113030945D01*
X135806682Y-113093439D01*
X135806670Y-113093443D01*
X135541588Y-113186200D01*
X135288557Y-113308053D01*
X135050753Y-113457476D01*
X134831175Y-113632583D01*
X134632583Y-113831175D01*
X134457476Y-114050753D01*
X134308053Y-114288557D01*
X134186200Y-114541588D01*
X134093443Y-114806670D01*
X134093439Y-114806682D01*
X134030945Y-115080487D01*
X134030942Y-115080505D01*
X133999500Y-115359568D01*
X113960114Y-115359568D01*
X103732493Y-105131947D01*
X109500000Y-105131947D01*
X109500000Y-105368052D01*
X109536934Y-105601247D01*
X109609897Y-105825802D01*
X109717087Y-106036174D01*
X109777338Y-106119104D01*
X109777340Y-106119105D01*
X110476212Y-105420233D01*
X110487482Y-105462292D01*
X110559890Y-105587708D01*
X110662292Y-105690110D01*
X110787708Y-105762518D01*
X110829765Y-105773787D01*
X110130893Y-106472658D01*
X110213828Y-106532914D01*
X110424197Y-106640102D01*
X110648752Y-106713065D01*
X110648751Y-106713065D01*
X110881948Y-106750000D01*
X111118052Y-106750000D01*
X111351247Y-106713065D01*
X111575802Y-106640102D01*
X111786163Y-106532918D01*
X111786169Y-106532914D01*
X111869104Y-106472658D01*
X111869105Y-106472658D01*
X111170233Y-105773787D01*
X111212292Y-105762518D01*
X111337708Y-105690110D01*
X111440110Y-105587708D01*
X111512518Y-105462292D01*
X111523787Y-105420233D01*
X112222658Y-106119105D01*
X112222658Y-106119104D01*
X112282914Y-106036169D01*
X112282918Y-106036163D01*
X112390102Y-105825802D01*
X112463065Y-105601247D01*
X112500000Y-105368052D01*
X112500000Y-105131947D01*
X116000000Y-105131947D01*
X116000000Y-105368052D01*
X116036934Y-105601247D01*
X116109897Y-105825802D01*
X116217087Y-106036174D01*
X116277338Y-106119104D01*
X116277340Y-106119105D01*
X116976212Y-105420233D01*
X116987482Y-105462292D01*
X117059890Y-105587708D01*
X117162292Y-105690110D01*
X117287708Y-105762518D01*
X117329765Y-105773787D01*
X116630893Y-106472658D01*
X116713828Y-106532914D01*
X116924197Y-106640102D01*
X117148752Y-106713065D01*
X117148751Y-106713065D01*
X117381948Y-106750000D01*
X117618052Y-106750000D01*
X117851247Y-106713065D01*
X118075802Y-106640102D01*
X118286163Y-106532918D01*
X118286169Y-106532914D01*
X118369104Y-106472658D01*
X118369105Y-106472658D01*
X117670233Y-105773787D01*
X117712292Y-105762518D01*
X117837708Y-105690110D01*
X117940110Y-105587708D01*
X118012518Y-105462292D01*
X118023787Y-105420234D01*
X118722658Y-106119105D01*
X118722658Y-106119104D01*
X118782914Y-106036169D01*
X118782918Y-106036163D01*
X118890102Y-105825802D01*
X118963065Y-105601247D01*
X119000000Y-105368052D01*
X119000000Y-105131947D01*
X118963065Y-104898752D01*
X118890102Y-104674197D01*
X118782914Y-104463828D01*
X118722658Y-104380894D01*
X118722658Y-104380893D01*
X118023787Y-105079765D01*
X118012518Y-105037708D01*
X117940110Y-104912292D01*
X117837708Y-104809890D01*
X117712292Y-104737482D01*
X117670234Y-104726212D01*
X118369105Y-104027340D01*
X118369104Y-104027338D01*
X118286174Y-103967087D01*
X118075802Y-103859897D01*
X117851247Y-103786934D01*
X117851248Y-103786934D01*
X117618052Y-103750000D01*
X117381948Y-103750000D01*
X117148752Y-103786934D01*
X116924197Y-103859897D01*
X116713830Y-103967084D01*
X116630894Y-104027340D01*
X117329766Y-104726212D01*
X117287708Y-104737482D01*
X117162292Y-104809890D01*
X117059890Y-104912292D01*
X116987482Y-105037708D01*
X116976212Y-105079766D01*
X116277340Y-104380894D01*
X116217084Y-104463830D01*
X116109897Y-104674197D01*
X116036934Y-104898752D01*
X116000000Y-105131947D01*
X112500000Y-105131947D01*
X112463065Y-104898752D01*
X112390102Y-104674197D01*
X112282914Y-104463828D01*
X112222658Y-104380894D01*
X112222658Y-104380893D01*
X111523787Y-105079765D01*
X111512518Y-105037708D01*
X111440110Y-104912292D01*
X111337708Y-104809890D01*
X111212292Y-104737482D01*
X111170234Y-104726212D01*
X111869105Y-104027340D01*
X111869104Y-104027339D01*
X111786174Y-103967087D01*
X111575802Y-103859897D01*
X111351247Y-103786934D01*
X111351248Y-103786934D01*
X111118052Y-103750000D01*
X110881948Y-103750000D01*
X110648752Y-103786934D01*
X110424197Y-103859897D01*
X110213830Y-103967084D01*
X110130894Y-104027340D01*
X110829766Y-104726212D01*
X110787708Y-104737482D01*
X110662292Y-104809890D01*
X110559890Y-104912292D01*
X110487482Y-105037708D01*
X110476212Y-105079766D01*
X109777340Y-104380894D01*
X109717084Y-104463830D01*
X109609897Y-104674197D01*
X109536934Y-104898752D01*
X109500000Y-105131947D01*
X103732493Y-105131947D01*
X103431619Y-104831073D01*
X103398134Y-104769750D01*
X103395300Y-104743392D01*
X103395300Y-104615656D01*
X103356852Y-104422370D01*
X103356851Y-104422369D01*
X103356851Y-104422365D01*
X103356849Y-104422360D01*
X103281435Y-104240292D01*
X103281425Y-104240274D01*
X103216757Y-104143491D01*
X103216756Y-104143490D01*
X103171939Y-104076418D01*
X103171936Y-104076414D01*
X103032585Y-103937063D01*
X103032581Y-103937060D01*
X102868720Y-103827571D01*
X102868707Y-103827564D01*
X102686639Y-103752150D01*
X102686629Y-103752147D01*
X102493343Y-103713700D01*
X102493341Y-103713700D01*
X102296259Y-103713700D01*
X102296257Y-103713700D01*
X102102970Y-103752147D01*
X102102960Y-103752150D01*
X101920892Y-103827564D01*
X101920879Y-103827571D01*
X101757018Y-103937060D01*
X101757014Y-103937063D01*
X101617663Y-104076414D01*
X101617660Y-104076418D01*
X101508171Y-104240279D01*
X101508166Y-104240289D01*
X101452137Y-104375556D01*
X101408296Y-104429959D01*
X101342002Y-104452024D01*
X101274302Y-104434745D01*
X101237258Y-104400988D01*
X101222658Y-104380894D01*
X101222658Y-104380893D01*
X100523787Y-105079765D01*
X100512518Y-105037708D01*
X100440110Y-104912292D01*
X100337708Y-104809890D01*
X100212292Y-104737482D01*
X100170234Y-104726212D01*
X100869105Y-104027340D01*
X100869104Y-104027338D01*
X100786174Y-103967087D01*
X100575802Y-103859897D01*
X100351247Y-103786934D01*
X100351248Y-103786934D01*
X100118052Y-103750000D01*
X99881948Y-103750000D01*
X99648752Y-103786934D01*
X99424197Y-103859897D01*
X99213830Y-103967084D01*
X99130894Y-104027340D01*
X99829766Y-104726212D01*
X99787708Y-104737482D01*
X99662292Y-104809890D01*
X99559890Y-104912292D01*
X99487482Y-105037708D01*
X99476212Y-105079766D01*
X98777340Y-104380894D01*
X98717084Y-104463830D01*
X98609897Y-104674197D01*
X98536934Y-104898752D01*
X98500000Y-105131947D01*
X98500000Y-105368052D01*
X98536934Y-105601247D01*
X98609897Y-105825802D01*
X98717087Y-106036174D01*
X98777338Y-106119104D01*
X98777340Y-106119105D01*
X99476212Y-105420233D01*
X99487482Y-105462292D01*
X99559890Y-105587708D01*
X99662292Y-105690110D01*
X99787708Y-105762518D01*
X99829765Y-105773787D01*
X99130893Y-106472658D01*
X99213828Y-106532914D01*
X99424197Y-106640102D01*
X99648752Y-106713065D01*
X99648751Y-106713065D01*
X99881948Y-106750000D01*
X100118052Y-106750000D01*
X100351247Y-106713065D01*
X100575802Y-106640102D01*
X100786163Y-106532918D01*
X100786169Y-106532914D01*
X100869104Y-106472658D01*
X100869105Y-106472658D01*
X100170233Y-105773787D01*
X100212292Y-105762518D01*
X100337708Y-105690110D01*
X100440110Y-105587708D01*
X100512518Y-105462292D01*
X100523787Y-105420234D01*
X101222658Y-106119105D01*
X101222658Y-106119104D01*
X101282914Y-106036169D01*
X101282918Y-106036163D01*
X101390102Y-105825802D01*
X101463065Y-105601247D01*
X101463066Y-105601246D01*
X101480214Y-105492974D01*
X101510143Y-105429839D01*
X101569454Y-105392907D01*
X101639316Y-105393905D01*
X101690368Y-105424690D01*
X101757014Y-105491336D01*
X101757018Y-105491339D01*
X101920879Y-105600828D01*
X101920892Y-105600835D01*
X102102960Y-105676249D01*
X102102965Y-105676251D01*
X102102969Y-105676251D01*
X102102970Y-105676252D01*
X102296256Y-105714700D01*
X102296259Y-105714700D01*
X102423992Y-105714700D01*
X102491031Y-105734385D01*
X102511673Y-105751019D01*
X117398473Y-120637819D01*
X117431958Y-120699142D01*
X117426974Y-120768834D01*
X117385102Y-120824767D01*
X117319638Y-120849184D01*
X117310792Y-120849500D01*
X111928592Y-120849500D01*
X111861553Y-120829815D01*
X111818107Y-120781795D01*
X111783342Y-120713566D01*
X111644517Y-120522490D01*
X111477510Y-120355483D01*
X111286433Y-120216657D01*
X111279383Y-120213065D01*
X111075996Y-120109433D01*
X110851368Y-120036446D01*
X110618097Y-119999500D01*
X110618092Y-119999500D01*
X110381908Y-119999500D01*
X110381903Y-119999500D01*
X110148631Y-120036446D01*
X109924003Y-120109433D01*
X109713566Y-120216657D01*
X109667674Y-120250000D01*
X109522490Y-120355483D01*
X109522488Y-120355485D01*
X109522487Y-120355485D01*
X109355485Y-120522487D01*
X109355485Y-120522488D01*
X109355483Y-120522490D01*
X109295862Y-120604550D01*
X109216657Y-120713566D01*
X109181893Y-120781795D01*
X109133918Y-120832591D01*
X109071408Y-120849500D01*
X105428592Y-120849500D01*
X105361553Y-120829815D01*
X105318107Y-120781795D01*
X105283342Y-120713566D01*
X105144517Y-120522490D01*
X104977510Y-120355483D01*
X104786433Y-120216657D01*
X104779383Y-120213065D01*
X104575996Y-120109433D01*
X104351368Y-120036446D01*
X104118097Y-119999500D01*
X104118092Y-119999500D01*
X103881908Y-119999500D01*
X103881903Y-119999500D01*
X103648631Y-120036446D01*
X103424003Y-120109433D01*
X103213566Y-120216657D01*
X103167674Y-120250000D01*
X103022490Y-120355483D01*
X103022488Y-120355485D01*
X103022487Y-120355485D01*
X102855485Y-120522487D01*
X102855485Y-120522488D01*
X102855483Y-120522490D01*
X102795862Y-120604550D01*
X102716657Y-120713566D01*
X102609433Y-120924003D01*
X102536446Y-121148631D01*
X102499500Y-121381902D01*
X102499500Y-121618097D01*
X102536446Y-121851368D01*
X102609433Y-122075996D01*
X102665901Y-122186819D01*
X102716657Y-122286433D01*
X102855483Y-122477510D01*
X103022490Y-122644517D01*
X103213567Y-122783343D01*
X103312991Y-122834002D01*
X103424003Y-122890566D01*
X103424005Y-122890566D01*
X103424008Y-122890568D01*
X103544412Y-122929689D01*
X103648631Y-122963553D01*
X103881903Y-123000500D01*
X103881908Y-123000500D01*
X104118097Y-123000500D01*
X104351368Y-122963553D01*
X104575992Y-122890568D01*
X104786433Y-122783343D01*
X104977510Y-122644517D01*
X105144517Y-122477510D01*
X105283343Y-122286433D01*
X105318107Y-122218205D01*
X105366082Y-122167409D01*
X105428592Y-122150500D01*
X109071408Y-122150500D01*
X109138447Y-122170185D01*
X109181893Y-122218205D01*
X109216657Y-122286433D01*
X109355483Y-122477510D01*
X109522490Y-122644517D01*
X109713567Y-122783343D01*
X109812991Y-122834002D01*
X109924003Y-122890566D01*
X109924005Y-122890566D01*
X109924008Y-122890568D01*
X110044412Y-122929689D01*
X110148631Y-122963553D01*
X110381903Y-123000500D01*
X110381908Y-123000500D01*
X110618097Y-123000500D01*
X110851368Y-122963553D01*
X111075992Y-122890568D01*
X111286433Y-122783343D01*
X111477510Y-122644517D01*
X111644517Y-122477510D01*
X111783343Y-122286433D01*
X111818107Y-122218205D01*
X111866082Y-122167409D01*
X111928592Y-122150500D01*
X121115392Y-122150500D01*
X121182431Y-122170185D01*
X121203073Y-122186819D01*
X123718281Y-124702027D01*
X123751766Y-124763350D01*
X123754600Y-124789708D01*
X123754600Y-124917441D01*
X123754600Y-124917443D01*
X123754599Y-124917443D01*
X123793047Y-125110729D01*
X123793050Y-125110739D01*
X123868464Y-125292807D01*
X123868471Y-125292820D01*
X123977960Y-125456681D01*
X123977963Y-125456685D01*
X124117314Y-125596036D01*
X124117318Y-125596039D01*
X124281179Y-125705528D01*
X124281192Y-125705535D01*
X124421469Y-125763639D01*
X124475873Y-125807480D01*
X124497938Y-125873774D01*
X124480659Y-125941473D01*
X124429522Y-125989084D01*
X124384533Y-125999715D01*
X124384719Y-126001603D01*
X124378656Y-126002199D01*
X124185370Y-126040647D01*
X124185360Y-126040650D01*
X124003292Y-126116064D01*
X124003279Y-126116071D01*
X123839418Y-126225560D01*
X123839414Y-126225563D01*
X123700063Y-126364914D01*
X123700060Y-126364918D01*
X123590571Y-126528779D01*
X123590564Y-126528792D01*
X123515150Y-126710860D01*
X123515147Y-126710870D01*
X123476700Y-126904156D01*
X123476700Y-127031892D01*
X123457015Y-127098931D01*
X123440381Y-127119573D01*
X123246773Y-127313181D01*
X123185450Y-127346666D01*
X123159092Y-127349500D01*
X120932438Y-127349500D01*
X120865399Y-127329815D01*
X120819644Y-127277011D01*
X120809700Y-127207853D01*
X120838725Y-127144297D01*
X120876143Y-127115015D01*
X120938477Y-127083254D01*
X121036433Y-127033343D01*
X121227510Y-126894517D01*
X121394517Y-126727510D01*
X121533343Y-126536433D01*
X121640568Y-126325992D01*
X121713553Y-126101368D01*
X121731337Y-125989084D01*
X121750500Y-125868097D01*
X121750500Y-125631902D01*
X121713553Y-125398631D01*
X121675590Y-125281795D01*
X121640568Y-125174008D01*
X121640566Y-125174005D01*
X121640566Y-125174003D01*
X121533342Y-124963566D01*
X121394517Y-124772490D01*
X121227510Y-124605483D01*
X121036433Y-124466657D01*
X120825996Y-124359433D01*
X120601368Y-124286446D01*
X120368097Y-124249500D01*
X120368092Y-124249500D01*
X120131908Y-124249500D01*
X120131903Y-124249500D01*
X119898631Y-124286446D01*
X119674003Y-124359433D01*
X119463566Y-124466657D01*
X119354550Y-124545862D01*
X119272490Y-124605483D01*
X119272488Y-124605485D01*
X119272487Y-124605485D01*
X119105485Y-124772487D01*
X119105485Y-124772488D01*
X119105483Y-124772490D01*
X119045862Y-124854550D01*
X118966657Y-124963566D01*
X118931893Y-125031795D01*
X118883918Y-125082591D01*
X118821408Y-125099500D01*
X115178592Y-125099500D01*
X115111553Y-125079815D01*
X115068107Y-125031795D01*
X115033342Y-124963566D01*
X114894517Y-124772490D01*
X114727510Y-124605483D01*
X114536433Y-124466657D01*
X114325996Y-124359433D01*
X114101368Y-124286446D01*
X113868097Y-124249500D01*
X113868092Y-124249500D01*
X113631908Y-124249500D01*
X113631903Y-124249500D01*
X113398631Y-124286446D01*
X113174003Y-124359433D01*
X112963566Y-124466657D01*
X112854550Y-124545862D01*
X112772490Y-124605483D01*
X112772488Y-124605485D01*
X112772487Y-124605485D01*
X112605485Y-124772487D01*
X112605485Y-124772488D01*
X112605483Y-124772490D01*
X112545862Y-124854550D01*
X112466657Y-124963566D01*
X112359433Y-125174003D01*
X112286446Y-125398631D01*
X112249500Y-125631902D01*
X112249500Y-125868097D01*
X112286446Y-126101368D01*
X112359433Y-126325996D01*
X112431893Y-126468205D01*
X112466657Y-126536433D01*
X112605483Y-126727510D01*
X112772490Y-126894517D01*
X112963567Y-127033343D01*
X113061523Y-127083254D01*
X113123857Y-127115015D01*
X113174653Y-127162990D01*
X113191448Y-127230811D01*
X113168911Y-127296946D01*
X113114195Y-127340397D01*
X113067562Y-127349500D01*
X103435929Y-127349500D01*
X103310261Y-127374497D01*
X103310255Y-127374499D01*
X103191874Y-127423534D01*
X103085326Y-127494726D01*
X101550193Y-129029859D01*
X101488870Y-129063344D01*
X101424194Y-129060109D01*
X101351370Y-129036447D01*
X101118097Y-128999500D01*
X101118092Y-128999500D01*
X100881908Y-128999500D01*
X100881903Y-128999500D01*
X100648631Y-129036446D01*
X100424003Y-129109433D01*
X100213566Y-129216657D01*
X100104550Y-129295862D01*
X100022490Y-129355483D01*
X100022488Y-129355485D01*
X100022487Y-129355485D01*
X99855485Y-129522487D01*
X99855485Y-129522488D01*
X99855483Y-129522490D01*
X99848723Y-129531795D01*
X99716657Y-129713566D01*
X99681893Y-129781795D01*
X99633918Y-129832591D01*
X99571408Y-129849500D01*
X95928592Y-129849500D01*
X95861553Y-129829815D01*
X95818107Y-129781795D01*
X95783342Y-129713566D01*
X95644517Y-129522490D01*
X95477510Y-129355483D01*
X95286433Y-129216657D01*
X95075996Y-129109433D01*
X94851368Y-129036446D01*
X94618097Y-128999500D01*
X94618092Y-128999500D01*
X94381908Y-128999500D01*
X94381903Y-128999500D01*
X94148631Y-129036446D01*
X93924003Y-129109433D01*
X93713566Y-129216657D01*
X93604550Y-129295862D01*
X93522490Y-129355483D01*
X93522488Y-129355485D01*
X93522487Y-129355485D01*
X93355485Y-129522487D01*
X93355485Y-129522488D01*
X93355483Y-129522490D01*
X93348723Y-129531795D01*
X93216657Y-129713566D01*
X93109433Y-129924003D01*
X93036446Y-130148631D01*
X92999500Y-130381902D01*
X89500500Y-130381902D01*
X89500500Y-125881902D01*
X92999500Y-125881902D01*
X92999500Y-126118097D01*
X93036446Y-126351368D01*
X93109433Y-126575996D01*
X93186635Y-126727512D01*
X93216657Y-126786433D01*
X93355483Y-126977510D01*
X93522490Y-127144517D01*
X93713567Y-127283343D01*
X93812991Y-127334002D01*
X93924003Y-127390566D01*
X93924005Y-127390566D01*
X93924008Y-127390568D01*
X94025467Y-127423534D01*
X94148631Y-127463553D01*
X94381903Y-127500500D01*
X94381908Y-127500500D01*
X94618097Y-127500500D01*
X94851368Y-127463553D01*
X95075992Y-127390568D01*
X95286433Y-127283343D01*
X95477510Y-127144517D01*
X95644517Y-126977510D01*
X95783343Y-126786433D01*
X95818107Y-126718205D01*
X95866082Y-126667409D01*
X95928592Y-126650500D01*
X99571408Y-126650500D01*
X99638447Y-126670185D01*
X99681893Y-126718205D01*
X99716657Y-126786433D01*
X99855483Y-126977510D01*
X100022490Y-127144517D01*
X100213567Y-127283343D01*
X100312991Y-127334002D01*
X100424003Y-127390566D01*
X100424005Y-127390566D01*
X100424008Y-127390568D01*
X100525467Y-127423534D01*
X100648631Y-127463553D01*
X100881903Y-127500500D01*
X100881908Y-127500500D01*
X101118097Y-127500500D01*
X101351368Y-127463553D01*
X101575992Y-127390568D01*
X101786433Y-127283343D01*
X101977510Y-127144517D01*
X102144517Y-126977510D01*
X102283343Y-126786433D01*
X102390568Y-126575992D01*
X102463553Y-126351368D01*
X102500500Y-126118097D01*
X102500500Y-125881902D01*
X102463553Y-125648631D01*
X102390566Y-125424003D01*
X102283342Y-125213566D01*
X102144517Y-125022490D01*
X101977510Y-124855483D01*
X101786433Y-124716657D01*
X101757720Y-124702027D01*
X101575996Y-124609433D01*
X101351368Y-124536446D01*
X101118097Y-124499500D01*
X101118092Y-124499500D01*
X100881908Y-124499500D01*
X100881903Y-124499500D01*
X100648631Y-124536446D01*
X100424003Y-124609433D01*
X100213566Y-124716657D01*
X100113021Y-124789708D01*
X100022490Y-124855483D01*
X100022488Y-124855485D01*
X100022487Y-124855485D01*
X99855485Y-125022487D01*
X99855485Y-125022488D01*
X99855483Y-125022490D01*
X99848723Y-125031795D01*
X99716657Y-125213566D01*
X99681893Y-125281795D01*
X99633918Y-125332591D01*
X99571408Y-125349500D01*
X95928592Y-125349500D01*
X95861553Y-125329815D01*
X95818107Y-125281795D01*
X95783342Y-125213566D01*
X95644517Y-125022490D01*
X95477510Y-124855483D01*
X95286433Y-124716657D01*
X95257720Y-124702027D01*
X95075996Y-124609433D01*
X94851368Y-124536446D01*
X94618097Y-124499500D01*
X94618092Y-124499500D01*
X94381908Y-124499500D01*
X94381903Y-124499500D01*
X94148631Y-124536446D01*
X93924003Y-124609433D01*
X93713566Y-124716657D01*
X93613021Y-124789708D01*
X93522490Y-124855483D01*
X93522488Y-124855485D01*
X93522487Y-124855485D01*
X93355485Y-125022487D01*
X93355485Y-125022488D01*
X93355483Y-125022490D01*
X93348723Y-125031795D01*
X93216657Y-125213566D01*
X93109433Y-125424003D01*
X93036446Y-125648631D01*
X92999500Y-125881902D01*
X89500500Y-125881902D01*
X89500500Y-116881902D01*
X102499500Y-116881902D01*
X102499500Y-117118097D01*
X102536446Y-117351368D01*
X102609433Y-117575996D01*
X102668513Y-117691945D01*
X102716657Y-117786433D01*
X102855483Y-117977510D01*
X103022490Y-118144517D01*
X103213567Y-118283343D01*
X103312991Y-118334002D01*
X103424003Y-118390566D01*
X103424005Y-118390566D01*
X103424008Y-118390568D01*
X103544412Y-118429689D01*
X103648631Y-118463553D01*
X103881903Y-118500500D01*
X103881908Y-118500500D01*
X104118097Y-118500500D01*
X104351368Y-118463553D01*
X104575992Y-118390568D01*
X104786433Y-118283343D01*
X104977510Y-118144517D01*
X105144517Y-117977510D01*
X105283343Y-117786433D01*
X105318107Y-117718205D01*
X105366082Y-117667409D01*
X105428592Y-117650500D01*
X109071408Y-117650500D01*
X109138447Y-117670185D01*
X109181893Y-117718205D01*
X109216657Y-117786433D01*
X109355483Y-117977510D01*
X109522490Y-118144517D01*
X109713567Y-118283343D01*
X109812991Y-118334002D01*
X109924003Y-118390566D01*
X109924005Y-118390566D01*
X109924008Y-118390568D01*
X110044412Y-118429689D01*
X110148631Y-118463553D01*
X110381903Y-118500500D01*
X110381908Y-118500500D01*
X110618097Y-118500500D01*
X110851368Y-118463553D01*
X111075992Y-118390568D01*
X111286433Y-118283343D01*
X111477510Y-118144517D01*
X111644517Y-117977510D01*
X111783343Y-117786433D01*
X111890568Y-117575992D01*
X111963553Y-117351368D01*
X111992465Y-117168825D01*
X112000500Y-117118097D01*
X112000500Y-116881902D01*
X111963553Y-116648631D01*
X111890566Y-116424003D01*
X111783342Y-116213566D01*
X111768630Y-116193317D01*
X111644517Y-116022490D01*
X111477510Y-115855483D01*
X111286433Y-115716657D01*
X111075996Y-115609433D01*
X110851368Y-115536446D01*
X110618097Y-115499500D01*
X110618092Y-115499500D01*
X110381908Y-115499500D01*
X110381903Y-115499500D01*
X110148631Y-115536446D01*
X109924003Y-115609433D01*
X109713566Y-115716657D01*
X109604550Y-115795862D01*
X109522490Y-115855483D01*
X109522488Y-115855485D01*
X109522487Y-115855485D01*
X109355485Y-116022487D01*
X109355485Y-116022488D01*
X109355483Y-116022490D01*
X109295862Y-116104550D01*
X109216657Y-116213566D01*
X109181893Y-116281795D01*
X109133918Y-116332591D01*
X109071408Y-116349500D01*
X105428592Y-116349500D01*
X105361553Y-116329815D01*
X105318107Y-116281795D01*
X105283342Y-116213566D01*
X105268630Y-116193317D01*
X105144517Y-116022490D01*
X104977510Y-115855483D01*
X104786433Y-115716657D01*
X104575996Y-115609433D01*
X104351368Y-115536446D01*
X104118097Y-115499500D01*
X104118092Y-115499500D01*
X103881908Y-115499500D01*
X103881903Y-115499500D01*
X103648631Y-115536446D01*
X103424003Y-115609433D01*
X103213566Y-115716657D01*
X103104550Y-115795862D01*
X103022490Y-115855483D01*
X103022488Y-115855485D01*
X103022487Y-115855485D01*
X102855485Y-116022487D01*
X102855485Y-116022488D01*
X102855483Y-116022490D01*
X102795862Y-116104550D01*
X102716657Y-116213566D01*
X102609433Y-116424003D01*
X102536446Y-116648631D01*
X102499500Y-116881902D01*
X89500500Y-116881902D01*
X89500500Y-109631902D01*
X91999500Y-109631902D01*
X91999500Y-109868097D01*
X92036446Y-110101368D01*
X92109433Y-110325996D01*
X92181893Y-110468205D01*
X92216657Y-110536433D01*
X92355483Y-110727510D01*
X92522490Y-110894517D01*
X92713567Y-111033343D01*
X92812991Y-111084002D01*
X92924003Y-111140566D01*
X92924005Y-111140566D01*
X92924008Y-111140568D01*
X93044412Y-111179689D01*
X93148631Y-111213553D01*
X93381903Y-111250500D01*
X93381908Y-111250500D01*
X93618097Y-111250500D01*
X93851368Y-111213553D01*
X94075992Y-111140568D01*
X94286433Y-111033343D01*
X94477510Y-110894517D01*
X94644517Y-110727510D01*
X94783343Y-110536433D01*
X94818107Y-110468205D01*
X94866082Y-110417409D01*
X94928592Y-110400500D01*
X98571408Y-110400500D01*
X98638447Y-110420185D01*
X98681893Y-110468205D01*
X98716657Y-110536433D01*
X98855483Y-110727510D01*
X99022490Y-110894517D01*
X99213567Y-111033343D01*
X99312991Y-111084002D01*
X99424003Y-111140566D01*
X99424005Y-111140566D01*
X99424008Y-111140568D01*
X99544412Y-111179689D01*
X99648631Y-111213553D01*
X99881903Y-111250500D01*
X99881908Y-111250500D01*
X100118097Y-111250500D01*
X100351368Y-111213553D01*
X100575992Y-111140568D01*
X100786433Y-111033343D01*
X100977510Y-110894517D01*
X101144517Y-110727510D01*
X101283343Y-110536433D01*
X101390568Y-110325992D01*
X101463553Y-110101368D01*
X101500500Y-109868097D01*
X101500500Y-109631902D01*
X101463553Y-109398631D01*
X101417197Y-109255963D01*
X101390568Y-109174008D01*
X101390566Y-109174005D01*
X101390566Y-109174003D01*
X101283342Y-108963566D01*
X101144517Y-108772490D01*
X100977510Y-108605483D01*
X100786433Y-108466657D01*
X100575996Y-108359433D01*
X100351368Y-108286446D01*
X100118097Y-108249500D01*
X100118092Y-108249500D01*
X99881908Y-108249500D01*
X99881903Y-108249500D01*
X99648631Y-108286446D01*
X99424003Y-108359433D01*
X99213566Y-108466657D01*
X99104550Y-108545862D01*
X99022490Y-108605483D01*
X99022488Y-108605485D01*
X99022487Y-108605485D01*
X98855485Y-108772487D01*
X98855485Y-108772488D01*
X98855483Y-108772490D01*
X98795862Y-108854550D01*
X98716657Y-108963566D01*
X98681893Y-109031795D01*
X98633918Y-109082591D01*
X98571408Y-109099500D01*
X94928592Y-109099500D01*
X94861553Y-109079815D01*
X94818107Y-109031795D01*
X94783342Y-108963566D01*
X94644517Y-108772490D01*
X94477510Y-108605483D01*
X94286433Y-108466657D01*
X94075996Y-108359433D01*
X93851368Y-108286446D01*
X93618097Y-108249500D01*
X93618092Y-108249500D01*
X93381908Y-108249500D01*
X93381903Y-108249500D01*
X93148631Y-108286446D01*
X92924003Y-108359433D01*
X92713566Y-108466657D01*
X92604550Y-108545862D01*
X92522490Y-108605483D01*
X92522488Y-108605485D01*
X92522487Y-108605485D01*
X92355485Y-108772487D01*
X92355485Y-108772488D01*
X92355483Y-108772490D01*
X92295862Y-108854550D01*
X92216657Y-108963566D01*
X92109433Y-109174003D01*
X92036446Y-109398631D01*
X91999500Y-109631902D01*
X89500500Y-109631902D01*
X89500500Y-105131947D01*
X92000000Y-105131947D01*
X92000000Y-105368052D01*
X92036934Y-105601247D01*
X92109897Y-105825802D01*
X92217087Y-106036174D01*
X92277338Y-106119104D01*
X92277340Y-106119105D01*
X92976212Y-105420233D01*
X92987482Y-105462292D01*
X93059890Y-105587708D01*
X93162292Y-105690110D01*
X93287708Y-105762518D01*
X93329765Y-105773787D01*
X92630893Y-106472658D01*
X92713828Y-106532914D01*
X92924197Y-106640102D01*
X93148752Y-106713065D01*
X93148751Y-106713065D01*
X93381948Y-106750000D01*
X93618052Y-106750000D01*
X93851247Y-106713065D01*
X94075802Y-106640102D01*
X94286163Y-106532918D01*
X94286169Y-106532914D01*
X94369104Y-106472658D01*
X94369105Y-106472658D01*
X93670233Y-105773787D01*
X93712292Y-105762518D01*
X93837708Y-105690110D01*
X93940110Y-105587708D01*
X94012518Y-105462292D01*
X94023787Y-105420234D01*
X94722658Y-106119105D01*
X94722658Y-106119104D01*
X94782914Y-106036169D01*
X94782918Y-106036163D01*
X94890102Y-105825802D01*
X94963065Y-105601247D01*
X95000000Y-105368052D01*
X95000000Y-105131947D01*
X94963065Y-104898752D01*
X94890102Y-104674197D01*
X94782914Y-104463828D01*
X94722658Y-104380894D01*
X94722658Y-104380893D01*
X94023787Y-105079765D01*
X94012518Y-105037708D01*
X93940110Y-104912292D01*
X93837708Y-104809890D01*
X93712292Y-104737482D01*
X93670234Y-104726212D01*
X94369105Y-104027340D01*
X94369104Y-104027339D01*
X94286174Y-103967087D01*
X94075802Y-103859897D01*
X93851247Y-103786934D01*
X93851248Y-103786934D01*
X93618052Y-103750000D01*
X93381948Y-103750000D01*
X93148752Y-103786934D01*
X92924197Y-103859897D01*
X92713830Y-103967084D01*
X92630894Y-104027340D01*
X93329766Y-104726212D01*
X93287708Y-104737482D01*
X93162292Y-104809890D01*
X93059890Y-104912292D01*
X92987482Y-105037708D01*
X92976212Y-105079766D01*
X92277340Y-104380894D01*
X92217084Y-104463830D01*
X92109897Y-104674197D01*
X92036934Y-104898752D01*
X92000000Y-105131947D01*
X89500500Y-105131947D01*
X89500500Y-98250000D01*
X98081849Y-98250000D01*
X99057749Y-98250000D01*
X99026619Y-98303919D01*
X98992000Y-98433120D01*
X98992000Y-98566880D01*
X99026619Y-98696081D01*
X99057749Y-98750000D01*
X98081849Y-98750000D01*
X98095653Y-98837155D01*
X98095653Y-98837158D01*
X98165683Y-99052688D01*
X98268575Y-99254623D01*
X98401776Y-99437960D01*
X98401780Y-99437965D01*
X98562034Y-99598219D01*
X98562039Y-99598223D01*
X98745376Y-99731424D01*
X98947311Y-99834316D01*
X99162838Y-99904344D01*
X99250000Y-99918149D01*
X99250000Y-98942251D01*
X99303919Y-98973381D01*
X99433120Y-99008000D01*
X99566880Y-99008000D01*
X99696081Y-98973381D01*
X99750000Y-98942251D01*
X99750000Y-99918148D01*
X99837161Y-99904344D01*
X100052688Y-99834316D01*
X100254623Y-99731424D01*
X100437960Y-99598223D01*
X100437965Y-99598219D01*
X100598221Y-99437963D01*
X100669371Y-99340032D01*
X100724701Y-99297365D01*
X100794314Y-99291385D01*
X100856109Y-99323991D01*
X100870008Y-99340031D01*
X100941394Y-99438286D01*
X100941398Y-99438291D01*
X101101708Y-99598601D01*
X101101713Y-99598605D01*
X101252082Y-99707853D01*
X101285118Y-99731855D01*
X101417166Y-99799137D01*
X101487116Y-99834779D01*
X101487119Y-99834780D01*
X101563949Y-99859743D01*
X101702729Y-99904835D01*
X101926646Y-99940300D01*
X101926647Y-99940300D01*
X102153353Y-99940300D01*
X102153354Y-99940300D01*
X102377271Y-99904835D01*
X102592883Y-99834779D01*
X102794882Y-99731855D01*
X102978293Y-99598600D01*
X103138600Y-99438293D01*
X103155831Y-99414575D01*
X103211160Y-99371909D01*
X103280774Y-99365928D01*
X103342569Y-99398533D01*
X103343832Y-99399778D01*
X106327181Y-102383127D01*
X106360666Y-102444450D01*
X106363500Y-102470808D01*
X106363500Y-102598541D01*
X106363500Y-102598543D01*
X106363499Y-102598543D01*
X106401947Y-102791829D01*
X106401950Y-102791839D01*
X106477364Y-102973907D01*
X106477371Y-102973920D01*
X106586860Y-103137781D01*
X106586863Y-103137785D01*
X106726214Y-103277136D01*
X106726218Y-103277139D01*
X106890079Y-103386628D01*
X106890092Y-103386635D01*
X107072160Y-103462049D01*
X107072165Y-103462051D01*
X107072169Y-103462051D01*
X107072170Y-103462052D01*
X107265456Y-103500500D01*
X107265459Y-103500500D01*
X107462543Y-103500500D01*
X107592582Y-103474632D01*
X107655835Y-103462051D01*
X107837914Y-103386632D01*
X108001782Y-103277139D01*
X108141139Y-103137782D01*
X108250632Y-102973914D01*
X108326051Y-102791835D01*
X108364500Y-102598541D01*
X108364500Y-102401459D01*
X108364500Y-102401456D01*
X108326052Y-102208170D01*
X108326051Y-102208169D01*
X108326051Y-102208165D01*
X108270415Y-102073847D01*
X108250635Y-102026092D01*
X108250628Y-102026079D01*
X108141139Y-101862218D01*
X108141136Y-101862214D01*
X108001785Y-101722863D01*
X108001781Y-101722860D01*
X107837920Y-101613371D01*
X107837907Y-101613364D01*
X107655839Y-101537950D01*
X107655829Y-101537947D01*
X107462543Y-101499500D01*
X107462541Y-101499500D01*
X107334808Y-101499500D01*
X107267769Y-101479815D01*
X107247127Y-101463181D01*
X103778674Y-97994727D01*
X103778673Y-97994726D01*
X103774593Y-97992000D01*
X103707711Y-97947311D01*
X103672125Y-97923533D01*
X103553747Y-97874500D01*
X103553738Y-97874497D01*
X103553596Y-97874469D01*
X103553596Y-97874468D01*
X103428071Y-97849500D01*
X103428069Y-97849500D01*
X103401028Y-97849500D01*
X103333989Y-97829815D01*
X103290544Y-97781795D01*
X103271856Y-97745119D01*
X103271855Y-97745118D01*
X103138605Y-97561713D01*
X103138601Y-97561708D01*
X102978291Y-97401398D01*
X102978286Y-97401394D01*
X102794885Y-97268147D01*
X102794884Y-97268146D01*
X102794882Y-97268145D01*
X102730166Y-97235170D01*
X102592883Y-97165220D01*
X102592880Y-97165219D01*
X102377272Y-97095165D01*
X102198213Y-97066805D01*
X102153354Y-97059700D01*
X101926646Y-97059700D01*
X101881787Y-97066805D01*
X101702727Y-97095165D01*
X101487119Y-97165219D01*
X101487116Y-97165220D01*
X101285114Y-97268147D01*
X101101713Y-97401394D01*
X101101708Y-97401398D01*
X100941398Y-97561708D01*
X100941394Y-97561713D01*
X100870008Y-97659968D01*
X100814678Y-97702634D01*
X100745065Y-97708613D01*
X100683270Y-97676007D01*
X100669371Y-97659968D01*
X100598217Y-97562032D01*
X100437965Y-97401780D01*
X100437960Y-97401776D01*
X100254623Y-97268575D01*
X100052688Y-97165683D01*
X99837156Y-97095653D01*
X99750000Y-97081848D01*
X99750000Y-98057748D01*
X99696081Y-98026619D01*
X99566880Y-97992000D01*
X99433120Y-97992000D01*
X99303919Y-98026619D01*
X99250000Y-98057748D01*
X99250000Y-97081848D01*
X99162844Y-97095653D01*
X99162841Y-97095653D01*
X98947311Y-97165683D01*
X98745376Y-97268575D01*
X98562039Y-97401776D01*
X98562034Y-97401780D01*
X98401780Y-97562034D01*
X98401776Y-97562039D01*
X98268575Y-97745376D01*
X98165683Y-97947311D01*
X98095653Y-98162841D01*
X98095653Y-98162844D01*
X98081849Y-98250000D01*
X89500500Y-98250000D01*
X89500500Y-65002561D01*
X89500606Y-64997437D01*
X89507539Y-64829815D01*
X89519072Y-64550961D01*
X89519915Y-64540792D01*
X89574874Y-64099881D01*
X89576554Y-64089809D01*
X89667734Y-63654950D01*
X89670241Y-63645054D01*
X89797021Y-63219205D01*
X89800336Y-63209553D01*
X89936900Y-62859568D01*
X91499500Y-62859568D01*
X91499500Y-63140431D01*
X91530942Y-63419494D01*
X91530945Y-63419512D01*
X91593439Y-63693317D01*
X91593443Y-63693329D01*
X91686200Y-63958411D01*
X91808053Y-64211442D01*
X91808055Y-64211445D01*
X91957477Y-64449248D01*
X92132584Y-64668825D01*
X92331175Y-64867416D01*
X92550752Y-65042523D01*
X92788555Y-65191945D01*
X93041592Y-65313801D01*
X93222970Y-65377268D01*
X93306670Y-65406556D01*
X93306682Y-65406560D01*
X93580491Y-65469055D01*
X93580497Y-65469055D01*
X93580505Y-65469057D01*
X93733208Y-65486262D01*
X93859569Y-65500499D01*
X93859572Y-65500500D01*
X93859575Y-65500500D01*
X94140428Y-65500500D01*
X94140429Y-65500499D01*
X94283055Y-65484429D01*
X94419494Y-65469057D01*
X94419499Y-65469056D01*
X94419509Y-65469055D01*
X94693318Y-65406560D01*
X94958408Y-65313801D01*
X95211445Y-65191945D01*
X95449248Y-65042523D01*
X95668825Y-64867416D01*
X95867416Y-64668825D01*
X96042523Y-64449248D01*
X96191945Y-64211445D01*
X96313801Y-63958408D01*
X96406560Y-63693318D01*
X96469055Y-63419509D01*
X96472286Y-63390839D01*
X96486554Y-63264200D01*
X96500500Y-63140425D01*
X96500500Y-62859575D01*
X96469055Y-62580491D01*
X96406560Y-62306682D01*
X96313801Y-62041592D01*
X96191945Y-61788555D01*
X96042523Y-61550752D01*
X95867416Y-61331175D01*
X95668825Y-61132584D01*
X95449248Y-60957477D01*
X95211445Y-60808055D01*
X95211442Y-60808053D01*
X94958411Y-60686200D01*
X94693329Y-60593443D01*
X94693317Y-60593439D01*
X94419512Y-60530945D01*
X94419494Y-60530942D01*
X94140431Y-60499500D01*
X94140425Y-60499500D01*
X93859575Y-60499500D01*
X93859568Y-60499500D01*
X93580505Y-60530942D01*
X93580487Y-60530945D01*
X93306682Y-60593439D01*
X93306670Y-60593443D01*
X93041588Y-60686200D01*
X92788557Y-60808053D01*
X92550753Y-60957476D01*
X92331175Y-61132583D01*
X92132583Y-61331175D01*
X91957476Y-61550753D01*
X91808053Y-61788557D01*
X91686200Y-62041588D01*
X91593443Y-62306670D01*
X91593439Y-62306682D01*
X91530945Y-62580487D01*
X91530942Y-62580505D01*
X91499500Y-62859568D01*
X89936900Y-62859568D01*
X89961846Y-62795637D01*
X89965958Y-62786265D01*
X90098494Y-62515159D01*
X90161080Y-62387137D01*
X90165953Y-62378131D01*
X90393389Y-61996444D01*
X90398982Y-61987884D01*
X90657152Y-61626294D01*
X90663420Y-61618240D01*
X90950581Y-61279191D01*
X90957500Y-61271675D01*
X91271675Y-60957500D01*
X91279191Y-60950581D01*
X91618240Y-60663420D01*
X91626294Y-60657152D01*
X91987884Y-60398982D01*
X91996444Y-60393389D01*
X92378139Y-60165948D01*
X92387137Y-60161080D01*
X92786268Y-59965956D01*
X92795650Y-59961841D01*
X93209553Y-59800336D01*
X93219205Y-59797021D01*
X93645054Y-59670241D01*
X93654950Y-59667734D01*
X94089809Y-59576554D01*
X94099881Y-59574874D01*
X94540792Y-59519915D01*
X94550961Y-59519072D01*
X94997437Y-59500605D01*
X95002561Y-59500500D01*
X95065892Y-59500500D01*
X151434108Y-59500500D01*
X151497439Y-59500500D01*
X151502562Y-59500605D01*
G37*
%TD.AperFunction*%
%TA.AperFunction,Conductor*%
G36*
X125739587Y-87630185D02*
G01*
X125785342Y-87682989D01*
X125795286Y-87752147D01*
X125766261Y-87815703D01*
X125738520Y-87839494D01*
X125550753Y-87957476D01*
X125331175Y-88132583D01*
X125132583Y-88331175D01*
X124957476Y-88550753D01*
X124808053Y-88788557D01*
X124686200Y-89041588D01*
X124593443Y-89306670D01*
X124593439Y-89306682D01*
X124530945Y-89580487D01*
X124530942Y-89580505D01*
X124499500Y-89859568D01*
X124499500Y-90140431D01*
X124530942Y-90419494D01*
X124530945Y-90419512D01*
X124593439Y-90693317D01*
X124593443Y-90693329D01*
X124686200Y-90958411D01*
X124808053Y-91211442D01*
X124808055Y-91211445D01*
X124957477Y-91449248D01*
X125132584Y-91668825D01*
X125331175Y-91867416D01*
X125550752Y-92042523D01*
X125788555Y-92191945D01*
X126041592Y-92313801D01*
X126177531Y-92361368D01*
X126306670Y-92406556D01*
X126306682Y-92406560D01*
X126580491Y-92469055D01*
X126580497Y-92469055D01*
X126580505Y-92469057D01*
X126766547Y-92490018D01*
X126859569Y-92500499D01*
X126859572Y-92500500D01*
X126859575Y-92500500D01*
X127140428Y-92500500D01*
X127140429Y-92500499D01*
X127315402Y-92480785D01*
X127419494Y-92469057D01*
X127419499Y-92469056D01*
X127419509Y-92469055D01*
X127693318Y-92406560D01*
X127958408Y-92313801D01*
X128211445Y-92191945D01*
X128449248Y-92042523D01*
X128668825Y-91867416D01*
X128867416Y-91668825D01*
X129042523Y-91449248D01*
X129191945Y-91211445D01*
X129313801Y-90958408D01*
X129406560Y-90693318D01*
X129469055Y-90419509D01*
X129474127Y-90374499D01*
X129484720Y-90280476D01*
X129500500Y-90140425D01*
X129500500Y-89859575D01*
X129489779Y-89764421D01*
X129469057Y-89580505D01*
X129469054Y-89580487D01*
X129444729Y-89473914D01*
X129406560Y-89306682D01*
X129396222Y-89277139D01*
X129371740Y-89207173D01*
X129313801Y-89041592D01*
X129194818Y-88794520D01*
X129191946Y-88788557D01*
X129185485Y-88778274D01*
X129042523Y-88550752D01*
X128867416Y-88331175D01*
X128668825Y-88132584D01*
X128636890Y-88107117D01*
X128550158Y-88037950D01*
X128449248Y-87957477D01*
X128261480Y-87839494D01*
X128215189Y-87787159D01*
X128204541Y-87718106D01*
X128232916Y-87654257D01*
X128291306Y-87615885D01*
X128327452Y-87610500D01*
X129831192Y-87610500D01*
X129898231Y-87630185D01*
X129918873Y-87646819D01*
X136946873Y-94674819D01*
X136980358Y-94736142D01*
X136975374Y-94805834D01*
X136933502Y-94861767D01*
X136868038Y-94886184D01*
X136859192Y-94886500D01*
X134727700Y-94886500D01*
X134660661Y-94866815D01*
X134614906Y-94814011D01*
X134603700Y-94762500D01*
X134603700Y-94709656D01*
X134565252Y-94516370D01*
X134565251Y-94516369D01*
X134565251Y-94516365D01*
X134554614Y-94490684D01*
X134489835Y-94334292D01*
X134489828Y-94334279D01*
X134380339Y-94170418D01*
X134380336Y-94170414D01*
X134240985Y-94031063D01*
X134240981Y-94031060D01*
X134077120Y-93921571D01*
X134077107Y-93921564D01*
X133895039Y-93846150D01*
X133895029Y-93846147D01*
X133701743Y-93807700D01*
X133701741Y-93807700D01*
X133504659Y-93807700D01*
X133504657Y-93807700D01*
X133311370Y-93846147D01*
X133311360Y-93846150D01*
X133129292Y-93921564D01*
X133129279Y-93921571D01*
X132965418Y-94031060D01*
X132965414Y-94031063D01*
X132826063Y-94170414D01*
X132826060Y-94170418D01*
X132716571Y-94334279D01*
X132716564Y-94334292D01*
X132641150Y-94516360D01*
X132641147Y-94516370D01*
X132602700Y-94709656D01*
X132602700Y-94709659D01*
X132602700Y-94906741D01*
X132602700Y-94906743D01*
X132602699Y-94906743D01*
X132641147Y-95100029D01*
X132641150Y-95100039D01*
X132716564Y-95282107D01*
X132716571Y-95282120D01*
X132826060Y-95445981D01*
X132826063Y-95445985D01*
X132965414Y-95585336D01*
X132965418Y-95585339D01*
X133129279Y-95694828D01*
X133129292Y-95694835D01*
X133311360Y-95770249D01*
X133311365Y-95770251D01*
X133311369Y-95770251D01*
X133311370Y-95770252D01*
X133504656Y-95808700D01*
X133504659Y-95808700D01*
X133632392Y-95808700D01*
X133699431Y-95828385D01*
X133720073Y-95845019D01*
X133917325Y-96042272D01*
X133917332Y-96042278D01*
X134002048Y-96098883D01*
X134002049Y-96098883D01*
X134023873Y-96113465D01*
X134142256Y-96162501D01*
X134142260Y-96162501D01*
X134142261Y-96162502D01*
X134267928Y-96187500D01*
X134267931Y-96187500D01*
X147160016Y-96187500D01*
X147227055Y-96207185D01*
X147247697Y-96223819D01*
X147262114Y-96238236D01*
X147262118Y-96238239D01*
X147425979Y-96347728D01*
X147425992Y-96347735D01*
X147608060Y-96423149D01*
X147608065Y-96423151D01*
X147608069Y-96423151D01*
X147608070Y-96423152D01*
X147801356Y-96461600D01*
X147801359Y-96461600D01*
X147998443Y-96461600D01*
X148128482Y-96435732D01*
X148191735Y-96423151D01*
X148373814Y-96347732D01*
X148537682Y-96238239D01*
X148677039Y-96098882D01*
X148786532Y-95935014D01*
X148861951Y-95752935D01*
X148874532Y-95689682D01*
X148900400Y-95559643D01*
X148900400Y-95362556D01*
X148861952Y-95169270D01*
X148861951Y-95169269D01*
X148861951Y-95169265D01*
X148833273Y-95100029D01*
X148786535Y-94987192D01*
X148786528Y-94987179D01*
X148677039Y-94823318D01*
X148677036Y-94823314D01*
X148537685Y-94683963D01*
X148537681Y-94683960D01*
X148533950Y-94681467D01*
X148489145Y-94627855D01*
X148480438Y-94558530D01*
X148510593Y-94495502D01*
X148515141Y-94490703D01*
X148837223Y-94168621D01*
X148898544Y-94135138D01*
X148968236Y-94140122D01*
X148972327Y-94141732D01*
X149137265Y-94210051D01*
X149137269Y-94210051D01*
X149137270Y-94210052D01*
X149330556Y-94248500D01*
X149330559Y-94248500D01*
X149527643Y-94248500D01*
X149657682Y-94222632D01*
X149720935Y-94210051D01*
X149866680Y-94149682D01*
X149903007Y-94134635D01*
X149903007Y-94134634D01*
X149903014Y-94134632D01*
X150066882Y-94025139D01*
X150202933Y-93889087D01*
X150264254Y-93855604D01*
X150333946Y-93860588D01*
X150389880Y-93902459D01*
X150390931Y-93903885D01*
X150401394Y-93918286D01*
X150401398Y-93918291D01*
X150561708Y-94078601D01*
X150561713Y-94078605D01*
X150659542Y-94149682D01*
X150702208Y-94205012D01*
X150708187Y-94274625D01*
X150675582Y-94336420D01*
X150659542Y-94350318D01*
X150561713Y-94421394D01*
X150561708Y-94421398D01*
X150401398Y-94581708D01*
X150401394Y-94581713D01*
X150268147Y-94765114D01*
X150165220Y-94967116D01*
X150165219Y-94967119D01*
X150095165Y-95182727D01*
X150059700Y-95406646D01*
X150059700Y-95633353D01*
X150095165Y-95857272D01*
X150165219Y-96072880D01*
X150165220Y-96072882D01*
X150185899Y-96113466D01*
X150249474Y-96238239D01*
X150268147Y-96274885D01*
X150401394Y-96458286D01*
X150401398Y-96458291D01*
X150561708Y-96618601D01*
X150561713Y-96618605D01*
X150659542Y-96689682D01*
X150702208Y-96745012D01*
X150708187Y-96814625D01*
X150675582Y-96876420D01*
X150659542Y-96890318D01*
X150561713Y-96961394D01*
X150561708Y-96961398D01*
X150401398Y-97121708D01*
X150401394Y-97121713D01*
X150268147Y-97305114D01*
X150165220Y-97507116D01*
X150165219Y-97507119D01*
X150095165Y-97722727D01*
X150075086Y-97849500D01*
X150059700Y-97946646D01*
X150059700Y-98173354D01*
X150071840Y-98250000D01*
X150095165Y-98397272D01*
X150165219Y-98612880D01*
X150165220Y-98612883D01*
X150268147Y-98814885D01*
X150401394Y-98998286D01*
X150401398Y-98998291D01*
X150561708Y-99158601D01*
X150561713Y-99158605D01*
X150577652Y-99170185D01*
X150745118Y-99291855D01*
X150877166Y-99359137D01*
X150947116Y-99394779D01*
X150947119Y-99394780D01*
X151162719Y-99464832D01*
X151162720Y-99464832D01*
X151162729Y-99464835D01*
X151166305Y-99465401D01*
X151229438Y-99495322D01*
X151266376Y-99554629D01*
X151265386Y-99624492D01*
X151234597Y-99675556D01*
X150315273Y-100594881D01*
X150253950Y-100628366D01*
X150227592Y-100631200D01*
X138347349Y-100631200D01*
X138299896Y-100621761D01*
X138222009Y-100589499D01*
X138222003Y-100589497D01*
X138096336Y-100564500D01*
X138096334Y-100564500D01*
X136903666Y-100564500D01*
X136903664Y-100564500D01*
X136777996Y-100589497D01*
X136777990Y-100589499D01*
X136700104Y-100621761D01*
X136652651Y-100631200D01*
X135135884Y-100631200D01*
X135068845Y-100611515D01*
X135023090Y-100558711D01*
X135013146Y-100489553D01*
X135042171Y-100425997D01*
X135048203Y-100419519D01*
X135068736Y-100398985D01*
X135068739Y-100398982D01*
X135178232Y-100235114D01*
X135189393Y-100208170D01*
X135253649Y-100053039D01*
X135253651Y-100053035D01*
X135283130Y-99904835D01*
X135292100Y-99859743D01*
X135292100Y-99662656D01*
X135253652Y-99469370D01*
X135253651Y-99469369D01*
X135253651Y-99469365D01*
X135250622Y-99462052D01*
X135178235Y-99287292D01*
X135178228Y-99287279D01*
X135068739Y-99123418D01*
X135068736Y-99123414D01*
X134929385Y-98984063D01*
X134929381Y-98984060D01*
X134765520Y-98874571D01*
X134765507Y-98874564D01*
X134583439Y-98799150D01*
X134583429Y-98799147D01*
X134390143Y-98760700D01*
X134390141Y-98760700D01*
X134193059Y-98760700D01*
X134193057Y-98760700D01*
X133999770Y-98799147D01*
X133999760Y-98799150D01*
X133817692Y-98874564D01*
X133817679Y-98874571D01*
X133653819Y-98984059D01*
X133629879Y-99008000D01*
X133563496Y-99074382D01*
X133502176Y-99107866D01*
X133475817Y-99110700D01*
X111236907Y-99110700D01*
X111169868Y-99091015D01*
X111149226Y-99074381D01*
X107673388Y-95598543D01*
X114499499Y-95598543D01*
X114537947Y-95791829D01*
X114537950Y-95791839D01*
X114613364Y-95973907D01*
X114613371Y-95973920D01*
X114722860Y-96137781D01*
X114722863Y-96137785D01*
X114862214Y-96277136D01*
X114862218Y-96277139D01*
X115026079Y-96386628D01*
X115026092Y-96386635D01*
X115199075Y-96458286D01*
X115208165Y-96462051D01*
X115208169Y-96462051D01*
X115208170Y-96462052D01*
X115401456Y-96500500D01*
X115401459Y-96500500D01*
X115598543Y-96500500D01*
X115728582Y-96474632D01*
X115791835Y-96462051D01*
X115973914Y-96386632D01*
X116137782Y-96277139D01*
X116228103Y-96186817D01*
X116289424Y-96153334D01*
X116315783Y-96150500D01*
X121564071Y-96150500D01*
X121648615Y-96133682D01*
X121689744Y-96125501D01*
X121808127Y-96076465D01*
X121812132Y-96073788D01*
X121813490Y-96072882D01*
X121859301Y-96042272D01*
X121914669Y-96005277D01*
X123005277Y-94914669D01*
X123076466Y-94808126D01*
X123125501Y-94689743D01*
X123140694Y-94613368D01*
X123150500Y-94564069D01*
X123150500Y-89815783D01*
X123170185Y-89748744D01*
X123186814Y-89728106D01*
X123277139Y-89637782D01*
X123386632Y-89473914D01*
X123462051Y-89291835D01*
X123478892Y-89207173D01*
X123500500Y-89098543D01*
X123500500Y-88901456D01*
X123462052Y-88708170D01*
X123462051Y-88708169D01*
X123462051Y-88708165D01*
X123452604Y-88685357D01*
X123386635Y-88526092D01*
X123386628Y-88526079D01*
X123277139Y-88362218D01*
X123277136Y-88362214D01*
X123137785Y-88222863D01*
X123137781Y-88222860D01*
X122973920Y-88113371D01*
X122973907Y-88113364D01*
X122791839Y-88037950D01*
X122791829Y-88037947D01*
X122598543Y-87999500D01*
X122598541Y-87999500D01*
X122401459Y-87999500D01*
X122401457Y-87999500D01*
X122208170Y-88037947D01*
X122208160Y-88037950D01*
X122026092Y-88113364D01*
X122026079Y-88113371D01*
X121862218Y-88222860D01*
X121862214Y-88222863D01*
X121722863Y-88362214D01*
X121722860Y-88362218D01*
X121613371Y-88526079D01*
X121613364Y-88526092D01*
X121537950Y-88708160D01*
X121537947Y-88708170D01*
X121499500Y-88901456D01*
X121499500Y-88901459D01*
X121499500Y-89098541D01*
X121499500Y-89098543D01*
X121499499Y-89098543D01*
X121537947Y-89291829D01*
X121537950Y-89291839D01*
X121613364Y-89473907D01*
X121613371Y-89473920D01*
X121722859Y-89637780D01*
X121722860Y-89637781D01*
X121722861Y-89637782D01*
X121813182Y-89728103D01*
X121846666Y-89789424D01*
X121849500Y-89815783D01*
X121849500Y-94179192D01*
X121829815Y-94246231D01*
X121813181Y-94266873D01*
X121266873Y-94813181D01*
X121205550Y-94846666D01*
X121179192Y-94849500D01*
X116315783Y-94849500D01*
X116248744Y-94829815D01*
X116228106Y-94813185D01*
X116137782Y-94722861D01*
X116137781Y-94722860D01*
X116137780Y-94722859D01*
X115973916Y-94613369D01*
X115973907Y-94613364D01*
X115791839Y-94537950D01*
X115791829Y-94537947D01*
X115598543Y-94499500D01*
X115598541Y-94499500D01*
X115401459Y-94499500D01*
X115401457Y-94499500D01*
X115208170Y-94537947D01*
X115208160Y-94537950D01*
X115026092Y-94613364D01*
X115026084Y-94613369D01*
X114862218Y-94722860D01*
X114862214Y-94722863D01*
X114722863Y-94862214D01*
X114722860Y-94862218D01*
X114613371Y-95026079D01*
X114613364Y-95026092D01*
X114537950Y-95208160D01*
X114537947Y-95208170D01*
X114499500Y-95401456D01*
X114499500Y-95401459D01*
X114499500Y-95598541D01*
X114499500Y-95598543D01*
X114499499Y-95598543D01*
X107673388Y-95598543D01*
X105126416Y-93051571D01*
X105092931Y-92990248D01*
X105097915Y-92920556D01*
X105139787Y-92864623D01*
X105205251Y-92840206D01*
X105238290Y-92842273D01*
X105244458Y-92843500D01*
X105244459Y-92843500D01*
X105441543Y-92843500D01*
X105571582Y-92817632D01*
X105634835Y-92805051D01*
X105816914Y-92729632D01*
X105980782Y-92620139D01*
X106120139Y-92480782D01*
X106229632Y-92316914D01*
X106229635Y-92316907D01*
X106240780Y-92290000D01*
X113424016Y-92290000D01*
X113430781Y-92332716D01*
X113491581Y-92519837D01*
X113580904Y-92695143D01*
X113696555Y-92854321D01*
X113835678Y-92993444D01*
X113994856Y-93109095D01*
X114170164Y-93198418D01*
X114357294Y-93259221D01*
X114551618Y-93290000D01*
X114850000Y-93290000D01*
X114850000Y-92290000D01*
X113424016Y-92290000D01*
X106240780Y-92290000D01*
X106275788Y-92205484D01*
X106303567Y-92138417D01*
X106305051Y-92134835D01*
X106343500Y-91941541D01*
X106343500Y-91813808D01*
X106352144Y-91784367D01*
X106358668Y-91754381D01*
X106362422Y-91749365D01*
X106363185Y-91746769D01*
X106379819Y-91726127D01*
X106419127Y-91686819D01*
X106480450Y-91653334D01*
X106506808Y-91650500D01*
X111564071Y-91650500D01*
X111648615Y-91633682D01*
X111689744Y-91625501D01*
X111808127Y-91576465D01*
X111810073Y-91575165D01*
X111914669Y-91505277D01*
X112513619Y-90906327D01*
X112574942Y-90872842D01*
X112601300Y-90870008D01*
X112844563Y-90870008D01*
X112929107Y-90853190D01*
X112970236Y-90845009D01*
X113088619Y-90795973D01*
X113111623Y-90780602D01*
X113119257Y-90775502D01*
X113156675Y-90750500D01*
X113195161Y-90724785D01*
X113355276Y-90564669D01*
X113426465Y-90458127D01*
X113475501Y-90339744D01*
X113475502Y-90339734D01*
X113477514Y-90334879D01*
X113521355Y-90280476D01*
X113587649Y-90258410D01*
X113655348Y-90275689D01*
X113692393Y-90309445D01*
X113696172Y-90314646D01*
X113835354Y-90453828D01*
X113942455Y-90531642D01*
X113994596Y-90569525D01*
X114171763Y-90659795D01*
X114222560Y-90707769D01*
X114239355Y-90775590D01*
X114216818Y-90841725D01*
X114171764Y-90880765D01*
X113994856Y-90970904D01*
X113835678Y-91086555D01*
X113696555Y-91225678D01*
X113580904Y-91384856D01*
X113491581Y-91560162D01*
X113430781Y-91747283D01*
X113424016Y-91790000D01*
X114976000Y-91790000D01*
X115043039Y-91809685D01*
X115050590Y-91818400D01*
X115034075Y-91847007D01*
X115000000Y-91974174D01*
X115000000Y-92105826D01*
X115034075Y-92232993D01*
X115099901Y-92347007D01*
X115192993Y-92440099D01*
X115307007Y-92505925D01*
X115350000Y-92517445D01*
X115350000Y-93290000D01*
X115648382Y-93290000D01*
X115842705Y-93259221D01*
X116029835Y-93198418D01*
X116205143Y-93109095D01*
X116364321Y-92993444D01*
X116503444Y-92854321D01*
X116619097Y-92695141D01*
X116659234Y-92616367D01*
X116707208Y-92565571D01*
X116775029Y-92548775D01*
X116841164Y-92571312D01*
X116880203Y-92616365D01*
X116920476Y-92695405D01*
X117036172Y-92854646D01*
X117175354Y-92993828D01*
X117334595Y-93109524D01*
X117385922Y-93135676D01*
X117509970Y-93198882D01*
X117509972Y-93198882D01*
X117509975Y-93198884D01*
X117600748Y-93228378D01*
X117697173Y-93259709D01*
X117891578Y-93290500D01*
X117891583Y-93290500D01*
X118988422Y-93290500D01*
X119182826Y-93259709D01*
X119184328Y-93259221D01*
X119370025Y-93198884D01*
X119545405Y-93109524D01*
X119704646Y-92993828D01*
X119843828Y-92854646D01*
X119959524Y-92695405D01*
X120048884Y-92520025D01*
X120109709Y-92332826D01*
X120109726Y-92332716D01*
X120140500Y-92138422D01*
X120140500Y-91941577D01*
X120109709Y-91747173D01*
X120079218Y-91653334D01*
X120048884Y-91559975D01*
X120048882Y-91559972D01*
X120048882Y-91559970D01*
X119962619Y-91390670D01*
X119959524Y-91384595D01*
X119843828Y-91225354D01*
X119704646Y-91086172D01*
X119591435Y-91003919D01*
X119545403Y-90970474D01*
X119368787Y-90880485D01*
X119317990Y-90832511D01*
X119301195Y-90764690D01*
X119323732Y-90698555D01*
X119368787Y-90659515D01*
X119545403Y-90569525D01*
X119545402Y-90569525D01*
X119545405Y-90569524D01*
X119704646Y-90453828D01*
X119843828Y-90314646D01*
X119959524Y-90155405D01*
X120048884Y-89980025D01*
X120109709Y-89792826D01*
X120116691Y-89748744D01*
X120140500Y-89598422D01*
X120140500Y-89401577D01*
X120109709Y-89207173D01*
X120065035Y-89069682D01*
X120048884Y-89019975D01*
X120048882Y-89019972D01*
X120048882Y-89019970D01*
X119988496Y-88901456D01*
X119959524Y-88844595D01*
X119843828Y-88685354D01*
X119704646Y-88546172D01*
X119596707Y-88467749D01*
X119545403Y-88430474D01*
X119368787Y-88340485D01*
X119317990Y-88292511D01*
X119301195Y-88224690D01*
X119323732Y-88158555D01*
X119368787Y-88119515D01*
X119545403Y-88029525D01*
X119545402Y-88029525D01*
X119545405Y-88029524D01*
X119704646Y-87913828D01*
X119843828Y-87774646D01*
X119925950Y-87661614D01*
X119981280Y-87618949D01*
X120026268Y-87610500D01*
X125672548Y-87610500D01*
X125739587Y-87630185D01*
G37*
%TD.AperFunction*%
%TA.AperFunction,Conductor*%
G36*
X136263877Y-78574519D02*
G01*
X136292535Y-78576055D01*
X136298986Y-78580120D01*
X136304527Y-78581004D01*
X136314413Y-78589840D01*
X136338965Y-78605311D01*
X137561481Y-79827827D01*
X137594966Y-79889150D01*
X137597800Y-79915508D01*
X137597800Y-92922071D01*
X137621358Y-93040500D01*
X137621359Y-93040505D01*
X137622798Y-93047740D01*
X137622798Y-93047742D01*
X137640283Y-93089953D01*
X137671835Y-93166127D01*
X137734364Y-93259709D01*
X137743026Y-93272673D01*
X137743027Y-93272674D01*
X138333973Y-93863619D01*
X138344585Y-93883055D01*
X138359086Y-93899789D01*
X138361002Y-93913120D01*
X138367458Y-93924942D01*
X138365878Y-93947028D01*
X138369030Y-93968947D01*
X138363434Y-93981198D01*
X138362474Y-93994633D01*
X138349204Y-94012359D01*
X138340005Y-94032503D01*
X138328674Y-94039784D01*
X138320603Y-94050567D01*
X138299855Y-94058305D01*
X138281227Y-94070277D01*
X138259308Y-94073428D01*
X138255138Y-94074984D01*
X138246292Y-94075300D01*
X138238608Y-94075300D01*
X138171569Y-94055615D01*
X138150927Y-94038981D01*
X130566674Y-86454727D01*
X130566673Y-86454726D01*
X130566669Y-86454723D01*
X130460127Y-86383535D01*
X130460122Y-86383533D01*
X130341744Y-86334499D01*
X130341738Y-86334497D01*
X130216071Y-86309500D01*
X130216069Y-86309500D01*
X120026268Y-86309500D01*
X119959229Y-86289815D01*
X119925950Y-86258385D01*
X119867860Y-86178432D01*
X119843828Y-86145354D01*
X119704646Y-86006172D01*
X119625025Y-85948324D01*
X119545403Y-85890474D01*
X119368787Y-85800485D01*
X119317990Y-85752511D01*
X119301195Y-85684690D01*
X119323732Y-85618555D01*
X119368787Y-85579515D01*
X119545403Y-85489525D01*
X119545402Y-85489525D01*
X119545405Y-85489524D01*
X119704646Y-85373828D01*
X119843828Y-85234646D01*
X119959524Y-85075405D01*
X120048884Y-84900025D01*
X120109709Y-84712826D01*
X120119778Y-84649251D01*
X120140500Y-84518422D01*
X120140500Y-84321577D01*
X120109709Y-84127173D01*
X120059913Y-83973920D01*
X120048884Y-83939975D01*
X120048882Y-83939972D01*
X120048882Y-83939970D01*
X119993188Y-83830665D01*
X119959524Y-83764595D01*
X119843828Y-83605354D01*
X119704646Y-83466172D01*
X119608066Y-83396002D01*
X119545403Y-83350474D01*
X119368787Y-83260485D01*
X119317990Y-83212511D01*
X119301195Y-83144690D01*
X119323732Y-83078555D01*
X119368787Y-83039515D01*
X119545403Y-82949525D01*
X119545402Y-82949525D01*
X119545405Y-82949524D01*
X119704646Y-82833828D01*
X119843828Y-82694646D01*
X119925950Y-82581614D01*
X119981280Y-82538949D01*
X120026268Y-82530500D01*
X127745892Y-82530500D01*
X127812931Y-82550185D01*
X127858686Y-82602989D01*
X127868630Y-82672147D01*
X127839605Y-82735703D01*
X127833573Y-82742181D01*
X126360373Y-84215381D01*
X126299050Y-84248866D01*
X126272692Y-84251700D01*
X122189183Y-84251700D01*
X122122144Y-84232015D01*
X122101506Y-84215385D01*
X122011182Y-84125061D01*
X122011181Y-84125060D01*
X122011180Y-84125059D01*
X121847320Y-84015571D01*
X121847307Y-84015564D01*
X121665239Y-83940150D01*
X121665229Y-83940147D01*
X121471943Y-83901700D01*
X121471941Y-83901700D01*
X121274859Y-83901700D01*
X121274857Y-83901700D01*
X121081570Y-83940147D01*
X121081560Y-83940150D01*
X120899492Y-84015564D01*
X120899479Y-84015571D01*
X120735618Y-84125060D01*
X120735614Y-84125063D01*
X120596263Y-84264414D01*
X120596260Y-84264418D01*
X120486771Y-84428279D01*
X120486764Y-84428292D01*
X120411350Y-84610360D01*
X120411347Y-84610370D01*
X120372900Y-84803656D01*
X120372900Y-84803659D01*
X120372900Y-85000741D01*
X120372900Y-85000743D01*
X120372899Y-85000743D01*
X120411347Y-85194029D01*
X120411350Y-85194039D01*
X120486764Y-85376107D01*
X120486771Y-85376120D01*
X120596260Y-85539981D01*
X120596263Y-85539985D01*
X120735614Y-85679336D01*
X120735618Y-85679339D01*
X120899479Y-85788828D01*
X120899492Y-85788835D01*
X121081560Y-85864249D01*
X121081565Y-85864251D01*
X121081569Y-85864251D01*
X121081570Y-85864252D01*
X121274856Y-85902700D01*
X121274859Y-85902700D01*
X121471943Y-85902700D01*
X121601982Y-85876832D01*
X121665235Y-85864251D01*
X121847314Y-85788832D01*
X122011182Y-85679339D01*
X122101503Y-85589017D01*
X122162824Y-85555534D01*
X122189183Y-85552700D01*
X126657571Y-85552700D01*
X126742115Y-85535882D01*
X126783244Y-85527701D01*
X126901627Y-85478665D01*
X126903941Y-85477119D01*
X126909578Y-85473353D01*
X126955701Y-85442534D01*
X127008169Y-85407477D01*
X132228827Y-80186819D01*
X132290150Y-80153334D01*
X132316508Y-80150500D01*
X134564071Y-80150500D01*
X134652286Y-80132952D01*
X134689744Y-80125501D01*
X134808127Y-80076465D01*
X134914669Y-80005277D01*
X136005277Y-78914669D01*
X136076466Y-78808126D01*
X136115524Y-78713830D01*
X136125501Y-78689744D01*
X136130934Y-78662427D01*
X136132859Y-78656229D01*
X136148746Y-78632325D01*
X136162050Y-78606891D01*
X136167843Y-78603591D01*
X136171534Y-78598039D01*
X136197822Y-78586519D01*
X136222765Y-78572316D01*
X136229423Y-78572672D01*
X136235530Y-78569997D01*
X136263877Y-78574519D01*
G37*
%TD.AperFunction*%
%TA.AperFunction,Conductor*%
G36*
X148746231Y-90170185D02*
G01*
X148766873Y-90186819D01*
X148954553Y-90374499D01*
X149050374Y-90470319D01*
X149083859Y-90531642D01*
X149078875Y-90601333D01*
X149037004Y-90657267D01*
X148971539Y-90681684D01*
X148962693Y-90682000D01*
X148861557Y-90682000D01*
X148668270Y-90720447D01*
X148668260Y-90720450D01*
X148486192Y-90795864D01*
X148486179Y-90795871D01*
X148322318Y-90905360D01*
X148322314Y-90905363D01*
X148182963Y-91044714D01*
X148182960Y-91044718D01*
X148073471Y-91208579D01*
X148073464Y-91208592D01*
X147998050Y-91390660D01*
X147998047Y-91390670D01*
X147959600Y-91583956D01*
X147959600Y-91711692D01*
X147939915Y-91778731D01*
X147923281Y-91799373D01*
X146527373Y-93195281D01*
X146466050Y-93228766D01*
X146439692Y-93231600D01*
X145158162Y-93231600D01*
X145091123Y-93211915D01*
X145045368Y-93159111D01*
X145035424Y-93089953D01*
X145064449Y-93026397D01*
X145085275Y-93007283D01*
X145104319Y-92993446D01*
X145243444Y-92854321D01*
X145359095Y-92695143D01*
X145448418Y-92519837D01*
X145509218Y-92332716D01*
X145515984Y-92290000D01*
X143964000Y-92290000D01*
X143896961Y-92270315D01*
X143889409Y-92261599D01*
X143905925Y-92232993D01*
X143940000Y-92105826D01*
X143940000Y-91974174D01*
X143905925Y-91847007D01*
X143890488Y-91820269D01*
X143912489Y-91801206D01*
X143964000Y-91790000D01*
X145515984Y-91790000D01*
X145509218Y-91747283D01*
X145448418Y-91560162D01*
X145359095Y-91384856D01*
X145243444Y-91225678D01*
X145104321Y-91086555D01*
X144945143Y-90970904D01*
X144768235Y-90880765D01*
X144717439Y-90832790D01*
X144700644Y-90764969D01*
X144723181Y-90698835D01*
X144768236Y-90659795D01*
X144770022Y-90658884D01*
X144770025Y-90658884D01*
X144945405Y-90569524D01*
X145104646Y-90453828D01*
X145243828Y-90314646D01*
X145325950Y-90201614D01*
X145381280Y-90158949D01*
X145426268Y-90150500D01*
X148679192Y-90150500D01*
X148746231Y-90170185D01*
G37*
%TD.AperFunction*%
%TA.AperFunction,Conductor*%
G36*
X137978737Y-74852438D02*
G01*
X138058556Y-74885501D01*
X138058560Y-74885501D01*
X138058561Y-74885502D01*
X138184228Y-74910500D01*
X138184231Y-74910500D01*
X138913732Y-74910500D01*
X138980771Y-74930185D01*
X139014049Y-74961614D01*
X139096172Y-75074646D01*
X139235354Y-75213828D01*
X139332997Y-75284770D01*
X139394596Y-75329525D01*
X139571763Y-75419795D01*
X139622560Y-75467769D01*
X139639355Y-75535590D01*
X139616818Y-75601725D01*
X139571764Y-75640765D01*
X139394856Y-75730904D01*
X139235678Y-75846555D01*
X139096555Y-75985678D01*
X138980904Y-76144856D01*
X138891581Y-76320162D01*
X138830781Y-76507283D01*
X138824016Y-76550000D01*
X140376000Y-76550000D01*
X140443039Y-76569685D01*
X140450590Y-76578400D01*
X140434075Y-76607007D01*
X140400000Y-76734174D01*
X140400000Y-76865826D01*
X140434075Y-76992993D01*
X140449511Y-77019730D01*
X140427511Y-77038794D01*
X140376000Y-77050000D01*
X138824016Y-77050000D01*
X138830781Y-77092716D01*
X138891581Y-77279837D01*
X138980904Y-77455143D01*
X139096555Y-77614321D01*
X139235678Y-77753444D01*
X139394856Y-77869095D01*
X139571764Y-77959234D01*
X139622560Y-78007208D01*
X139639355Y-78075029D01*
X139616818Y-78141164D01*
X139571764Y-78180204D01*
X139394594Y-78270476D01*
X139363135Y-78293333D01*
X139235354Y-78386172D01*
X139235352Y-78386174D01*
X139235351Y-78386174D01*
X139096174Y-78525351D01*
X139096174Y-78525352D01*
X139096172Y-78525354D01*
X139056382Y-78580120D01*
X138980476Y-78684594D01*
X138891117Y-78859970D01*
X138841425Y-79012904D01*
X138801986Y-79070579D01*
X138737628Y-79097777D01*
X138668781Y-79085862D01*
X138635813Y-79062266D01*
X134628227Y-75054681D01*
X134594742Y-74993358D01*
X134599726Y-74923666D01*
X134641598Y-74867733D01*
X134707062Y-74843316D01*
X134715908Y-74843000D01*
X137931285Y-74843000D01*
X137978737Y-74852438D01*
G37*
%TD.AperFunction*%
%TA.AperFunction,Conductor*%
G36*
X131246231Y-67670185D02*
G01*
X131266873Y-67686819D01*
X132519741Y-68939688D01*
X132519748Y-68939694D01*
X132577807Y-68978487D01*
X132626290Y-69010882D01*
X132695637Y-69039605D01*
X132744672Y-69059917D01*
X132744675Y-69059917D01*
X132744676Y-69059918D01*
X132870344Y-69084916D01*
X132870347Y-69084916D01*
X138314071Y-69084916D01*
X138398615Y-69068098D01*
X138439744Y-69059917D01*
X138558127Y-69010881D01*
X138560875Y-69009044D01*
X138566512Y-69005279D01*
X138589688Y-68989792D01*
X138606609Y-68978486D01*
X138673285Y-68957608D01*
X138740666Y-68976092D01*
X138787356Y-69028070D01*
X138799500Y-69081588D01*
X138799500Y-69278422D01*
X138830290Y-69472826D01*
X138891117Y-69660029D01*
X138952956Y-69781394D01*
X138980476Y-69835405D01*
X139096172Y-69994646D01*
X139235354Y-70133828D01*
X139394595Y-70249524D01*
X139507844Y-70307227D01*
X139571213Y-70339515D01*
X139622009Y-70387489D01*
X139638804Y-70455310D01*
X139616267Y-70521445D01*
X139571213Y-70560485D01*
X139394594Y-70650476D01*
X139306921Y-70714175D01*
X139235354Y-70766172D01*
X139235352Y-70766174D01*
X139235351Y-70766174D01*
X139096174Y-70905351D01*
X139096174Y-70905352D01*
X139096172Y-70905354D01*
X139096170Y-70905357D01*
X138980476Y-71064594D01*
X138891117Y-71239970D01*
X138830290Y-71427173D01*
X138799500Y-71621577D01*
X138799500Y-71818422D01*
X138830290Y-72012826D01*
X138891117Y-72200029D01*
X138927573Y-72271577D01*
X138980476Y-72375405D01*
X139096172Y-72534646D01*
X139235354Y-72673828D01*
X139394595Y-72789524D01*
X139517992Y-72852397D01*
X139571213Y-72879515D01*
X139622009Y-72927489D01*
X139638804Y-72995310D01*
X139616267Y-73061445D01*
X139571213Y-73100485D01*
X139394594Y-73190476D01*
X139303741Y-73256485D01*
X139235354Y-73306172D01*
X139235352Y-73306174D01*
X139235351Y-73306174D01*
X139096174Y-73445351D01*
X139096169Y-73445357D01*
X139014050Y-73558385D01*
X138958720Y-73601051D01*
X138913732Y-73609500D01*
X138497815Y-73609500D01*
X138450362Y-73600061D01*
X138370544Y-73566999D01*
X138370538Y-73566997D01*
X138244871Y-73542000D01*
X138244869Y-73542000D01*
X120695131Y-73542000D01*
X120695129Y-73542000D01*
X120569461Y-73566997D01*
X120569455Y-73566999D01*
X120489638Y-73600061D01*
X120442185Y-73609500D01*
X120026268Y-73609500D01*
X119959229Y-73589815D01*
X119925950Y-73558385D01*
X119843830Y-73445357D01*
X119843825Y-73445351D01*
X119704648Y-73306174D01*
X119704646Y-73306172D01*
X119625025Y-73248324D01*
X119545403Y-73190474D01*
X119368787Y-73100485D01*
X119317990Y-73052511D01*
X119301195Y-72984690D01*
X119323732Y-72918555D01*
X119368787Y-72879515D01*
X119545403Y-72789525D01*
X119545402Y-72789525D01*
X119545405Y-72789524D01*
X119704646Y-72673828D01*
X119843828Y-72534646D01*
X119925950Y-72421614D01*
X119981280Y-72378949D01*
X120026268Y-72370500D01*
X123966071Y-72370500D01*
X124050615Y-72353682D01*
X124091744Y-72345501D01*
X124210127Y-72296465D01*
X124247375Y-72271577D01*
X124316669Y-72225277D01*
X126855127Y-69686819D01*
X126916450Y-69653334D01*
X126942808Y-69650500D01*
X128184217Y-69650500D01*
X128251256Y-69670185D01*
X128271893Y-69686814D01*
X128321176Y-69736097D01*
X128362219Y-69777140D01*
X128526079Y-69886628D01*
X128526092Y-69886635D01*
X128659052Y-69941708D01*
X128708165Y-69962051D01*
X128708169Y-69962051D01*
X128708170Y-69962052D01*
X128901456Y-70000500D01*
X128901459Y-70000500D01*
X129098543Y-70000500D01*
X129228582Y-69974632D01*
X129291835Y-69962051D01*
X129473914Y-69886632D01*
X129637782Y-69777139D01*
X129777139Y-69637782D01*
X129849968Y-69528784D01*
X129886631Y-69473916D01*
X129886635Y-69473907D01*
X129935596Y-69355703D01*
X129962051Y-69291835D01*
X129975745Y-69222989D01*
X130000500Y-69098543D01*
X130000500Y-68901456D01*
X129962052Y-68708170D01*
X129962051Y-68708169D01*
X129962051Y-68708165D01*
X129947077Y-68672014D01*
X129886635Y-68526092D01*
X129886628Y-68526079D01*
X129832870Y-68445625D01*
X129811992Y-68378948D01*
X129830476Y-68311567D01*
X129867080Y-68273632D01*
X129946934Y-68220277D01*
X130480392Y-67686819D01*
X130541715Y-67653334D01*
X130568073Y-67650500D01*
X131179192Y-67650500D01*
X131246231Y-67670185D01*
G37*
%TD.AperFunction*%
%TD*%
M02*
